<svg width="32" height="32" viewBox="0 0 32 32" fill="none" xmlns="http://www.w3.org/2000/svg">
<path d="M20.1257 16.2093C20.1257 17.9931 18.6304 19.4391 16.786 19.4391C14.9415 19.4391 13.4463 17.9931 13.4463 16.2093C13.4463 14.4255 14.9415 12.9795 16.786 12.9795C18.6304 12.9795 20.1257 14.4255 20.1257 16.2093Z" fill="url(#paint0_linear_209_13)"/>
<path d="M7.88309 26.9667C8.09165 27.2627 7.80242 27.6621 7.46106 27.5232C6.99197 27.3323 6.52979 27.111 6.07732 26.8584C0.310016 23.6382 -1.70713 16.575 1.5719 11.0824C4.8509 5.58978 12.1844 3.74765 17.9517 6.96788C18.4042 7.2205 18.8335 7.49684 19.239 7.79419C19.534 8.01058 19.3211 8.4525 18.9517 8.4258C14.4393 8.09983 9.88927 10.2693 7.44588 14.3622C5.0025 18.455 5.335 23.3504 7.88309 26.9667Z" fill="url(#paint1_linear_209_13)"/>
<path d="M31.1941 18.7722C31.3548 18.4496 31.8571 18.4921 31.9034 18.8475C31.9671 19.3358 32 19.8335 32 20.3388C32 26.7792 26.6836 32.0003 20.1256 32.0003C13.5675 32.0003 8.25116 26.7792 8.25116 20.3388C8.25116 19.8336 8.28394 19.3358 8.3475 18.8476C8.39375 18.4922 8.89596 18.4497 9.0567 18.7723C11.021 22.7146 15.2388 25.4407 20.1256 25.4407C25.0123 25.4407 29.2298 22.7145 31.1941 18.7722Z" fill="url(#paint2_linear_209_13)"/>
<path d="M12.2607 3.0433C11.8914 3.06998 11.6783 2.62804 11.9733 2.41159C12.3788 2.11413 12.8081 1.83771 13.2606 1.58506C19.0279 -1.63516 26.3613 0.20698 29.6404 5.69959C32.9194 11.1922 30.9022 18.2553 25.1349 21.4755C24.6825 21.7282 24.2204 21.9496 23.7514 22.1405C23.41 22.2794 23.1208 21.8801 23.3294 21.5842C25.8775 17.9678 26.2098 13.0722 23.7664 8.97937C21.323 4.88654 16.773 2.71731 12.2607 3.0433Z" fill="url(#paint3_linear_209_13)"/>
<defs>
<linearGradient id="paint0_linear_209_13" x1="16" y1="-0.000483473" x2="16" y2="31.9995" gradientUnits="userSpaceOnUse">
<stop stop-color="#977DFF"/>
<stop offset="1" stop-color="#5D47ED"/>
</linearGradient>
<linearGradient id="paint1_linear_209_13" x1="16" y1="-0.000152234" x2="16" y2="31.9998" gradientUnits="userSpaceOnUse">
<stop stop-color="#977DFF"/>
<stop offset="1" stop-color="#5D47ED"/>
</linearGradient>
<linearGradient id="paint2_linear_209_13" x1="16" y1="0.000282228" x2="16" y2="32.0003" gradientUnits="userSpaceOnUse">
<stop stop-color="#977DFF"/>
<stop offset="1" stop-color="#5D47ED"/>
</linearGradient>
<linearGradient id="paint3_linear_209_13" x1="16" y1="8.29444e-07" x2="16" y2="32" gradientUnits="userSpaceOnUse">
<stop stop-color="#977DFF"/>
<stop offset="1" stop-color="#5D47ED"/>
</linearGradient>
</defs>
</svg>
