<svg width="1332" height="1214" viewBox="0 0 1332 1214" fill="none" xmlns="http://www.w3.org/2000/svg">
<rect x="612" y="571" width="615" height="220" rx="76" fill="#FFD3F4"/>
<circle cx="212.5" cy="386.5" r="54.5" fill="#FFD3F4"/>
<path d="M219 449.99V323C226.179 326.243 262.069 353.59 262.5 354C262.931 354.41 265.372 374.174 269.5 388C253.5 474 219 450.809 219 449.99Z" fill="white"/>
<path d="M746 869L742.5 1089.5L766.5 1094.5H800.5L831.5 1091.5L861 1085V1060V960L863.5 857L868 785L872 719L866 691.5L859.5 669L855 656L862.5 671L878.5 742L896.5 826.5L911.5 881L928.5 933.5L956.5 1012.5L972 1052L980 1071.5L990 1089.5L1019.5 1090.5L1050 1083L1083 1069.5L1098.5 1057.5L1055.5 924.5L1036.5 859L1020.5 790.5L1016 742L1006 632L998 589L989 563.5C925.5 584.5 874.2 580 869 580C863.8 580 829 579.5 776 560.5C769 590 764.3 658.1 761.5 664.5C758.7 670.9 750 803.667 746 869Z" fill="#FD78FF" stroke="#FD78FF"/>
<path d="M614 618C611.833 625.167 607.3 648.1 608.5 652.5C639.5 656 713.4 652.5 723 652.5C735 652.5 728.5 649 734 647C739.5 645 741.5 644 745.5 631C748.7 620.6 750.833 577.5 749.5 565.5C740.667 565.5 711.2 568.5 708 568.5C704 568.5 698 600 677.5 610C657 620 647.5 621.5 643.5 621.5C640.3 621.5 622.5 619.833 614 618Z" fill="white"/>
<path d="M1099.5 1089.5C1097.1 1095.23 1088.67 1107.6 1082 1110C1075.2 1112.4 1064 1112.27 1048 1110C1030.8 1107.6 1024 1111.57 1021.33 1118.5C1020.08 1121.51 1017 1128.24 1017 1131.5C1017 1133.1 1023 1134.47 1027 1134.47C1033 1134.47 1035.97 1132.93 1038.5 1136C1039.83 1137.6 1039.83 1136.07 1038.5 1137.94C1037.03 1139.94 1039.97 1137.73 1034.5 1136C1031.17 1134.93 1025.2 1134.2 1022 1133.94C1017.47 1133.4 1013.07 1137.37 1012 1139.5C1010.8 1141.63 1009.07 1143.8 1014 1145C1024.67 1147.8 1031.1 1148.2 1031.5 1151C1032.03 1154.87 1032.93 1151.8 1022 1149C1009.73 1145.93 1005.07 1143.83 1002.5 1152.5C1000.9 1154.37 994 1159.6 986 1166C978.133 1172.4 967.967 1181.6 966.5 1184L964 1191.27L974 1193.5C980.533 1195.5 1017.87 1195.23 1022 1193.5C1023.47 1192.83 1034.17 1191.13 1037.5 1191C1051.23 1190.2 1062.53 1181.5 1096 1157.5C1105.2 1150.83 1115.63 1144.63 1119.5 1142.5C1123.66 1140.14 1130 1137.78 1130 1133C1129.87 1130.87 1115.63 1106.73 1111.5 1101C1104.43 1091.4 1101.37 1084.97 1099.5 1089.5Z" fill="#FD78FF"/>
<path d="M748.5 1118.5L738.8 1127L747 1131.5C752.467 1134.3 758 1136.63 758 1138.5C759.5 1139.5 758.667 1139.57 758 1140.5C757.2 1141.83 759.033 1140.13 752.5 1136C747.833 1132.93 739.867 1129.5 738 1129.5C734.933 1129.63 725 1135.9 725 1137.5C721.333 1137.5 732.4 1141.77 736 1143.5C741.333 1146.03 739.767 1143.87 739.5 1146C738.967 1150.13 739.933 1148.2 733 1144.2C729.667 1142.2 722.2 1139.1 721 1139.5C719.266 1140.19 702.974 1146.19 696 1149.27C687.64 1152.97 678.282 1158.88 670.5 1163C665.967 1165.4 656 1174.9 656 1176.5C656 1177.03 659.367 1180.7 661.5 1181.5C681.767 1189.63 727.8 1190.03 765 1181.5C771.533 1180.03 830.133 1172.5 838 1172.5C839.733 1172.5 840.167 1167.53 839.5 1149C838.7 1130.87 833.867 1116 832 1116C816 1123.5 803.211 1132.87 778 1120C771.2 1116.67 761.133 1114 759 1114C756.467 1114 751.967 1115.43 748.5 1118.5Z" fill="#FD78FF"/>
<path d="M922 273C917.467 280.733 908.367 289.133 900.5 293C893.433 296.466 878.333 300 869 300C860.467 299.866 851.3 297.666 844.5 293C839.167 289.4 832.267 280.2 830 273C827.674 265.247 823.958 267.218 813.5 270.333C790.433 277 767.067 292.333 746 313C740.267 318.466 737.1 320.833 737.5 321.5C738.033 322.3 736.933 323.133 736 323C734.533 322.6 724.833 334.866 699.5 365C687.9 379 689 377.5 685.5 380C684.3 378.533 684 379.433 690 372.5L699 361.5L691.5 356C688.7 353.733 687.867 351.966 687.333 352.5C686.8 353.033 687.2 350.999 685.5 352C685.9 350.666 658.733 323.5 657 323.5C656.467 323.5 655.533 321.433 655 320.5C654.333 319.566 652 317.833 653.2 318.5C655.067 319.566 635 297.466 627 290L620 284L604.5 296.5C597.033 303.7 589.067 312.833 586 315.5C582.8 318.033 573 325.6 576.5 326C576.5 328.4 591.6 353.666 602 369.4C615.733 390.066 634.133 415.566 636 414.5C636.8 413.966 640.9 415.733 639 416C637 419.2 663.7 444.566 674.5 449.5C688.233 455.766 706.8 452.933 734 440C746.8 433.866 764.2 424.133 769 420C771.667 417.6 771.167 414.733 770.5 401.266C769.7 386.733 773.967 347.3 776.5 342.5C777.967 339.7 776.933 340.7 778 343.5C778.4 344.566 778.3 349.566 777.5 354.5C773.767 381.433 772.367 392.866 774.5 423C778.1 475.666 777.467 496.866 770 532.066C767.333 544.333 770.367 549.8 772.5 553C779.7 564.066 813.933 574.367 855 578.5C875.133 580.5 925.567 578.8 940.5 576C963.967 571.6 988.867 562.4 995 558C997.8 556 995.767 549.666 993.5 535C990.833 517.933 985.733 520.9 964 526.5C943.267 532.029 960.151 539.789 945.5 547.5C941.367 549.766 937.567 549 884.5 549C831.033 549 830.267 549.4 826 547C820.267 544.066 817.733 541.133 816 532.066C814.8 525.666 810.867 496.233 807 454.5C806.067 444.766 805.4 437.733 805 438C804.067 438.533 803.867 417.666 803.867 401.266C803.867 390.333 801.233 391.866 805.5 388L814.5 386H869C945 386.266 934.267 382.666 938 418C942.133 455.866 938.733 453 943 453C946.867 453 959.5 454.733 963.5 457C964.833 457.8 970.733 458.5 971 458.5C975.3 463.499 975 448.7 975 437.5C975.133 426.433 975.467 414.533 976 412C976.667 408.266 976.533 404.4 970 392C962.133 376.933 964.5 381 962 377.5C963.867 377.5 965.667 382.2 977 403C988.867 425 999 441.433 1003 446.5C1001 449.766 1015.43 445.766 1024.5 443.5C1043.03 438.966 1042.43 438.066 1043.5 441C1044.7 444.066 1046.1 441.433 1040.5 442.5C1028.23 440.833 994.633 453.933 986.5 457L980 459.666L982.533 465C988.533 473.533 991.8 497 989 509C988.467 511.666 988.333 516.766 989 518.5C990.067 521.433 992.633 522.8 1002.5 522C1016.4 524.499 1049.77 514.333 1061.5 511C1070.37 508.545 1092.56 495.719 1095.5 486.5C1097.63 479.3 1098.03 473.266 1095.5 461C1087.63 422.866 1058.23 359.766 1028.5 321.5C1019.72 310.03 1013.14 302.52 1000.5 293C992.233 286.733 976.733 277.433 975 278.5C974.067 279.033 971.967 277.433 972.5 276.5C973.967 273.966 952.533 268.6 938 267L928.5 264L922 273Z" fill="#FD78FF"/>
<path d="M484.151 2.77846C474.685 7.57846 470.285 14.2451 469.618 24.2451C469.218 29.7118 469.751 34.2451 471.085 37.4451L473.085 42.2451L443.618 69.3118L414.151 96.5119L401.485 97.1785C394.418 97.5785 387.885 98.3784 387.085 98.9118C386.018 99.5784 385.351 102.912 385.351 107.312V114.512H316.285C236.551 114.512 237.351 114.378 226.685 125.178C215.085 136.645 216.018 114.378 216.018 385.845C216.018 594.778 216.285 626.912 218.018 632.778C220.418 640.778 227.351 648.378 235.885 652.378L242.018 655.178H484.685H727.351L734.418 651.312C738.151 649.178 742.818 645.445 744.685 643.045C752.151 633.312 752.018 635.445 752.018 531.312V435.178L761.885 428.912L771.751 422.778L772.685 433.978C773.218 440.112 773.351 458.778 772.951 475.445C772.418 501.178 771.751 508.378 768.818 522.512C764.418 543.978 764.418 549.178 768.685 554.245L772.151 558.245L766.685 598.778C751.618 712.512 746.285 787.045 742.685 931.845C739.485 1059.05 738.951 1089.85 740.151 1091.05C740.818 1091.71 745.218 1093.31 750.018 1094.51C754.818 1095.71 758.818 1097.18 758.685 1097.58C758.685 1098.11 758.685 1100.11 758.685 1102.11C758.685 1104.78 756.685 1107.71 751.085 1113.18C737.885 1125.85 719.351 1137.05 688.551 1150.51C663.085 1161.71 652.951 1169.98 651.085 1181.58C650.418 1185.85 650.951 1187.05 654.818 1190.91C660.018 1196.11 671.485 1200.38 686.685 1202.65C702.418 1205.05 737.085 1203.45 759.351 1199.31C771.885 1196.91 786.685 1195.31 804.285 1194.51C833.351 1193.05 838.685 1191.71 841.485 1184.91C843.751 1179.31 841.085 1128.11 838.018 1119.45C836.685 1115.85 834.818 1112.65 833.885 1112.25C832.551 1111.71 832.018 1109.05 832.018 1102.65V1093.71L843.751 1091.31C850.151 1090.11 857.351 1088.38 859.751 1087.71L864.151 1086.25L863.218 1062.11C862.285 1034.65 864.685 884.778 866.685 841.178C867.885 816.112 869.885 785.578 872.818 748.112C873.351 742.112 874.018 737.312 874.151 737.578C874.418 737.845 877.885 753.712 881.885 772.778C897.351 846.512 916.418 911.445 947.751 995.845C962.951 1036.78 985.085 1091.18 986.951 1091.98C987.218 1092.11 994.818 1092.65 1004.02 1093.05L1020.68 1093.85L1022.15 1100.51C1022.95 1104.11 1023.22 1107.71 1022.55 1108.51C1022.02 1109.18 1019.75 1114.78 1017.35 1120.78C1010.02 1139.85 1003.08 1148.51 979.618 1167.58C962.551 1181.45 957.218 1191.58 962.018 1201.71C965.885 1209.98 973.218 1212.38 995.751 1212.91C1039.22 1214.11 1062.02 1207.18 1096.55 1182.11C1103.75 1176.78 1114.55 1169.05 1120.55 1164.78C1126.42 1160.65 1132.42 1155.85 1133.75 1154.38C1137.08 1150.25 1136.55 1144.78 1131.48 1131.58C1125.48 1115.85 1115.48 1099.58 1107.08 1091.85C1102.68 1087.85 1098.55 1082.25 1095.88 1076.78L1091.62 1068.11L1095.75 1064.51C1098.02 1062.65 1100.28 1059.98 1100.68 1058.65C1101.08 1057.18 1099.08 1049.98 1096.28 1042.38C1091.48 1029.71 1079.48 993.045 1067.35 954.512C1056.82 921.312 1038.68 857.845 1032.28 832.512C1023.48 797.445 1022.15 788.245 1017.35 726.512C1010.95 645.178 1004.95 600.912 996.551 574.245L993.085 563.578L996.018 561.578C998.818 559.578 998.951 558.778 998.151 548.645C997.618 542.645 996.685 535.445 996.018 532.512C995.351 529.578 994.951 527.178 995.085 527.045C995.218 526.778 1003.22 525.712 1012.68 524.512C1055.35 519.045 1085.22 508.512 1094.15 495.578C1101.48 485.045 1102.68 477.045 1099.22 460.112C1092.68 427.712 1070.15 377.712 1044.55 339.178C1013.08 291.845 982.418 271.045 931.351 262.778L916.685 260.378L915.085 255.845C914.018 252.912 913.485 243.178 913.485 229.445L913.618 207.845L917.085 207.045C924.285 205.312 930.418 201.178 938.418 192.512C948.151 182.112 951.218 176.512 954.818 162.912C960.151 141.978 957.351 114.778 948.018 97.3118C934.285 71.7118 898.818 57.5785 858.018 61.4452C831.085 63.9785 803.351 80.6452 792.951 100.512C789.885 106.379 789.485 115.045 791.351 130.645C792.285 138.912 793.051 144.376 790.518 145.176C785.985 146.643 783.951 149.043 783.018 155.176C781.818 163.176 781.818 168.976 787.018 174.176C791.018 178.31 790.285 181.578 791.218 191.978C794.151 228.378 808.018 248.245 834.151 253.445C841.351 254.912 841.485 255.045 841.085 259.045C840.685 263.178 840.685 263.178 830.685 263.978C810.951 265.712 784.418 277.045 764.018 292.378L752.685 300.912L752.018 219.978C751.351 139.712 751.351 139.178 748.418 133.712C746.818 130.645 742.951 125.979 739.885 123.445C729.751 114.645 728.418 114.512 668.418 114.512H614.685V107.979C614.685 98.3785 612.418 97.1785 594.685 97.1785H580.685L552.685 72.3784C514.551 38.6451 518.151 42.7785 520.818 36.5119C525.485 25.3119 520.685 11.1785 510.151 4.64516C501.485 -0.821503 492.151 -1.4882 484.151 2.77846ZM506.685 7.17849C513.751 10.7785 517.618 17.7119 517.618 26.5119C517.485 34.5119 514.818 39.9785 508.418 44.7785C501.751 49.8451 490.818 50.1118 483.618 45.1785C478.018 41.4452 473.351 33.0451 473.351 26.7785C473.351 10.2451 491.618 -0.421511 506.685 7.17849ZM548.285 74.9118L573.351 97.1785H497.351C455.485 97.1785 421.351 97.0451 421.351 96.7785C421.351 96.3785 457.351 63.0451 470.418 51.3118L476.151 46.1118L482.551 49.7118C490.685 54.1118 500.418 54.3785 508.018 50.5119C510.818 49.0452 513.618 47.1784 514.018 46.3784C514.685 45.4451 516.418 46.3785 519.218 48.7785C521.485 51.0451 534.551 62.7784 548.285 74.9118ZM609.751 115.045C609.618 122.912 608.951 127.312 607.751 127.979C606.818 128.512 557.485 128.912 498.018 128.778L390.018 128.512L389.618 115.445L389.218 102.512L499.618 102.778L610.018 103.178L609.751 115.045ZM870.018 122.112C876.285 133.445 895.085 152.378 905.885 158.378C910.151 160.778 913.351 162.778 913.218 162.912C912.951 163.178 906.018 163.045 897.751 162.778C883.351 162.245 882.951 162.245 882.151 159.045C880.818 153.979 873.485 146.645 868.018 145.045C859.618 142.512 851.485 144.512 845.085 150.645C840.418 155.045 838.685 155.845 833.751 155.845C828.685 155.845 827.751 155.445 826.551 152.245C823.485 143.978 814.285 138.645 803.485 138.512H797.085L797.885 134.245C799.085 128.245 800.418 127.179 809.751 124.512C821.351 121.312 850.285 109.712 856.685 105.845L861.885 102.645L863.485 107.845C864.285 110.645 867.218 117.045 870.018 122.112ZM730.018 122.112C732.951 123.578 736.951 126.645 738.951 128.778C746.818 137.045 746.685 134.912 746.685 224.912V307.312L741.218 312.512C734.551 319.045 711.218 345.312 706.151 352.112C704.018 354.912 701.351 357.178 700.018 357.178C696.285 357.178 679.751 341.978 653.085 314.245C639.351 299.978 625.218 285.978 621.485 283.178C615.085 278.245 614.951 277.978 614.018 269.312C612.151 252.245 604.418 239.045 585.218 220.378C572.285 207.845 562.151 200.912 543.351 191.845C527.218 183.978 520.951 182.512 517.351 185.845C511.618 191.045 515.351 196.645 533.218 209.178L545.085 217.578L541.351 222.378C539.218 225.045 537.085 228.912 536.551 231.178C536.018 233.312 533.885 237.178 531.751 239.578C529.218 242.512 528.018 245.445 528.018 248.512C528.018 252.245 527.485 253.178 525.351 253.178C521.485 253.178 518.285 258.912 519.218 264.245C520.685 271.845 527.218 280.512 535.085 285.178C539.351 287.845 543.218 291.445 544.818 294.112C547.751 299.712 557.751 308.512 568.418 314.778C574.951 318.778 575.751 319.712 574.018 321.178C572.951 322.112 572.018 323.445 572.018 324.245C572.018 329.312 601.351 376.512 617.351 397.178C628.685 411.712 653.218 437.312 663.485 445.312C682.685 460.112 703.751 459.445 735.885 443.178C741.085 440.645 745.751 438.512 746.285 438.512C747.218 438.512 747.218 474.645 746.285 590.512C746.125 615.668 750.404 637.969 724.818 650.512H484.151C252.418 650.512 243.085 650.378 238.018 647.978C231.751 645.045 224.818 638.112 222.818 632.778C221.751 630.112 221.351 553.978 221.351 385.445C221.351 151.978 221.485 141.579 223.885 136.512C226.551 130.512 233.085 124.378 239.618 121.578C243.085 120.245 258.285 119.845 314.685 119.845H385.351V124.912C385.351 127.712 386.018 130.645 386.951 131.578C389.218 133.845 610.818 133.845 613.085 131.578C614.018 130.645 614.685 127.312 614.685 124.112V118.378L669.751 118.778C723.085 119.178 724.818 119.312 730.018 122.112ZM815.518 143.676C820.718 146.876 824.685 159.045 823.485 165.445C822.285 171.845 817.885 178.379 813.618 179.979C809.485 181.579 799.218 180.645 796.551 178.378C795.218 177.312 784.518 173.576 784.518 167.176C784.518 152.243 793.485 142.476 796.018 141.676C799.751 140.61 811.118 141.143 815.518 143.676ZM867.518 147.676C878.318 153.543 885.018 169.176 875.018 179.176C871.151 183.043 866.018 186.512 860.285 186.512C852.151 186.512 845.418 183.01 843.018 175.676C838.018 170.307 842.151 159.71 845.085 155.176C848.951 149.176 860.851 144.21 867.518 147.676ZM836.285 161.178C838.418 161.178 838.818 161.845 838.018 165.045C836.685 171.312 840.785 179.443 846.518 185.176L853.018 187.676L861.018 189.176C869.418 188.776 870.085 187.976 873.018 185.176C877.285 181.176 881.518 173.676 882.685 170.512C886.018 168.176 883.218 167.712 897.351 167.979C908.818 168.112 912.685 167.712 914.418 166.112C921.351 160.112 927.218 160.378 932.685 166.778C938.951 174.245 936.018 189.845 926.818 197.578C923.085 200.645 915.351 203.845 911.218 203.845C908.418 203.845 907.085 236.912 909.351 249.312C911.485 260.378 913.085 263.578 917.485 264.512C919.618 265.045 921.351 265.712 921.351 266.112C921.351 268.912 913.618 279.312 907.751 284.378C898.818 292.245 889.085 295.978 875.085 296.778C852.285 298.378 838.418 289.845 834.018 271.578C833.218 268.245 833.351 267.978 837.218 268.112C842.951 268.245 845.351 265.712 845.351 259.712C845.351 254.912 845.618 254.645 850.418 253.845C859.085 252.512 869.351 248.778 869.351 246.912C869.351 244.778 868.285 244.778 861.885 247.045C848.951 251.578 833.751 250.778 822.285 244.912C814.951 241.178 806.951 232.645 803.218 224.512C799.618 216.645 796.018 200.112 796.018 191.178L795.018 179.979L804.518 182.676C813.585 182.276 817.218 184.779 816.551 186.512C812.818 195.979 815.618 200.645 825.751 201.978C830.818 202.645 832.018 202.512 832.018 200.912C832.018 199.578 830.151 198.512 827.085 197.978C818.285 196.512 818.285 196.512 824.018 179.979C826.951 171.579 829.351 163.578 829.351 162.245C829.351 160.378 830.018 159.845 831.485 160.378C832.685 160.778 834.818 161.178 836.285 161.178ZM552.151 201.312C566.285 209.445 585.485 224.778 592.418 233.712C595.885 238.245 596.018 238.645 594.018 241.712L591.885 244.912L571.618 230.778C527.485 199.978 520.018 194.245 520.018 191.045C520.018 186.112 532.418 189.978 552.151 201.312ZM553.085 223.578L556.151 225.978L553.485 228.512C548.685 232.778 550.685 239.312 559.618 249.312C564.551 254.778 564.818 258.512 560.151 258.512C557.351 258.512 540.018 236.778 540.018 233.312C540.018 230.645 546.685 221.178 548.551 221.178C549.351 221.178 551.351 222.245 553.085 223.578ZM570.151 235.445C575.218 238.912 581.751 243.312 584.551 245.445C591.085 250.112 594.418 250.245 596.018 245.712C597.218 242.778 597.751 242.512 599.351 243.845C603.485 247.312 608.151 259.578 609.218 269.978C609.885 275.845 610.818 281.578 611.351 282.778C612.018 284.512 608.418 288.778 596.551 300.512C579.085 317.712 580.151 317.445 568.151 309.578C558.418 303.312 550.018 295.312 548.018 290.512C545.351 283.978 549.085 275.445 559.085 265.578C567.351 257.445 567.485 257.445 570.551 259.712C573.351 261.845 573.485 262.645 572.418 268.112C571.218 273.712 572.818 285.045 575.218 287.445C577.351 289.578 578.551 285.445 577.218 280.512C576.418 277.578 576.151 271.978 576.551 267.578L577.485 259.978L568.285 251.312C557.351 240.912 553.351 234.378 555.885 231.312C558.551 228.112 560.151 228.645 570.151 235.445ZM540.418 243.712C541.751 245.978 545.885 251.045 549.618 255.178L556.418 262.645L552.285 266.778L548.285 270.912L542.951 266.645C537.618 262.512 532.018 253.178 532.018 248.645C532.018 246.378 536.018 239.978 537.351 239.845C537.751 239.845 539.218 241.578 540.418 243.712ZM535.751 266.245C544.151 274.378 544.951 275.578 544.285 279.578C543.618 284.512 542.285 284.778 536.551 281.312C528.551 276.512 521.618 264.112 524.285 259.445C524.951 258.245 525.751 257.178 526.018 257.178C526.285 257.178 530.685 261.178 535.751 266.245ZM950.018 271.445C976.818 277.712 1002.15 293.578 1021.22 316.245C1049.08 349.312 1081.22 410.645 1092.02 451.178C1101.48 487.045 1094.42 498.912 1056.42 511.045C1044.02 514.912 1020.02 519.312 1004.15 520.645C994.018 521.445 993.618 521.445 991.485 518.378C989.751 515.578 989.618 513.845 990.951 505.978C993.351 491.312 989.618 473.312 982.018 462.912C979.885 459.978 979.885 459.978 990.685 456.645C999.751 453.845 1014.15 450.245 1041.75 443.578C1047.08 442.245 1047.88 439.445 1043.08 438.778C1041.48 438.512 1032.82 440.245 1023.62 442.378C1014.55 444.645 1006.68 446.512 1006.28 446.512C1004.55 446.512 994.018 429.445 979.485 402.912C970.951 387.178 963.351 375.045 962.151 374.778C958.551 373.978 959.751 378.112 966.951 391.445L973.751 404.245L973.885 432.112C974.018 456.378 973.751 459.712 972.018 458.912C964.818 455.712 952.018 451.845 948.418 451.845C946.018 451.845 944.018 451.578 944.018 451.312C944.018 448.512 938.418 398.512 937.751 396.245C936.518 392.676 933.018 389.176 930.285 387.427C926.518 384.676 909.118 385.045 900.951 385.045C886.151 385.045 858.951 384.912 840.418 384.778C807.885 384.512 806.685 384.645 804.018 387.312C802.418 388.912 800.818 392.512 800.418 395.312C800.151 398.112 802.818 431.045 806.685 468.512C814.018 542.112 814.285 543.312 822.551 548.778C827.085 551.845 827.085 551.845 883.618 551.845C945.085 551.845 946.818 551.712 951.485 544.512C952.818 542.512 953.885 538.778 953.885 536.245C953.885 532.512 954.418 531.578 957.351 531.045C959.218 530.645 964.951 529.178 970.018 527.845C975.218 526.512 981.618 525.178 984.285 524.778C990.018 523.978 989.885 523.712 992.018 538.512C992.818 543.978 993.751 550.378 994.151 552.778C994.685 556.912 994.418 557.178 986.285 561.045C971.485 568.112 940.818 574.778 911.351 577.312C894.151 578.645 881.218 578.378 852.685 575.712C810.151 571.845 772.685 558.778 770.151 546.912C769.618 544.778 770.818 535.978 772.685 527.178C778.551 499.712 779.485 476.778 776.818 430.912C774.951 399.178 774.818 388.245 776.018 376.512C779.218 344.112 779.218 341.178 776.951 341.178C774.418 341.178 773.885 343.445 771.218 369.178C769.751 382.912 769.351 394.378 770.018 403.312L770.818 416.778L763.885 421.978C754.551 428.778 724.418 443.845 712.018 447.845C698.018 452.378 685.751 452.245 676.018 447.578C661.618 440.512 631.218 408.778 609.885 378.512C601.618 366.912 584.285 338.912 579.618 329.712L577.485 325.712L598.285 305.845L618.951 286.112L650.951 318.912C668.551 337.045 685.885 353.978 689.485 356.645C693.085 359.312 696.018 361.845 696.018 362.512C696.018 363.178 693.085 366.912 689.351 370.912C682.685 378.245 680.951 382.512 684.551 382.512C686.418 382.512 694.285 373.712 718.685 344.512C745.618 312.378 769.618 291.578 792.418 280.645C803.085 275.445 821.751 269.178 826.418 269.178C827.218 269.178 828.551 271.445 829.218 274.245C832.818 287.578 844.285 298.245 858.418 301.312C867.485 303.445 884.951 301.445 896.418 297.178C905.618 293.712 917.485 283.178 923.351 273.445C927.885 265.712 925.751 265.845 950.018 271.445ZM928.018 391.178C930.151 392.378 932.285 394.512 932.685 396.245C933.618 400.112 939.751 457.712 939.351 458.245C939.085 458.512 932.151 459.578 923.885 460.645C915.485 461.578 904.951 463.445 900.418 464.512C890.151 467.045 890.018 467.376 890.018 464.176C890.018 460.176 887.218 453.845 883.218 450.645C875.485 444.645 863.885 445.978 858.018 453.712C853.618 459.578 852.685 464.912 855.218 470.912C858.018 477.845 864.285 481.445 872.685 480.778C876.418 480.512 880.285 479.978 881.351 479.445C883.885 478.245 886.951 485.178 885.218 487.978C883.351 491.045 883.885 493.978 886.951 497.978C888.685 500.112 889.751 503.178 889.618 505.178C889.085 509.445 893.885 515.845 897.485 515.845C899.618 515.845 899.885 516.512 899.218 519.178C898.551 521.712 899.351 523.312 902.285 526.245C907.218 531.312 916.018 533.178 934.018 533.178C948.285 533.178 947.518 535.176 948.018 539.176C948.353 548.176 904.985 546.512 885.218 546.512C823.351 546.512 822.951 546.512 820.151 538.245C818.418 533.312 817.618 526.778 810.685 456.112C804.685 395.045 804.551 394.112 807.485 391.312C810.551 388.112 922.018 388.112 928.018 391.178ZM984.685 422.778C986.951 427.178 991.218 434.778 994.418 439.445C997.485 444.112 999.751 448.512 999.351 449.178C998.818 450.112 981.751 455.845 979.485 455.845C979.085 455.845 978.685 446.512 978.685 435.178C978.685 423.845 979.085 414.512 979.751 414.512C980.285 414.645 982.551 418.245 984.685 422.778ZM881.485 455.712C892.018 466.378 879.485 481.712 865.751 474.912C860.151 472.245 857.751 467.578 859.218 461.978C861.751 451.712 874.018 448.245 881.485 455.712ZM967.351 462.378C972.551 464.778 977.751 467.578 979.085 468.778C980.285 469.978 982.685 475.178 984.285 480.245C986.551 487.845 986.818 491.445 986.151 499.978C985.618 505.712 984.685 511.978 984.018 513.845C981.085 521.712 957.218 528.112 930.685 528.378C916.151 528.378 913.351 528.112 909.351 525.712C906.551 524.112 904.685 521.978 904.685 520.378C904.685 517.978 905.885 517.845 923.085 517.445C936.951 517.178 941.351 516.645 940.951 515.445C940.685 514.378 934.285 513.578 919.618 513.178C900.418 512.512 898.418 512.245 895.751 509.578C893.351 507.178 893.218 506.378 894.685 504.645C896.018 502.912 899.485 502.512 911.885 502.378C930.285 502.245 938.951 501.178 939.751 498.778C940.151 497.312 936.685 497.178 920.285 497.978C909.351 498.378 898.151 498.512 895.618 497.978C890.285 497.045 888.285 493.578 890.551 489.445C891.751 487.178 894.018 486.778 908.951 485.978C933.085 484.778 940.285 483.845 939.618 481.978C939.085 480.378 934.018 480.245 906.685 481.178L888.685 481.845L888.285 478.378C888.018 476.512 888.685 474.378 889.618 473.578C896.151 468.245 930.018 462.645 940.551 465.045C948.018 466.778 949.351 466.245 946.285 462.778C944.951 461.445 944.018 459.578 944.018 458.512C944.018 455.445 957.351 457.578 967.351 462.378ZM787.085 566.512C798.151 571.578 830.285 579.712 845.218 581.312C860.685 582.912 908.551 582.778 923.351 581.178C938.685 579.312 957.751 575.445 972.818 571.045C979.351 569.178 985.618 567.312 986.818 566.912C988.551 566.378 989.618 567.845 991.085 572.778C1000.55 601.712 1006.55 645.045 1013.35 733.845C1018.42 798.112 1021.35 813.578 1042.15 885.845C1057.62 939.445 1080.42 1011.45 1091.22 1041.31L1096.95 1057.18L1092.42 1061.18C1084.02 1068.65 1058.42 1079.98 1041.35 1083.98C1020.68 1088.78 994.285 1090.65 990.418 1087.58C988.018 1085.58 981.085 1069.71 967.351 1034.51C924.018 923.978 901.751 849.578 880.685 744.512C875.885 720.245 870.685 695.845 869.218 689.978C864.285 670.912 854.551 647.845 851.218 647.845C848.551 647.845 848.685 648.378 854.685 662.112C860.285 675.045 865.351 691.578 868.685 707.578C870.551 716.645 870.418 720.512 867.351 761.578C865.618 785.978 863.485 817.178 862.818 831.178C860.418 875.578 858.418 978.778 858.951 1031.98L859.351 1083.58L842.685 1087.05C833.485 1088.91 821.885 1091.18 816.685 1091.98C802.418 1094.11 767.618 1093.71 755.218 1091.05C749.485 1089.85 744.418 1088.78 744.018 1088.51C743.618 1088.25 743.751 1072.91 744.285 1054.25C744.818 1035.71 745.885 989.578 746.685 951.845C750.018 798.245 756.151 709.845 771.485 597.445C774.018 578.778 776.018 563.312 776.018 563.045C776.018 561.845 778.685 562.645 787.085 566.512ZM1092.15 1078.78C1095.22 1084.91 1096.15 1088.11 1095.62 1091.45C1094.55 1097.71 1090.02 1103.45 1083.62 1106.78C1077.88 1109.71 1071.22 1109.71 1038.42 1107.05L1028.02 1106.11L1026.68 1100.65C1025.88 1097.71 1024.95 1094.51 1024.68 1093.58C1024.42 1092.65 1026.95 1091.45 1031.75 1090.51C1047.35 1087.45 1063.75 1082.25 1074.68 1076.65C1080.95 1073.58 1086.42 1070.91 1086.95 1070.78C1087.48 1070.65 1089.88 1074.25 1092.15 1078.78ZM1121.22 1119.98C1124.95 1127.31 1128.02 1134.11 1128.02 1134.91C1128.02 1135.85 1126.02 1137.31 1123.75 1138.25C1121.35 1139.18 1112.42 1144.65 1104.02 1150.38C1050.02 1187.58 1047.48 1188.91 1022.68 1192.65C1000.02 1195.98 966.685 1193.58 966.685 1188.65C966.685 1185.85 974.685 1177.31 985.085 1169.05C990.685 1164.51 998.418 1157.85 1002.02 1154.38L1008.68 1147.98L1018.68 1150.51C1030.02 1153.45 1034.68 1153.85 1034.68 1151.71C1034.68 1150.11 1028.55 1147.45 1019.08 1145.18L1012.15 1143.45L1014.28 1139.45C1016.15 1135.71 1016.55 1135.58 1023.22 1136.38C1027.08 1136.78 1032.82 1137.98 1035.75 1139.05C1040.95 1140.91 1041.35 1140.91 1041.35 1138.65C1041.35 1135.45 1035.75 1133.05 1026.28 1132.25C1021.48 1131.71 1018.82 1130.91 1019.08 1129.98C1019.35 1129.18 1020.95 1124.78 1022.68 1120.25C1025.62 1112.25 1025.75 1112.11 1031.08 1111.58C1034.15 1111.18 1042.95 1111.85 1050.68 1112.78C1079.62 1116.65 1093.22 1111.98 1098.95 1096.25L1100.68 1091.58L1107.62 1099.05C1111.48 1103.45 1117.35 1112.38 1121.22 1119.98ZM828.018 1104.25C828.018 1112.11 827.485 1114.51 825.485 1116.38C821.218 1120.25 808.685 1123.85 799.485 1123.85C791.885 1123.85 789.618 1123.18 778.285 1117.18C771.351 1113.45 764.685 1110.51 763.485 1110.51C761.218 1110.51 761.085 1108.65 762.551 1101.98L763.351 1098.11L787.351 1097.58C800.551 1097.45 814.418 1096.65 818.018 1095.98C821.751 1095.45 825.485 1094.78 826.418 1094.65C827.485 1094.51 828.018 1097.31 828.018 1104.25ZM777.885 1122.38C789.085 1128.25 790.285 1128.51 800.551 1128.51C809.618 1128.51 812.685 1127.85 819.351 1124.78C823.751 1122.78 828.285 1120.11 829.618 1118.91C831.751 1117.05 832.018 1117.05 833.485 1120.65C835.618 1126.25 837.218 1141.18 837.351 1157.45C837.351 1171.45 837.218 1171.85 834.418 1171.85C832.685 1171.85 825.351 1172.51 818.018 1173.18C810.685 1173.98 798.151 1175.18 790.018 1175.85C782.018 1176.65 767.751 1178.78 758.551 1180.51C735.618 1184.91 712.685 1186.91 696.418 1185.98C683.218 1185.18 665.618 1181.58 660.018 1178.51L657.218 1177.05L660.018 1173.31C664.018 1167.71 672.818 1162.65 698.551 1151.05L721.618 1140.78L730.151 1144.91C739.618 1149.58 742.685 1150.11 742.685 1147.18C742.685 1146.11 739.085 1143.58 734.685 1141.58C730.285 1139.58 726.685 1137.58 726.685 1137.18C726.685 1136.78 729.485 1135.18 732.818 1133.45L738.818 1130.38L745.751 1134.25C749.618 1136.25 754.018 1138.78 755.618 1139.85C758.951 1141.98 760.418 1141.31 759.218 1138.11C758.418 1135.85 746.418 1127.85 743.885 1127.85C741.618 1127.85 743.751 1125.45 750.951 1119.71C759.218 1113.31 760.685 1113.45 777.885 1122.38ZM1131.48 1144.51C1131.88 1146.38 1132.02 1148.65 1131.62 1149.71C1130.82 1151.71 1107.75 1169.18 1087.48 1183.18C1057.48 1203.85 1034.68 1210.25 995.485 1208.91C981.085 1208.38 976.818 1207.85 972.551 1205.58C968.151 1203.31 962.818 1196.65 964.285 1195.18C964.551 1194.91 968.285 1195.58 972.685 1196.65C983.085 1199.05 1013.35 1199.05 1028.02 1196.65C1048.02 1193.31 1058.55 1188.11 1086.02 1168.51C1106.28 1153.98 1126.28 1141.18 1128.82 1141.18C1129.88 1141.18 1130.95 1142.65 1131.48 1144.51ZM838.685 1178.65C838.685 1187.05 834.018 1188.78 807.618 1189.98C786.418 1190.78 773.085 1192.38 745.351 1197.18C731.218 1199.71 725.351 1199.98 706.685 1199.45C683.885 1198.78 674.285 1197.05 662.951 1191.71C657.351 1188.91 653.885 1184.91 655.351 1182.65C655.751 1181.98 658.551 1182.65 661.618 1184.11C670.018 1188.25 685.351 1190.38 705.618 1190.51C725.351 1190.51 734.818 1189.58 763.351 1184.51C773.618 1182.65 793.485 1180.11 807.351 1178.78C841.351 1175.31 838.685 1175.45 838.685 1178.65Z" fill="black"/>
<path d="M368 199.667V207.667H416H464V199.667V191.667H416H368V199.667Z" fill="black"/>
<path d="M368 232.333V241H400H432V232.333V223.667H400H368V232.333Z" fill="black"/>
<path d="M268.267 313.933L268.667 351H304.667H340.667V314.333V277.667L304.267 277.267L268 277L268.267 313.933ZM336 314.333V346.333H304.667H273.333V314.333V282.333H304.667H336V314.333Z" fill="black"/>
<path d="M268.267 212.933L268.667 250H304.667H340.667V213.333V176.667L304.267 176.267L268 176L268.267 212.933ZM336 213.333V245.333H304.667H273.333V213.333V181.333H304.667H336V213.333Z" fill="black"/>
<path d="M368 300.6V309.4L393.067 308.6C406.8 308.067 433.2 307.667 451.733 307.667H485.333V299.667V291.667H426.667H368V300.6Z" fill="black"/>
<path d="M368 331.8V341H412H456V331.667V322.2L412 322.333L368 322.6V331.8Z" fill="black"/>
<path d="M277.733 389.667C274.133 391.8 271.2 395 269.467 398.867C266.667 404.6 266.533 405.933 266.933 460.6L267.307 512.979C267.324 515.349 267.982 517.67 269.21 519.697V519.697C269.734 520.561 270.39 521.341 271.131 522.028C282.785 532.844 273.231 530.333 405.333 530.333C508.4 530.333 528.667 530.067 531.733 528.467C536.8 525.8 542 519.8 543.867 514.467C545.867 508.333 546 406.733 543.867 401.4C542.133 396.867 536.533 390.733 531.733 388.2C528.667 386.6 508.533 386.333 405.733 386.333H289.85C285.585 386.333 281.399 387.485 277.733 389.667V389.667ZM530.667 392.733C533.6 394.333 536.533 397.4 538.4 401C541.333 406.867 541.333 407.667 541.333 458.333C541.333 509 541.333 509.8 538.4 515.667C532.667 527.133 542 526.333 405.333 526.333C288.133 526.333 284.533 526.2 280.4 523.667C271.067 518.067 271.333 519.933 271.333 458.333C271.333 396.733 271.067 398.6 280.4 393C284.533 390.467 288.133 390.333 405.333 390.333C519.6 390.333 526.267 390.467 530.667 392.733Z" fill="black"/>
<path d="M268 568.333C268 570.067 272.933 570.333 303.733 570.6C378.133 571.4 389.867 571.4 434.4 570.733C471.867 570.067 480 569.667 480 568.2C480 566.6 463.067 566.333 374 566.333C280.667 566.333 268 566.6 268 568.333Z" fill="black"/>
<path d="M268 598.333C268 601 268.933 601 399.333 601C529.733 601 530.667 601 530.667 598.333C530.667 595.667 529.733 595.667 399.333 595.667C268.933 595.667 268 595.667 268 598.333Z" fill="black"/>
<path d="M862.82 454.528C856.944 460.596 856.441 466.158 861.309 472.394C868.527 481.496 888 476.103 888 464.978C888 458.236 881.789 451.663 874.235 450.314C868.863 449.472 867.352 450.146 862.82 454.528Z" fill="black"/>
<path d="M1018.67 20.8664C1012.8 22.733 1004.8 27.2664 1001.73 30.5997C1000.13 32.1997 997.6 36.333 996.133 39.6664C993.6 45.2664 993.333 48.333 993.333 80.733V115.933L986.4 109C978.933 101.8 966.133 94.733 959.333 94.0664C954.533 93.533 954.533 94.1997 958.667 109C963.2 125.266 962.4 147.933 956.667 170.2C950.4 194.333 954.4 226.066 966.267 246.2C971.333 255 981.6 265.266 988.533 268.866C997.733 273.4 1009.07 275.133 1016.53 273C1025.6 270.466 1027.2 268.066 1025.47 259.666C1023.6 251.266 1023.6 246.333 1025.33 246.333C1026 246.333 1026.93 249.266 1027.47 252.866C1028.67 261.8 1030 263.8 1032.53 260.333C1039.6 251.133 1037.87 234.066 1027.87 214.066C1025.73 209.8 1024 205.933 1024 205.4C1024 204.466 1059.87 204.333 1060.67 205.266C1060.8 205.533 1061.33 215 1061.87 226.333C1062.4 237.666 1063.2 247.4 1063.87 248.066C1065.2 249.4 1064.4 250.333 1088.53 223.933L1107.2 203.666H1153.33C1206.13 203.666 1209.6 203.133 1219.33 194.2C1229.73 184.6 1229.47 186.6 1229.07 108.733L1228.67 39.933L1224.67 34.1997C1222.4 30.9997 1217.6 26.5997 1214 24.333L1207.6 20.333L1114.8 20.0664C1063.73 19.933 1020.53 20.333 1018.67 20.8664ZM1208.8 26.1997C1215.33 29.133 1223.73 38.5997 1224.67 44.1997C1225.07 46.4664 1225.33 78.0664 1225.07 114.6L1224.67 180.733L1220.67 186.466C1218.27 189.933 1214 193.533 1210 195.533L1203.47 199L1154 199.4L1104.53 199.8L1085.87 219.933L1067.33 240.066L1066.27 221.533C1065.73 211.4 1065.07 202.2 1064.67 201.266C1064.27 200.066 1058.53 199.666 1042.27 199.666H1020.4L1017.6 193.266C1013.6 184.066 1011.07 175.266 1008.8 161C1007.6 154.066 1004.67 142.066 1002 134.466L997.333 120.466V85.133C997.333 64.4664 998 47.533 998.8 44.5997C1001.33 35.2664 1010.8 26.9997 1021.33 24.8664C1023.87 24.333 1065.87 23.933 1114.67 23.7997C1198.13 23.6664 1203.6 23.933 1208.8 26.1997Z" fill="black"/>
<path d="M1156.67 430.333C1156.27 431 1158.93 435.667 1162.67 440.467C1177.33 459.533 1190.13 490.733 1194.93 519C1198.8 541.533 1197.87 579 1192.93 599.667C1186 628.333 1176.53 650.067 1159.73 675.133C1148.13 692.6 1125.6 715.933 1109.73 727C1098.67 734.6 1096.53 737 1101.07 737C1105.07 737 1131.2 716.2 1142.53 704.067C1156.54 688.992 1169.53 669.846 1178.8 651C1187.47 633 1194.67 612.467 1198.27 594.733C1202 576.467 1201.6 532.2 1197.6 511.933C1192.27 485.533 1180.8 458.6 1166.13 437.933C1159.87 429.133 1158.27 427.8 1156.67 430.333Z" fill="black"/>
<path d="M111 895.5L138.5 865.5L147 853.5L159.5 857.5L168.5 868C165.833 872.5 160.3 881.7 159.5 882.5C158.5 883.5 148.5 895.5 147 895.5C145.8 895.5 137.5 908.5 133.5 915L113 930L100 925.5L98 913L111 895.5Z" fill="#FD78FF" stroke="black"/>
<path d="M214.4 707.333C204.133 709.067 193.067 712.667 186.8 716.4C178.667 721.2 162.8 737.467 158.4 745.467C145.733 768.667 146.667 800.933 160.667 823.467C163.467 828 165.067 832 164.533 832.933C161.2 838.667 150.933 850 149.067 850C147.867 850 145.067 851.467 142.933 853.333C138.133 857.333 97.3333 903.867 95.0666 907.867C88.9333 918.533 99.6 934 112.933 934C119.467 934 120.933 932.933 136.933 914.667C167.333 880.133 173.333 872.667 173.333 868.533C173.333 865.6 175.067 862.667 179.6 857.6C183.067 853.733 186.133 850.4 186.267 850.133C186.533 849.733 189.467 850.8 193.067 852.4C207.467 859.067 227.067 861.2 242.933 857.867C285.733 848.933 312.933 799.733 297.6 758.533C292.4 744.267 284.533 732.933 274.267 724.667C263.067 715.6 252 710.4 239.6 708C228.267 705.867 224.133 705.733 214.4 707.333ZM245.333 714C257.333 717.2 272.533 727.733 281.733 739.067C307.2 770.133 299.733 819.467 266.267 842.533C227.2 869.467 173.2 851.067 157.867 805.867C148.667 778.933 154.8 752.667 175.067 732.667C194.533 713.2 218.933 706.8 245.333 714ZM175.867 841.867C182.4 847.733 182.267 848.667 174.267 856.533L169.6 860.933L164.133 856.533C161.2 854 158.667 851.333 158.667 850.533C158.667 848.933 168.133 836.667 169.333 836.667C169.733 836.8 172.667 839.067 175.867 841.867ZM161.067 860.8C168.667 868.133 168.4 870.667 158.933 880.933C154.667 885.6 146.133 895.333 139.733 902.667C133.333 910.133 125.067 918.933 121.333 922.533C115.333 928.133 114 928.8 110.267 928.133C103.2 926.8 98.1333 918.667 99.8666 911.733C100.533 909.333 109.733 897.867 117.333 890.133C118.533 888.933 123.067 883.733 127.333 878.667C149.6 852.533 151.467 851.6 161.067 860.8Z" fill="black"/>
<path d="M215.6 728.8C204.8 730.4 197.867 733.733 189.067 741.866C170.533 758.8 165.867 785.866 177.467 808.8C195.067 843.733 246.533 847.466 269.467 815.6C298.133 775.6 264.667 721.6 215.6 728.8ZM245.333 737.466C255.733 742.4 264.533 750.666 270 760.666C273.333 767.066 274 769.733 274.4 780.666C274.8 791.2 274.4 794.533 272 801.066C268.133 811.2 257.2 823.066 247.067 828.133C240.133 831.6 238 832 226 832C214.267 832 211.733 831.466 204.667 828.266C194.267 823.466 185.2 814.4 180.4 804.133C177.067 796.933 176.667 794.533 176.8 782.666C176.8 771.2 177.333 768.266 180.267 761.866C186.133 749.2 196.533 739.466 209.333 734.933C219.2 731.333 234.667 732.4 245.333 737.466Z" fill="black"/>
<path d="M386.133 803.333C376.667 806.267 366.667 816.533 364 826.133C363.2 828.8 362.667 859.2 362.667 901.333V972L365.867 978.667C370.133 987.6 376.533 993.467 385.733 996.667C392.667 999.067 396.8 999.333 436.133 999.333H478.933L497.2 1017.2C517.867 1037.6 522.133 1041.2 523.333 1039.47C523.733 1038.67 523.467 1030.53 522.667 1021.2C522 1011.87 521.333 1003.2 521.333 1002C521.333 1000.13 522.933 999.6 529.2 998.933C543.6 997.733 555.6 990.267 561.733 978.667C564.667 973.333 564.667 972.667 564.667 899.333C564.667 828.533 564.533 825.2 562.133 821.333C557.733 814.667 551.6 808.533 546 805.6C540.667 802.667 539.733 802.667 465.333 802.4C423.867 802.267 388.267 802.667 386.133 803.333ZM539.2 807.6C546.933 809.867 557.6 820.8 559.867 828.667C561.067 833.2 561.333 851.6 561.067 902.667C560.667 970 560.667 970.667 557.733 976.133C554 983.067 545.067 990.933 538.8 992.667C536.133 993.333 530.267 994 525.867 994C519.467 994 517.467 994.533 516.8 996.133C516.4 997.333 516.667 1005.07 517.467 1013.47C518.4 1021.87 518.667 1029.07 518.133 1029.6C517.733 1030.13 508.933 1022.27 498.933 1012.27L480.4 994H436.533C409.333 994 390.667 993.467 387.467 992.533C380.267 990.533 370.267 980.267 368.267 972.667C366.933 968.133 366.667 949.6 366.933 897.333L367.333 828L370.933 821.867C374.667 815.6 382.267 809.333 388.8 807.333C395.2 805.467 532.667 805.733 539.2 807.6Z" fill="black"/>
<rect x="448" y="704" width="117" height="49" rx="24.5" fill="#FFD3F4"/>
<rect x="1083" y="302" width="161" height="49" rx="24.5" fill="#FFD3F4"/>
<path d="M464 834V964" stroke="#FD78FF" stroke-width="9.75" stroke-linecap="round" stroke-linejoin="round"/>
<path d="M496.5 853.5H447.75C441.716 853.5 435.93 855.897 431.663 860.163C427.397 864.43 425 870.216 425 876.25C425 882.284 427.397 888.07 431.663 892.337C435.93 896.603 441.716 899 447.75 899H480.25C486.284 899 492.07 901.397 496.337 905.663C500.603 909.93 503 915.716 503 921.75C503 927.784 500.603 933.57 496.337 937.837C492.07 942.103 486.284 944.5 480.25 944.5H425" stroke="#FD78FF" stroke-width="9.75" stroke-linecap="round" stroke-linejoin="round"/>
<path d="M855.928 163.677C853.578 165.924 853.376 167.984 855.324 170.294C858.211 173.665 866 171.668 866 167.547C866 165.05 863.516 162.616 860.494 162.116C858.345 161.804 857.741 162.054 855.928 163.677Z" fill="black"/>
<path d="M799.928 156.677C797.578 158.924 797.376 160.984 799.324 163.294C802.211 166.665 810 164.668 810 160.547C810 158.05 807.516 155.616 804.494 155.116C802.345 154.804 801.741 155.054 799.928 156.677Z" fill="black"/>
<g clip-path="url(#clip0_163_12)">
<path d="M1048 110L1072 86.5L1083 77V186H1048V110Z" fill="#FFD3F4"/>
<path d="M1099 85.5L1134 120.5L1134 186H1099V85.5Z" fill="#FFD3F4"/>
<path d="M1148.5 122L1185 80V186H1148.5V122Z" fill="#FFD3F4"/>
<path d="M1028.88 124.879C1027.71 126.05 1027.71 127.95 1028.88 129.121C1030.05 130.293 1031.95 130.293 1033.12 129.121L1031 127L1028.88 124.879ZM1197.5 72.5C1197.5 70.8431 1196.16 69.5 1194.5 69.5L1167.5 69.5C1165.84 69.5 1164.5 70.8431 1164.5 72.5C1164.5 74.1568 1165.84 75.5 1167.5 75.5L1191.5 75.5L1191.5 99.5C1191.5 101.157 1192.84 102.5 1194.5 102.5C1196.16 102.5 1197.5 101.157 1197.5 99.5L1197.5 72.5ZM1095.4 81.1701L1093.25 83.2624L1095.4 81.1701ZM1031 127L1033.12 129.121C1034.78 127.46 1059.47 101.731 1077.67 83.1853L1075.53 81.084L1073.39 78.9828C1055.03 97.6827 1030.55 123.207 1028.88 124.879L1031 127ZM1095.4 81.1701L1093.25 83.2624L1127.95 118.922L1130.1 116.83L1132.25 114.738L1097.55 79.0777L1095.4 81.1701ZM1150.03 116.965L1152.16 119.087L1196.62 74.6213L1194.5 72.5L1192.38 70.3787L1147.91 114.844L1150.03 116.965ZM1130.1 116.83L1127.95 118.922C1134.56 125.715 1145.45 125.789 1152.16 119.087L1150.03 116.965L1147.91 114.844C1143.58 119.181 1136.53 119.133 1132.25 114.738L1130.1 116.83ZM1075.53 81.084L1077.67 83.1853C1081.94 78.8282 1088.97 78.8621 1093.25 83.2624L1095.4 81.1701L1097.55 79.0777C1090.94 72.2895 1080.05 72.1967 1073.39 78.9828L1075.53 81.084Z" fill="#FD78FF"/>
</g>
<path d="M816 219C820 225.5 836 225.5 843 219" stroke="black" stroke-width="5" stroke-linecap="round"/>
<circle cx="872" cy="464" r="15.5" fill="#FD78FF" stroke="black" stroke-width="5"/>
<path d="M637 552.5C634.6 552.5 598.96 583 587 598.5L600.5 610L618.5 617L639.5 620.5L662 617L682 605.5L696.5 588.5L708 551.5C687.167 551.5 639.4 552.5 637 552.5Z" fill="#FD78FF" stroke="#FD78FF" stroke-width="3"/>
<path d="M639 547L638 481L665 486.5L686 503L701 523.5L705 548L639 547Z" fill="#FD78FF" stroke="#FD78FF" stroke-width="3"/>
<circle cx="638" cy="551" r="70.5" stroke="black" stroke-width="5"/>
<line x1="584.304" y1="597.163" x2="636.304" y2="549.163" stroke="black" stroke-width="5"/>
<line x1="711" y1="549.5" x2="633" y2="549.5" stroke="black" stroke-width="5"/>
<line x1="635.5" y1="551" x2="635.5" y2="481" stroke="black" stroke-width="5"/>
<circle cx="860.5" cy="166.5" r="21" stroke="black" stroke-width="5"/>
<circle cx="804.5" cy="160.5" r="21" stroke="black" stroke-width="5"/>
<path d="M302 484.5C302 476.5 326.5 439.5 357.5 439.5C388.5 439.5 391 479.337 426.5 479.337C462 479.337 492 422 511 422" stroke="#FD78FF" stroke-width="6" stroke-linecap="round"/>
<rect x="1292" y="562" width="40" height="221" fill="white"/>
<defs>
<clipPath id="clip0_163_12">
<rect width="206.667" height="150.667" fill="white" transform="translate(1003 35)"/>
</clipPath>
</defs>
</svg>
