<svg width="26" height="27" viewBox="0 0 26 27" fill="none" xmlns="http://www.w3.org/2000/svg">
<path d="M16.3521 13.677C16.3521 15.1821 15.1372 16.4022 13.6386 16.4022C12.1399 16.4022 10.9251 15.1821 10.9251 13.677C10.9251 12.1719 12.1399 10.9519 13.6386 10.9519C15.1372 10.9519 16.3521 12.1719 16.3521 13.677Z" fill="url(#paint0_linear_1_9)"/>
<path d="M6.40501 22.7533C6.57446 23.003 6.33946 23.34 6.06211 23.2228C5.68097 23.0618 5.30545 22.8751 4.93782 22.6619C0.251888 19.9448 -1.38704 13.9853 1.27716 9.35091C3.94136 4.71651 9.89983 3.16221 14.5858 5.87928C14.9534 6.09243 15.3022 6.32559 15.6317 6.57648C15.8714 6.75906 15.6983 7.13193 15.3983 7.1094C11.732 6.83436 8.03503 8.66487 6.04978 12.1182C4.06452 15.5716 4.33468 19.702 6.40501 22.7533Z" fill="url(#paint1_linear_1_9)"/>
<path d="M25.3452 15.8389C25.4758 15.5666 25.8839 15.6025 25.9215 15.9023C25.9733 16.3143 26 16.7343 26 17.1607C26 22.5948 21.6805 27 16.3521 27C11.0236 27 6.7041 22.5948 6.7041 17.1607C6.7041 16.7344 6.73074 16.3144 6.78237 15.9024C6.81995 15.6025 7.228 15.5667 7.35861 15.8389C8.95458 19.1652 12.3816 21.4654 16.3521 21.4654C20.3225 21.4654 23.7492 19.1652 25.3452 15.8389Z" fill="url(#paint2_linear_1_9)"/>
<path d="M9.96178 2.56779C9.66173 2.5903 9.48861 2.21741 9.72833 2.03478C10.0578 1.7838 10.4065 1.55057 10.7742 1.33739C15.4601 -1.37967 21.4186 0.174639 24.0828 4.80903C26.747 9.44343 25.1081 15.403 20.4221 18.12C20.0545 18.3332 19.6791 18.52 19.298 18.6811C19.0206 18.7983 18.7857 18.4614 18.9551 18.2117C21.0254 15.1604 21.2954 11.0297 19.3102 7.57635C17.325 4.12302 13.6281 2.29273 9.96178 2.56779Z" fill="url(#paint3_linear_1_9)"/>
<defs>
<linearGradient id="paint0_linear_1_9" x1="13" y1="-3.01662e-06" x2="13" y2="27" gradientUnits="userSpaceOnUse">
<stop stop-color="#977DFF"/>
<stop offset="1" stop-color="#5D47ED"/>
</linearGradient>
<linearGradient id="paint1_linear_1_9" x1="13" y1="-2.79353e-07" x2="13" y2="27" gradientUnits="userSpaceOnUse">
<stop stop-color="#977DFF"/>
<stop offset="1" stop-color="#5D47ED"/>
</linearGradient>
<linearGradient id="paint2_linear_1_9" x1="13" y1="-1.741e-06" x2="13" y2="27" gradientUnits="userSpaceOnUse">
<stop stop-color="#977DFF"/>
<stop offset="1" stop-color="#5D47ED"/>
</linearGradient>
<linearGradient id="paint3_linear_1_9" x1="13" y1="4.1666e-07" x2="13" y2="27" gradientUnits="userSpaceOnUse">
<stop stop-color="#977DFF"/>
<stop offset="1" stop-color="#5D47ED"/>
</linearGradient>
</defs>
</svg>
