<svg width="740" height="740" viewBox="0 0 740 740" fill="none" xmlns="http://www.w3.org/2000/svg">
<g clip-path="url(#clip0_151_2)">
<path d="M465.405 374.851C465.405 416.101 430.827 449.541 388.175 449.541C345.522 449.541 310.945 416.101 310.945 374.851C310.945 333.601 345.522 300.162 388.175 300.162C430.827 300.162 465.405 333.601 465.405 374.851Z" fill="#1C0A3E"/>
<path d="M182.296 623.608C187.119 630.453 180.431 639.69 172.537 636.478C161.689 632.064 151.001 626.946 140.538 621.104C7.16911 546.636 -39.4773 383.301 36.3501 256.284C112.177 129.267 281.764 86.6678 415.133 161.136C425.596 166.978 435.523 173.368 444.901 180.244C451.724 185.248 446.799 195.468 438.259 194.85C333.909 187.312 228.689 237.481 172.186 332.129C115.683 426.776 123.372 539.982 182.296 623.608Z" fill="#1C0A3E"/>
<path d="M721.364 434.102C725.081 426.641 736.697 427.625 737.767 435.842C739.239 447.134 740 458.644 740 470.329C740 619.264 617.059 740 465.405 740C313.75 740 190.809 619.264 190.809 470.329C190.809 458.645 191.567 447.135 193.037 435.844C194.106 427.625 205.72 426.642 209.437 434.103C254.861 525.268 352.398 588.31 465.405 588.31C578.411 588.31 675.94 525.268 721.364 434.102Z" fill="#1C0A3E"/>
<path d="M283.527 70.3764C274.987 70.9934 270.06 60.7734 276.883 55.768C286.259 48.8893 296.186 42.497 306.65 36.6545C440.019 -37.8131 609.605 4.7864 685.433 131.803C761.26 258.82 714.614 422.155 581.245 496.622C570.783 502.465 560.096 507.584 549.249 511.999C541.356 515.213 534.669 505.978 539.491 499.134C598.416 415.507 606.1 302.295 549.597 207.648C493.095 113.001 387.875 62.8378 283.527 70.3764Z" fill="#1C0A3E"/>
</g>
<defs>
<clipPath id="clip0_151_2">
<rect width="740" height="740" fill="white"/>
</clipPath>
</defs>
</svg>
