<svg width="299" height="299" viewBox="0 0 299 299" fill="none" xmlns="http://www.w3.org/2000/svg">
<g clip-path="url(#clip0_180_111)">
<mask id="mask0_180_111" style="mask-type:luminance" maskUnits="userSpaceOnUse" x="0" y="0" width="299" height="299">
<path d="M299 0H0V299H299V0Z" fill="white"/>
</mask>
<g mask="url(#mask0_180_111)">
<path d="M188.047 151.46C188.047 168.127 174.076 181.638 156.842 181.638C139.608 181.638 125.637 168.127 125.637 151.46C125.637 134.792 139.608 121.281 156.842 121.281C174.076 121.281 188.047 134.792 188.047 151.46Z" fill="#1C0A3E"/>
<path d="M73.6574 251.971C75.6062 254.737 72.9039 258.469 69.7143 257.171C65.3311 255.388 61.0126 253.32 56.7849 250.959C2.8967 220.87 -15.951 154.874 14.6874 103.552C45.3256 52.2307 113.848 35.0183 167.736 65.1075C171.964 67.468 175.975 70.0499 179.764 72.8281C182.521 74.85 180.531 78.9795 177.08 78.7298C134.917 75.684 92.4027 95.955 69.5725 134.198C46.7422 172.44 49.849 218.182 73.6574 251.971Z" fill="#1C0A3E"/>
<path d="M291.471 175.4C292.972 172.386 297.666 172.783 298.098 176.103C298.693 180.666 299 185.317 299 190.038C299 250.216 249.326 299 188.049 299C126.772 299 77.0977 250.216 77.0977 190.038C77.0977 185.317 77.4039 180.666 77.9979 176.104C78.4298 172.783 83.1225 172.386 84.6244 175.401C102.978 212.236 142.388 237.709 188.049 237.709C233.71 237.709 273.117 212.236 291.471 175.4Z" fill="#1C0A3E"/>
<path d="M114.559 28.4359C111.109 28.6852 109.118 24.5557 111.875 22.5333C115.663 19.7539 119.674 17.1711 123.902 14.8104C177.79 -15.2785 246.312 1.93397 276.951 53.2555C307.589 104.577 288.742 170.573 234.853 200.662C230.626 203.023 226.308 205.091 221.925 206.875C218.736 208.174 216.034 204.442 217.982 201.677C241.791 167.887 244.896 122.144 222.066 83.901C199.236 45.6585 156.721 25.3899 114.559 28.4359Z" fill="#1C0A3E"/>
</g>
</g>
<defs>
<clipPath id="clip0_180_111">
<rect width="299" height="299" fill="white"/>
</clipPath>
</defs>
</svg>
