<svg width="200" height="200" viewBox="0 0 200 200" fill="none" xmlns="http://www.w3.org/2000/svg">
<g clip-path="url(#clip0_180_111)">
<mask id="mask0_180_111" style="mask-type:luminance" maskUnits="userSpaceOnUse" x="0" y="0" width="200" height="200">
<path d="M200 0H0V200H200V0Z" fill="white"/>
</mask>
<g mask="url(#mask0_180_111)">
<path d="M125.785 101.311C125.785 112.46 116.44 121.498 104.912 121.498C93.3842 121.498 84.0391 112.46 84.0391 101.311C84.0391 90.1626 93.3842 81.125 104.912 81.125C116.44 81.125 125.785 90.1626 125.785 101.311Z" fill="#1C0A3E"/>
<path d="M49.2692 168.543C50.5727 170.393 48.7651 172.889 46.6316 172.021C43.6997 170.828 40.8111 169.445 37.9832 167.866C1.93759 147.739 -10.6695 103.595 9.82435 69.266C30.3181 34.9371 76.1524 23.4238 112.198 43.5503C115.026 45.1292 117.709 46.8563 120.244 48.7146C122.088 50.0671 120.756 52.8292 118.448 52.6622C90.2457 50.6249 61.8078 64.1841 46.5368 89.7646C31.2657 115.345 33.3438 145.941 49.2692 168.543Z" fill="#1C0A3E"/>
<path d="M194.964 117.325C195.968 115.308 199.108 115.574 199.397 117.795C199.795 120.847 200 123.958 200 127.116C200 167.369 166.773 200 125.785 200C84.7976 200 51.5703 167.369 51.5703 127.116C51.5703 123.958 51.7752 120.847 52.1725 117.796C52.4614 115.574 55.6003 115.309 56.6049 117.325C68.8817 141.964 95.243 159.003 125.785 159.003C156.328 159.003 182.687 141.964 194.964 117.325Z" fill="#1C0A3E"/>
<path d="M76.6277 19.0207C74.3196 19.1874 72.988 16.4252 74.832 15.0724C77.3661 13.2133 80.0491 11.4857 82.8772 9.90662C118.923 -10.2198 164.757 1.29362 185.251 35.6224C205.745 69.9514 193.138 114.096 157.092 134.222C154.264 135.801 151.376 137.185 148.444 138.378C146.311 139.247 144.504 136.751 145.807 134.901C161.733 112.299 163.81 81.7014 148.539 56.1211C133.268 30.5408 104.83 16.9832 76.6277 19.0207Z" fill="#1C0A3E"/>
</g>
</g>
<defs>
<clipPath id="clip0_180_111">
<rect width="200" height="200" fill="white"/>
</clipPath>
</defs>
</svg>
