<svg width="359" height="90" viewBox="0 0 359 90" fill="none" xmlns="http://www.w3.org/2000/svg">
<path d="M54.0876 45.59C54.0876 50.6069 50.0691 54.6739 45.1122 54.6739C40.1552 54.6739 36.1368 50.6069 36.1368 45.59C36.1368 40.5731 40.1552 36.5062 45.1122 36.5062C50.0691 36.5062 54.0876 40.5731 54.0876 45.59Z" fill="url(#paint0_linear_6_25)"/>
<path d="M21.1858 75.8443C21.7463 76.6767 20.969 77.8001 20.0516 77.4095C18.7909 76.8727 17.5488 76.2502 16.3328 75.5397C0.833168 66.4828 -4.5879 46.6177 4.22447 31.1697C13.0368 15.7217 32.7456 10.5407 48.2452 19.5976C49.4612 20.3081 50.6149 21.0853 51.7047 21.9216C52.4977 22.5302 51.9253 23.7731 50.9328 23.698C38.8057 22.7812 26.5774 28.8829 20.0108 40.3941C13.4442 51.9052 14.3378 65.6735 21.1858 75.8443Z" fill="url(#paint1_linear_6_25)"/>
<path d="M83.8341 52.7962C84.2661 51.8888 85.616 52.0084 85.7404 53.0078C85.9115 54.3811 85.9999 55.781 85.9999 57.2022C85.9999 75.3159 71.7122 90 54.0875 90C36.4627 90 22.175 75.3159 22.175 57.2022C22.175 55.7812 22.2631 54.3813 22.4339 53.008C22.5582 52.0085 23.9079 51.8889 24.3399 52.7963C29.6189 63.884 40.9543 71.5512 54.0875 71.5512C67.2206 71.5512 78.5551 63.8839 83.8341 52.7962Z" fill="url(#paint2_linear_6_25)"/>
<path d="M32.9505 8.55929C31.958 8.63433 31.3854 7.39136 32.1783 6.78259C33.268 5.94599 34.4216 5.16855 35.6377 4.45798C51.1373 -4.59889 70.846 0.582129 79.6584 16.0301C88.4708 31.4781 83.0497 51.3432 67.5501 60.4C66.3342 61.1106 65.0923 61.7332 63.8317 62.2702C62.9144 62.661 62.1372 61.5379 62.6976 60.7055C69.5457 50.5346 70.4387 36.7656 63.8721 25.2545C57.3056 13.7434 45.0774 7.64243 32.9505 8.55929Z" fill="url(#paint3_linear_6_25)"/>
<path d="M129.072 71.576C123.792 71.576 119.352 70.496 115.752 68.336C112.152 66.128 109.44 63.08 107.616 59.192C105.792 55.304 104.88 50.792 104.88 45.656C104.88 40.52 105.816 35.984 107.688 32.048C109.56 28.112 112.296 25.04 115.896 22.832C119.496 20.576 123.888 19.448 129.072 19.448C132.912 19.448 136.296 20.096 139.224 21.392C142.152 22.688 144.528 24.536 146.352 26.936C148.224 29.288 149.424 32.192 149.952 35.648H141.24C140.568 33.2 139.2 31.28 137.136 29.888C135.072 28.496 132.384 27.8 129.072 27.8C125.472 27.8 122.568 28.64 120.36 30.32C118.152 32 116.544 34.16 115.536 36.8C114.576 39.44 114.096 42.272 114.096 45.296C114.096 48.416 114.6 51.344 115.608 54.08C116.664 56.816 118.32 59.024 120.576 60.704C122.832 62.384 125.736 63.224 129.288 63.224C131.496 63.224 133.416 62.912 135.048 62.288C136.728 61.664 138.12 60.776 139.224 59.624C140.376 58.424 141.168 57.032 141.6 55.448H150.744C150.168 58.856 148.872 61.76 146.856 64.16C144.888 66.56 142.368 68.408 139.296 69.704C136.272 70.952 132.864 71.576 129.072 71.576ZM174.788 71.504C170.9 71.504 167.54 70.712 164.708 69.128C161.924 67.544 159.764 65.288 158.228 62.36C156.74 59.432 155.996 56 155.996 52.064C155.996 48.08 156.764 44.648 158.3 41.768C159.836 38.84 161.996 36.56 164.78 34.928C167.564 33.296 170.9 32.48 174.788 32.48C178.628 32.48 181.94 33.296 184.724 34.928C187.508 36.56 189.644 38.864 191.132 41.84C192.62 44.768 193.364 48.224 193.364 52.208C193.364 56.096 192.62 59.504 191.132 62.432C189.692 65.312 187.58 67.544 184.796 69.128C182.012 70.712 178.676 71.504 174.788 71.504ZM174.716 63.512C177.116 63.512 179.036 62.984 180.476 61.928C181.964 60.872 183.044 59.48 183.716 57.752C184.388 56.024 184.724 54.152 184.724 52.136C184.724 50.12 184.388 48.224 183.716 46.448C183.044 44.672 181.964 43.256 180.476 42.2C179.036 41.096 177.116 40.544 174.716 40.544C172.316 40.544 170.372 41.096 168.884 42.2C167.396 43.256 166.316 44.672 165.644 46.448C164.972 48.176 164.636 50.072 164.636 52.136C164.636 54.152 164.972 56.048 165.644 57.824C166.364 59.552 167.444 60.944 168.884 62C170.372 63.008 172.316 63.512 174.716 63.512ZM200.396 71V20.096H209.18V71H200.396ZM217.693 71V33.056H225.685L226.189 38.024C227.149 36.584 228.229 35.48 229.429 34.712C230.677 33.896 231.997 33.32 233.389 32.984C234.829 32.648 236.269 32.48 237.709 32.48C238.237 32.48 238.717 32.48 239.149 32.48C239.629 32.48 240.013 32.504 240.301 32.552V40.904H237.997C235.501 40.904 233.389 41.384 231.661 42.344C229.933 43.304 228.637 44.672 227.773 46.448C226.909 48.224 226.477 50.408 226.477 53V71H217.693ZM262.116 71.504C258.228 71.504 254.868 70.712 252.036 69.128C249.252 67.544 247.092 65.288 245.556 62.36C244.068 59.432 243.324 56 243.324 52.064C243.324 48.08 244.092 44.648 245.628 41.768C247.164 38.84 249.324 36.56 252.108 34.928C254.892 33.296 258.228 32.48 262.116 32.48C265.956 32.48 269.268 33.296 272.052 34.928C274.836 36.56 276.972 38.864 278.46 41.84C279.948 44.768 280.692 48.224 280.692 52.208C280.692 56.096 279.948 59.504 278.46 62.432C277.02 65.312 274.908 67.544 272.124 69.128C269.34 70.712 266.004 71.504 262.116 71.504ZM262.044 63.512C264.444 63.512 266.364 62.984 267.804 61.928C269.292 60.872 270.372 59.48 271.044 57.752C271.716 56.024 272.052 54.152 272.052 52.136C272.052 50.12 271.716 48.224 271.044 46.448C270.372 44.672 269.292 43.256 267.804 42.2C266.364 41.096 264.444 40.544 262.044 40.544C259.644 40.544 257.7 41.096 256.212 42.2C254.724 43.256 253.644 44.672 252.972 46.448C252.3 48.176 251.964 50.072 251.964 52.136C251.964 54.152 252.3 56.048 252.972 57.824C253.692 59.552 254.772 60.944 256.212 62C257.7 63.008 259.644 63.512 262.044 63.512ZM302.269 71.504C300.445 71.504 298.621 71.312 296.797 70.928C295.021 70.544 293.341 69.92 291.757 69.056C290.173 68.144 288.853 66.92 287.797 65.384C286.741 63.848 286.045 61.928 285.709 59.624H294.565C294.949 60.68 295.549 61.544 296.365 62.216C297.229 62.84 298.213 63.32 299.317 63.656C300.469 63.944 301.597 64.088 302.701 64.088C303.373 64.088 304.093 64.04 304.861 63.944C305.677 63.848 306.421 63.656 307.093 63.368C307.813 63.08 308.389 62.672 308.821 62.144C309.253 61.568 309.469 60.824 309.469 59.912C309.469 59.048 309.229 58.376 308.749 57.896C308.269 57.368 307.621 56.96 306.805 56.672C305.989 56.336 305.005 56.072 303.853 55.88C301.789 55.448 299.581 54.992 297.229 54.512C294.877 53.984 292.837 53.168 291.109 52.064C290.389 51.632 289.765 51.128 289.237 50.552C288.709 49.976 288.253 49.352 287.869 48.68C287.533 47.96 287.269 47.192 287.077 46.376C286.933 45.56 286.861 44.672 286.861 43.712C286.861 41.696 287.269 39.992 288.085 38.6C288.949 37.16 290.077 36.008 291.469 35.144C292.909 34.232 294.541 33.56 296.365 33.128C298.189 32.696 300.061 32.48 301.981 32.48C304.573 32.48 306.925 32.888 309.037 33.704C311.149 34.52 312.901 35.768 314.293 37.448C315.733 39.128 316.597 41.264 316.885 43.856H308.533C308.293 42.656 307.549 41.696 306.301 40.976C305.101 40.256 303.565 39.896 301.693 39.896C301.021 39.896 300.325 39.968 299.605 40.112C298.885 40.208 298.189 40.4 297.517 40.688C296.893 40.928 296.365 41.312 295.933 41.84C295.549 42.368 295.357 43.016 295.357 43.784C295.357 44.504 295.525 45.128 295.861 45.656C296.245 46.184 296.797 46.64 297.517 47.024C298.285 47.36 299.173 47.648 300.181 47.888C301.813 48.224 303.517 48.56 305.293 48.896C307.069 49.232 308.605 49.568 309.901 49.904C311.437 50.336 312.829 50.96 314.077 51.776C315.325 52.544 316.285 53.576 316.957 54.872C317.677 56.12 318.037 57.728 318.037 59.696C318.037 62 317.557 63.92 316.597 65.456C315.685 66.992 314.461 68.192 312.925 69.056C311.389 69.92 309.685 70.544 307.813 70.928C305.941 71.312 304.093 71.504 302.269 71.504ZM341.49 71.504C337.554 71.504 334.194 70.688 331.41 69.056C328.674 67.424 326.586 65.168 325.146 62.288C323.754 59.36 323.058 55.976 323.058 52.136C323.058 48.296 323.778 44.912 325.218 41.984C326.706 39.008 328.818 36.68 331.554 35C334.338 33.32 337.674 32.48 341.562 32.48C344.442 32.48 346.962 33.008 349.122 34.064C351.282 35.072 353.082 36.464 354.522 38.24C356.01 40.016 357.114 42.032 357.834 44.288C358.554 46.544 358.89 48.92 358.842 51.416C358.794 51.992 358.746 52.568 358.698 53.144C358.65 53.672 358.578 54.248 358.482 54.872H331.842C331.986 56.552 332.418 58.088 333.138 59.48C333.906 60.872 334.962 61.976 336.306 62.792C337.698 63.608 339.426 64.016 341.49 64.016C342.69 64.016 343.842 63.872 344.946 63.584C346.05 63.248 347.01 62.768 347.826 62.144C348.69 61.52 349.266 60.728 349.554 59.768H358.338C357.714 62.504 356.562 64.736 354.882 66.464C353.202 68.192 351.186 69.464 348.834 70.28C346.53 71.096 344.082 71.504 341.49 71.504ZM331.986 48.32H350.274C350.274 46.736 349.914 45.296 349.194 44C348.474 42.704 347.442 41.696 346.098 40.976C344.802 40.208 343.218 39.824 341.346 39.824C339.33 39.824 337.65 40.232 336.306 41.048C334.962 41.864 333.93 42.92 333.21 44.216C332.49 45.512 332.082 46.88 331.986 48.32Z" fill="#FAFAFA"/>
<defs>
<linearGradient id="paint0_linear_6_25" x1="43" y1="-8.77785e-06" x2="43" y2="90" gradientUnits="userSpaceOnUse">
<stop stop-color="#977DFF"/>
<stop offset="1" stop-color="#5D47ED"/>
</linearGradient>
<linearGradient id="paint1_linear_6_25" x1="43" y1="-6.63495e-06" x2="43" y2="90" gradientUnits="userSpaceOnUse">
<stop stop-color="#977DFF"/>
<stop offset="1" stop-color="#5D47ED"/>
</linearGradient>
<linearGradient id="paint2_linear_6_25" x1="42.9999" y1="1.19986e-05" x2="42.9999" y2="90" gradientUnits="userSpaceOnUse">
<stop stop-color="#977DFF"/>
<stop offset="1" stop-color="#5D47ED"/>
</linearGradient>
<linearGradient id="paint3_linear_6_25" x1="43" y1="1.38887e-06" x2="43" y2="90" gradientUnits="userSpaceOnUse">
<stop stop-color="#977DFF"/>
<stop offset="1" stop-color="#5D47ED"/>
</linearGradient>
</defs>
</svg>
