<svg width="37" height="37" viewBox="0 0 37 37" fill="none" xmlns="http://www.w3.org/2000/svg">
<g clip-path="url(#clip0_240_8)">
<path d="M0 0V37H37V0H0ZM10.8302 6.16667H13.3477C15.227 6.16667 15.8761 6.21137 15.9192 6.34087C15.9485 6.44262 15.9624 8.45142 15.9624 10.8071L15.9501 15.0975L16.6839 14.447C17.6968 13.5513 18.5524 13.2337 20.1712 13.1766C21.2411 13.1473 21.6712 13.1905 22.422 13.451C24.0562 13.9999 25.2124 15.1268 25.8198 16.7903C26.0511 17.4393 26.0819 18.1207 26.1235 23.3963L26.1698 29.2917H21.0237V24.4801C21.0237 19.7395 21.0083 19.6809 20.6892 19.1028C20.2421 18.3366 19.7503 17.9897 18.9841 17.9034C17.669 17.76 16.7595 18.2071 16.2399 19.2755C15.9933 19.7688 15.964 20.2868 15.9501 24.4493C15.9347 26.993 15.9038 29.1205 15.9038 29.1776C15.8915 29.25 14.7476 29.2917 13.3601 29.2917H10.8317V17.7292L10.8302 6.16667Z" fill="white"/>
</g>
<defs>
<clipPath id="clip0_240_8">
<rect width="37" height="37" fill="white"/>
</clipPath>
</defs>
</svg>
