<svg width="140" height="140" viewBox="0 0 140 140" fill="none" xmlns="http://www.w3.org/2000/svg">
<path d="M119.022 98.9627C119.022 99.404 118.891 99.8354 118.646 100.202C118.401 100.569 118.052 100.855 117.645 101.024C117.237 101.193 116.788 101.237 116.356 101.151C115.923 101.065 115.525 100.852 115.213 100.54C114.901 100.228 114.689 99.8308 114.602 99.398C114.516 98.9652 114.561 98.5165 114.729 98.1088C114.898 97.7011 115.184 97.3526 115.551 97.1075C115.918 96.8623 116.35 96.7314 116.791 96.7314C117.382 96.7337 117.948 96.9696 118.366 97.3875C118.784 97.8055 119.02 98.3716 119.022 98.9627Z" fill="#6D28D9"/>
<path d="M110.097 98.9627C110.095 99.4009 109.963 99.8287 109.718 100.192C109.473 100.556 109.126 100.838 108.721 101.005C108.316 101.172 107.87 101.215 107.441 101.129C107.011 101.043 106.616 100.832 106.307 100.522C105.997 100.212 105.785 99.8173 105.699 99.3876C105.613 98.9579 105.656 98.5124 105.823 98.1071C105.99 97.7019 106.273 97.355 106.636 97.1102C107 96.8654 107.427 96.7336 107.866 96.7314C108.159 96.7309 108.449 96.7882 108.72 96.9001C108.991 97.012 109.237 97.1764 109.445 97.3837C109.652 97.591 109.816 97.8372 109.928 98.1082C110.04 98.3791 110.097 98.6695 110.097 98.9627Z" fill="#6D28D9"/>
<path d="M127.969 88.9879H121.209V37.6035C121.204 35.8646 120.511 34.1984 119.282 32.9689C118.052 31.7393 116.386 31.0462 114.647 31.041H25.3531C23.6142 31.0462 21.9481 31.7393 20.7185 32.9689C19.4889 34.1984 18.7958 35.8646 18.7906 37.6035V88.9879H12.0312C10.8709 88.9879 9.75813 89.4488 8.93766 90.2693C8.11719 91.0898 7.65625 92.2026 7.65625 93.3629V95.8348C7.66261 99.3138 9.04746 102.648 11.5075 105.109C13.9675 107.569 17.3022 108.953 20.7812 108.96H119.219C122.698 108.953 126.032 107.569 128.493 105.109C130.953 102.648 132.337 99.3138 132.344 95.8348V93.3629C132.344 92.2026 131.883 91.0898 131.062 90.2693C130.242 89.4488 129.129 88.9879 127.969 88.9879ZM23.1656 37.6035C23.1656 37.0234 23.3961 36.467 23.8063 36.0567C24.2166 35.6465 24.773 35.416 25.3531 35.416H114.647C115.227 35.416 115.783 35.6465 116.194 36.0567C116.604 36.467 116.834 37.0234 116.834 37.6035V88.9879H23.1656V37.6035ZM84.2844 93.3629L82.0094 97.891H57.9906L55.7156 93.3629H84.2844ZM127.969 95.8348C127.966 98.1545 127.043 100.378 125.403 102.019C123.762 103.659 121.539 104.582 119.219 104.585H20.7812C18.4615 104.582 16.2376 103.659 14.5973 102.019C12.9569 100.378 12.0341 98.1545 12.0312 95.8348V93.3629H50.8156L54.6656 101.063C54.8491 101.427 55.1306 101.733 55.4785 101.945C55.8263 102.158 56.2267 102.269 56.6344 102.266H83.3656C83.7733 102.269 84.1737 102.158 84.5215 101.945C84.8694 101.733 85.1509 101.427 85.3344 101.063L89.1844 93.3629H127.969V95.8348Z" fill="#6D28D9"/>
<path d="M94.5 57.794H87.85L77.2625 41.9346C77.1111 41.6785 76.9091 41.456 76.6688 41.2807C76.4284 41.1054 76.1549 40.9809 75.8648 40.9149C75.5748 40.8489 75.2743 40.8427 74.9817 40.8968C74.6892 40.9509 74.4108 41.0641 74.1635 41.2294C73.9162 41.3948 73.7053 41.6088 73.5435 41.8585C73.3818 42.1082 73.2727 42.3882 73.2228 42.6815C73.173 42.9748 73.1836 43.2751 73.2538 43.5642C73.324 43.8533 73.4524 44.125 73.6313 44.3628L82.5781 57.794H57.4219L66.3688 44.3628C66.5476 44.125 66.676 43.8533 66.7462 43.5642C66.8165 43.2751 66.827 42.9748 66.7772 42.6815C66.7273 42.3882 66.6182 42.1082 66.4565 41.8585C66.2947 41.6088 66.0838 41.3948 65.8365 41.2294C65.5892 41.0641 65.3108 40.9509 65.0183 40.8968C64.7257 40.8427 64.4252 40.8489 64.1352 40.9149C63.8451 40.9809 63.5716 41.1054 63.3312 41.2807C63.0909 41.456 62.8889 41.6785 62.7375 41.9346L52.15 57.794H45.5C44.9198 57.794 44.3634 58.0245 43.9532 58.4347C43.543 58.8449 43.3125 59.4013 43.3125 59.9815C43.3125 60.5617 43.543 61.1181 43.9532 61.5283C44.3634 61.9385 44.9198 62.169 45.5 62.169H47.2063L50.05 78.4003C50.2765 80.0375 51.0749 81.5417 52.304 82.6467C53.5332 83.7517 55.1136 84.3862 56.7656 84.4377H83.2344C84.8864 84.3862 86.4668 83.7517 87.696 82.6467C88.9251 81.5417 89.7235 80.0375 89.95 78.4003L92.7937 62.169H94.5C95.0802 62.169 95.6366 61.9385 96.0468 61.5283C96.457 61.1181 96.6875 60.5617 96.6875 59.9815C96.6875 59.4013 96.457 58.8449 96.0468 58.4347C95.6366 58.0245 95.0802 57.794 94.5 57.794ZM85.6406 77.6565C85.5856 78.2762 85.3144 78.8567 84.8745 79.2966C84.4346 79.7365 83.854 80.0077 83.2344 80.0627H56.7656C56.146 80.0077 55.5654 79.7365 55.1255 79.2966C54.6856 78.8567 54.4144 78.2762 54.3594 77.6565L51.6469 62.169H88.3531L85.6406 77.6565Z" fill="#6D28D9"/>
<path d="M70 77.7573C70.5802 77.7573 71.1366 77.5269 71.5468 77.1166C71.957 76.7064 72.1875 76.15 72.1875 75.5698V66.6602C72.1875 66.08 71.957 65.5236 71.5468 65.1134C71.1366 64.7031 70.5802 64.4727 70 64.4727C69.4198 64.4727 68.8634 64.7031 68.4532 65.1134C68.043 65.5236 67.8125 66.08 67.8125 66.6602V75.5698C67.8125 76.15 68.043 76.7064 68.4532 77.1166C68.8634 77.5269 69.4198 77.7573 70 77.7573Z" fill="#6D28D9"/>
<path d="M61.0879 77.7573C61.6681 77.7573 62.2244 77.5269 62.6347 77.1166C63.0449 76.7064 63.2754 76.15 63.2754 75.5698V66.6602C63.2754 66.08 63.0449 65.5236 62.6347 65.1134C62.2244 64.7031 61.6681 64.4727 61.0879 64.4727C60.5077 64.4727 59.9513 64.7031 59.5411 65.1134C59.1309 65.5236 58.9004 66.08 58.9004 66.6602V75.5698C58.9004 76.15 59.1309 76.7064 59.5411 77.1166C59.9513 77.5269 60.5077 77.7573 61.0879 77.7573Z" fill="#6D28D9"/>
<path d="M78.9121 77.7573C79.4923 77.7573 80.0487 77.5269 80.4589 77.1166C80.8691 76.7064 81.0996 76.15 81.0996 75.5698V66.6602C81.0996 66.08 80.8691 65.5236 80.4589 65.1134C80.0487 64.7031 79.4923 64.4727 78.9121 64.4727C78.3319 64.4727 77.7755 64.7031 77.3653 65.1134C76.9551 65.5236 76.7246 66.08 76.7246 66.6602V75.5698C76.7246 76.15 76.9551 76.7064 77.3653 77.1166C77.7755 77.5269 78.3319 77.7573 78.9121 77.7573Z" fill="#6D28D9"/>
</svg>
