<svg width="16" height="16" viewBox="0 0 16 16" fill="none" xmlns="http://www.w3.org/2000/svg">
<g clip-path="url(#clip0_183_120)">
<mask id="mask0_183_120" style="mask-type:luminance" maskUnits="userSpaceOnUse" x="0" y="0" width="16" height="16">
<path d="M15.5 0H0.5V16H15.5V0Z" fill="white"/>
</mask>
<g mask="url(#mask0_183_120)">
<path d="M1.75 4.78469V12.6667C1.75099 13.5504 2.08055 14.3977 2.66639 15.0225C3.25222 15.6474 4.0465 15.999 4.875 16H11.125C11.9535 15.999 12.7478 15.6474 13.3336 15.0225C13.9194 14.3977 14.249 13.5504 14.25 12.6667V4.78469C14.25 4.42808 14.1605 4.07797 13.991 3.77063C13.8214 3.46328 13.5779 3.20989 13.2856 3.03669L8.30375 0.0840275C8.21085 0.0289207 8.1063 0 8 0C7.8937 0 7.78915 0.0289207 7.69625 0.0840275L2.71438 3.03669C2.42213 3.20989 2.17861 3.46328 2.00905 3.77063C1.83949 4.07797 1.75005 4.42808 1.75 4.78469ZM8 3.66669C8.18542 3.66669 8.36668 3.72534 8.52085 3.83522C8.67502 3.94511 8.79518 4.10128 8.86614 4.28401C8.93709 4.46674 8.95566 4.6678 8.91949 4.86178C8.88331 5.05577 8.79402 5.23395 8.66291 5.3738C8.5318 5.51365 8.36475 5.60889 8.1829 5.64748C8.00104 5.68606 7.81254 5.66626 7.64123 5.59057C7.46993 5.51489 7.32351 5.38671 7.2205 5.22226C7.11748 5.05782 7.0625 4.86448 7.0625 4.66669C7.0625 4.40148 7.16127 4.14712 7.33709 3.95959C7.5129 3.77205 7.75136 3.66669 8 3.66669Z" fill="#6D28D9"/>
</g>
</g>
<defs>
<clipPath id="clip0_183_120">
<rect width="15" height="16" fill="white" transform="translate(0.5)"/>
</clipPath>
</defs>
</svg>
