<svg width="140" height="140" viewBox="0 0 140 140" fill="none" xmlns="http://www.w3.org/2000/svg">
<path d="M127.969 7.65625H12.0312C10.8709 7.65625 9.75813 8.11719 8.93766 8.93766C8.11719 9.75813 7.65625 10.8709 7.65625 12.0312V127.969C7.65625 129.129 8.11719 130.242 8.93766 131.062C9.75813 131.883 10.8709 132.344 12.0312 132.344H127.969C129.129 132.344 130.242 131.883 131.062 131.062C131.883 130.242 132.344 129.129 132.344 127.969V12.0312C132.344 10.8709 131.883 9.75813 131.062 8.93766C130.242 8.11719 129.129 7.65625 127.969 7.65625ZM127.969 12.0312V27.7091H12.0312V12.0312H127.969ZM12.0312 127.969V32.0841H127.969V127.969H12.0312Z" fill="#6D28D9"/>
<path d="M33.906 15.4128C33.0214 15.3968 32.1521 15.6444 31.4088 16.1241C30.6654 16.6039 30.0817 17.2941 29.732 18.1067C29.3823 18.9194 29.2824 19.8178 29.4451 20.6874C29.6078 21.557 30.0257 22.3586 30.6455 22.9899C31.2653 23.6212 32.0591 24.0537 32.9256 24.2323C33.7921 24.4108 34.6921 24.3275 35.5111 23.9927C36.33 23.658 37.0308 23.087 37.5241 22.3526C38.0174 21.6181 38.2809 20.7535 38.281 19.8688C38.2865 19.2889 38.1777 18.7136 37.9607 18.1758C37.7438 17.638 37.423 17.1482 37.0167 16.7343C36.6105 16.3205 36.1266 15.9908 35.5929 15.7641C35.0591 15.5373 34.4859 15.418 33.906 15.4128Z" fill="#6D28D9"/>
<path d="M20.781 15.4128C19.8964 15.3968 19.0271 15.6444 18.2838 16.1241C17.5404 16.6039 16.9567 17.2941 16.607 18.1067C16.2573 18.9194 16.1574 19.8178 16.3201 20.6874C16.4828 21.557 16.9007 22.3586 17.5205 22.9899C18.1403 23.6212 18.9341 24.0537 19.8006 24.2323C20.6671 24.4108 21.5671 24.3275 22.3861 23.9927C23.205 23.658 23.9058 23.087 24.3991 22.3526C24.8924 21.6181 25.1559 20.7535 25.156 19.8688C25.1615 19.2889 25.0527 18.7136 24.8357 18.1758C24.6188 17.638 24.298 17.1482 23.8918 16.7343C23.4855 16.3205 23.0016 15.9908 22.4679 15.7641C21.9341 15.5373 21.3609 15.418 20.781 15.4128Z" fill="#6D28D9"/>
<path d="M47.031 15.4128C46.1464 15.3968 45.2771 15.6444 44.5338 16.1241C43.7904 16.6039 43.2067 17.2941 42.857 18.1067C42.5073 18.9194 42.4074 19.8178 42.5701 20.6874C42.7328 21.557 43.1507 22.3586 43.7705 22.9899C44.3903 23.6212 45.1841 24.0537 46.0506 24.2323C46.9171 24.4108 47.8171 24.3275 48.6361 23.9927C49.455 23.658 50.1558 23.087 50.6491 22.3526C51.1424 21.6181 51.4059 20.7535 51.406 19.8688C51.4115 19.2889 51.3027 18.7136 51.0857 18.1758C50.8688 17.638 50.548 17.1482 50.1417 16.7343C49.7355 16.3205 49.2516 15.9908 48.7179 15.7641C48.1841 15.5373 47.6109 15.418 47.031 15.4128Z" fill="#6D28D9"/>
<path d="M94.4365 59.281C92.3718 56.9539 89.8258 55.1035 86.975 53.8582C85.0376 53.0598 82.9745 52.6096 80.8806 52.5282C78.6589 52.1814 76.387 52.6591 74.4931 53.8713C73.8713 54.3722 73.3162 54.9508 72.8415 55.5928C72.6095 55.9066 72.3504 56.1994 72.0672 56.4678C71.8035 56.7465 71.4862 56.9689 71.1344 57.1217C70.7825 57.2745 70.4034 57.3545 70.0198 57.3569C69.6362 57.3594 69.2561 57.2842 68.9023 57.1359C68.5485 56.9876 68.2284 56.7693 67.9612 56.4941C67.6669 56.2162 67.3982 55.9124 67.1584 55.5863C66.6921 54.9542 66.1474 54.3838 65.5375 53.8888C63.6418 52.6644 61.3629 52.1779 59.1325 52.5216C57.0374 52.6014 54.9729 53.0501 53.0337 53.8472C50.1791 55.0933 47.6299 56.946 45.5634 59.2766L39.9415 65.4891C39.5775 65.8913 39.376 66.4144 39.376 66.9569C39.376 67.4994 39.5775 68.0225 39.9415 68.4247L47.9478 77.2841C48.1528 77.5106 48.4029 77.6916 48.682 77.8156C48.9612 77.9395 49.2633 78.0036 49.5687 78.0038C49.8737 78.0036 50.1752 77.9397 50.4539 77.8161C50.7327 77.6926 50.9826 77.5121 51.1875 77.2863L54.6875 73.4472V98.4503C54.6875 99.0305 54.9179 99.5869 55.3282 99.9971C55.7384 100.407 56.2948 100.638 56.875 100.638H83.125C83.7051 100.638 84.2615 100.407 84.6718 99.9971C85.082 99.5869 85.3125 99.0305 85.3125 98.4503V73.4472L88.8125 77.3016C89.0174 77.5274 89.2672 77.7079 89.546 77.8314C89.8248 77.955 90.1263 78.0189 90.4312 78.0191C90.7367 78.0189 91.0387 77.9548 91.3179 77.8309C91.5971 77.7069 91.8472 77.5259 92.0522 77.2994L100.058 68.44C100.422 68.0378 100.624 67.5147 100.624 66.9722C100.624 66.4297 100.422 65.9066 100.058 65.5044L94.4365 59.281ZM90.4269 72.5657L84.7393 66.3028C84.4424 65.9762 84.0537 65.747 83.6241 65.6454C83.1945 65.5438 82.7443 65.5745 82.3325 65.7336C81.9207 65.8926 81.5667 66.1725 81.3169 66.5364C81.0672 66.9004 80.9334 67.3314 80.9331 67.7728V96.2541H59.0625V67.7816C59.0622 67.3402 58.9284 66.9092 58.6786 66.5452C58.4289 66.1812 58.0748 65.9013 57.6631 65.7423C57.2513 65.5833 56.801 65.5525 56.3715 65.6541C55.9419 65.7558 55.5531 65.9849 55.2562 66.3116L49.5687 72.5744L44.509 66.9722L48.8031 62.2297C50.439 60.3716 52.4606 58.8927 54.7268 57.8963C56.1978 57.2961 57.7635 56.9613 59.3512 56.9075C60.5364 56.6915 61.7594 56.849 62.8512 57.3582C63.1819 57.6478 63.4791 57.9736 63.7372 58.3294C64.1477 58.871 64.6076 59.3734 65.1109 59.83C66.4467 61.064 68.1997 61.7471 70.0183 61.7423C71.8368 61.7374 73.5862 61.0449 74.9153 59.8038C75.4068 59.3541 75.8564 58.8606 76.2584 58.3294C76.5242 57.9638 76.831 57.6299 77.1728 57.3341C78.2633 56.8415 79.4769 56.6891 80.6553 56.8966C82.2419 56.9519 83.8061 57.2882 85.2753 57.8897C87.5346 58.8864 89.55 60.3629 91.1815 62.2166L95.4756 66.9613L90.4269 72.5657Z" fill="#6D28D9"/>
<path d="M121.187 19.8688L122.966 18.0597C123.362 17.6436 123.579 17.0882 123.569 16.5135C123.559 15.9388 123.324 15.3911 122.913 14.9887C122.503 14.5864 121.951 14.3617 121.376 14.3633C120.801 14.3649 120.25 14.5926 119.842 14.9972L118.123 16.7472L116.403 14.9972C115.995 14.5926 115.444 14.3649 114.869 14.3633C114.295 14.3617 113.742 14.5864 113.332 14.9887C112.921 15.3911 112.686 15.9388 112.676 16.5135C112.666 17.0882 112.883 17.6436 113.28 18.0597L115.058 19.8688L113.28 21.68C112.883 22.0962 112.666 22.6516 112.676 23.2263C112.686 23.8009 112.921 24.3486 113.332 24.751C113.742 25.1534 114.295 25.3781 114.869 25.3765C115.444 25.3749 115.995 25.1472 116.403 24.7425L118.123 22.9925L119.842 24.7425C120.25 25.1472 120.801 25.3749 121.376 25.3765C121.951 25.3781 122.503 25.1534 122.913 24.751C123.324 24.3486 123.559 23.8009 123.569 23.2263C123.579 22.6516 123.362 22.0962 122.966 21.68L121.187 19.8688Z" fill="#6D28D9"/>
<path d="M97.3438 22.0566H106.094C106.674 22.0566 107.23 21.8262 107.641 21.4159C108.051 21.0057 108.281 20.4493 108.281 19.8691C108.281 19.289 108.051 18.7326 107.641 18.3223C107.23 17.9121 106.674 17.6816 106.094 17.6816H97.3438C96.7636 17.6816 96.2072 17.9121 95.797 18.3223C95.3867 18.7326 95.1562 19.289 95.1562 19.8691C95.1562 20.4493 95.3867 21.0057 95.797 21.4159C96.2072 21.8262 96.7636 22.0566 97.3438 22.0566Z" fill="#6D28D9"/>
<path d="M23.0102 74.1566L34.2321 64.5601C34.673 64.183 34.9461 63.6462 34.9912 63.0677C35.0363 62.4893 34.8498 61.9166 34.4727 61.4757C34.0956 61.0348 33.5588 60.7617 32.9804 60.7166C32.4019 60.6715 31.8293 60.858 31.3883 61.2351L18.2633 72.457C18.0263 72.6594 17.8352 72.9103 17.703 73.1926C17.5708 73.475 17.5005 73.7824 17.4967 74.0941C17.493 74.4059 17.556 74.7148 17.6814 75.0003C17.8068 75.2857 17.9918 75.541 18.224 75.7491L31.349 87.496C31.7821 87.8767 32.3481 88.0709 32.9237 88.0364C33.4993 88.0019 34.038 87.7415 34.4227 87.3119C34.8073 86.8823 35.0068 86.3182 34.9776 85.7423C34.9485 85.1664 34.6931 84.6252 34.2671 84.2366L23.0102 74.1566Z" fill="#6D28D9"/>
<path d="M108.607 61.2282C108.166 60.8511 107.594 60.6646 107.015 60.7098C106.437 60.7549 105.9 61.0279 105.523 61.4689C105.146 61.9098 104.959 62.4825 105.004 63.0609C105.049 63.6393 105.322 64.1761 105.763 64.5532L116.985 74.1498L105.724 84.2298C105.507 84.4206 105.33 84.6524 105.203 84.912C105.076 85.1716 105.002 85.4538 104.984 85.7422C104.967 86.0307 105.007 86.3197 105.102 86.5926C105.197 86.8655 105.345 87.1169 105.538 87.3321C105.731 87.5474 105.964 87.7224 106.225 87.847C106.486 87.9715 106.769 88.0431 107.057 88.0577C107.346 88.0723 107.635 88.0296 107.907 87.932C108.179 87.8344 108.429 87.6839 108.642 87.4892L121.767 75.7423C121.999 75.5342 122.184 75.2789 122.31 74.9934C122.435 74.708 122.498 74.399 122.494 74.0873C122.491 73.7755 122.42 73.4682 122.288 73.1858C122.156 72.9034 121.965 72.6526 121.728 72.4501L108.607 61.2282Z" fill="#6D28D9"/>
</svg>
