<svg width="140" height="140" viewBox="0 0 140 140" fill="none" xmlns="http://www.w3.org/2000/svg">
<g clip-path="url(#clip0_5_141)">
<path d="M38.2812 19.8625C38.2683 20.7249 38.0008 21.5642 37.5122 22.275C37.0237 22.9858 36.336 23.5363 35.5355 23.8574C34.735 24.1785 33.8575 24.2558 33.0132 24.0797C32.1689 23.9035 31.3955 23.4817 30.7902 22.8674C30.1849 22.253 29.7747 21.4734 29.6111 20.6265C29.4476 19.7797 29.538 18.9034 29.8709 18.1078C30.2039 17.3122 30.7646 16.6328 31.4826 16.1549C32.2006 15.677 33.0438 15.422 33.9062 15.4219C35.0742 15.434 36.1899 15.9078 37.0096 16.7399C37.8294 17.5719 38.2865 18.6945 38.2812 19.8625Z" fill="#6D28D9"/>
<path d="M25.1562 19.8625C25.1433 20.7249 24.8758 21.5642 24.3872 22.275C23.8987 22.9858 23.211 23.5363 22.4105 23.8574C21.61 24.1785 20.7325 24.2558 19.8882 24.0797C19.0439 23.9035 18.2705 23.4817 17.6652 22.8674C17.0599 22.253 16.6497 21.4734 16.4861 20.6265C16.3226 19.7797 16.413 18.9034 16.7459 18.1078C17.0789 17.3122 17.6396 16.6328 18.3576 16.1549C19.0756 15.677 19.9188 15.422 20.7812 15.4219C21.9492 15.434 23.0649 15.9078 23.8846 16.7399C24.7044 17.5719 25.1615 18.6945 25.1562 19.8625Z" fill="#6D28D9"/>
<path d="M51.4062 19.8625C51.3933 20.7249 51.1258 21.5642 50.6372 22.275C50.1487 22.9858 49.461 23.5363 48.6605 23.8574C47.86 24.1785 46.9825 24.2558 46.1382 24.0797C45.2939 23.9035 44.5205 23.4817 43.9152 22.8674C43.3099 22.253 42.8997 21.4734 42.7361 20.6265C42.5726 19.7797 42.663 18.9034 42.9959 18.1078C43.3289 17.3122 43.8896 16.6328 44.6076 16.1549C45.3256 15.677 46.1688 15.422 47.0312 15.4219C48.1992 15.434 49.3149 15.9078 50.1346 16.7399C50.9543 17.5719 51.4115 18.6945 51.4062 19.8625Z" fill="#6D28D9"/>
<path d="M127.969 7.65625H12.0312C10.872 7.65971 9.7612 8.12176 8.94148 8.94148C8.12176 9.7612 7.65971 10.872 7.65625 12.0312V127.969C7.65971 129.128 8.12176 130.239 8.94148 131.059C9.7612 131.878 10.872 132.34 12.0312 132.344H127.969C129.128 132.34 130.239 131.878 131.059 131.059C131.878 130.239 132.34 129.128 132.344 127.969V12.0312C132.34 10.872 131.878 9.7612 131.059 8.94148C130.239 8.12176 129.128 7.65971 127.969 7.65625ZM127.969 127.969H12.0312V32.0906H127.969V127.969ZM127.969 27.7156H12.0312V12.0312H127.969V27.7156Z" fill="#6D28D9"/>
<path d="M122.959 21.6778C123.364 22.0905 123.589 22.6466 123.585 23.2245C123.58 23.8024 123.348 24.3552 122.937 24.7622C122.739 24.9663 122.5 25.1278 122.237 25.2368C121.974 25.3459 121.691 25.4002 121.406 25.3965C121.116 25.3983 120.829 25.3411 120.562 25.2282C120.295 25.1154 120.054 24.9494 119.853 24.7403L118.125 22.9903L116.397 24.7403C116.196 24.9494 115.955 25.1154 115.688 25.2282C115.421 25.3411 115.134 25.3983 114.844 25.3965C114.559 25.4002 114.276 25.3459 114.013 25.2368C113.75 25.1278 113.511 24.9663 113.312 24.7622C112.902 24.3552 112.669 23.8024 112.665 23.2245C112.661 22.6466 112.886 22.0905 113.291 21.6778L115.062 19.8622L113.291 18.0684C112.884 17.6525 112.658 17.0926 112.662 16.5108C112.666 15.9289 112.9 15.3723 113.312 14.9622C113.725 14.5576 114.281 14.3329 114.859 14.337C115.437 14.3411 115.99 14.5737 116.397 14.984L118.125 16.7559L119.853 14.984C120.26 14.5737 120.813 14.3411 121.391 14.337C121.969 14.3329 122.525 14.5576 122.937 14.9622C123.35 15.3723 123.584 15.9289 123.588 16.5108C123.592 17.0926 123.366 17.6525 122.959 18.0684L121.187 19.8622L122.959 21.6778Z" fill="#6D28D9"/>
<path d="M108.281 19.8623C108.281 20.4425 108.051 20.9989 107.641 21.4091C107.23 21.8193 106.674 22.0498 106.094 22.0498H97.3438C96.7636 22.0498 96.2072 21.8193 95.797 21.4091C95.3867 20.9989 95.1562 20.4425 95.1562 19.8623C95.1562 19.2821 95.3867 18.7257 95.797 18.3155C96.2072 17.9053 96.7636 17.6748 97.3438 17.6748H106.094C106.674 17.6748 107.23 17.9053 107.641 18.3155C108.051 18.7257 108.281 19.2821 108.281 19.8623Z" fill="#6D28D9"/>
<path d="M44.0779 93.8217L52.0186 89.2498H90.6717C91.8243 89.2437 92.9532 88.9226 93.9364 88.3211C94.9196 87.7196 95.7196 86.8607 96.2498 85.8373L108.653 62.4092C109.23 61.3049 109.49 60.0625 109.405 58.8195C109.32 57.5764 108.894 56.381 108.172 55.3654L106.597 53.1342C106.015 52.317 105.247 51.6491 104.358 51.1853C103.468 50.7214 102.481 50.4747 101.478 50.4654H101.456L49.8967 50.5967L49.5686 47.2279C49.4204 45.5647 48.6606 44.0156 47.4363 42.8802C46.212 41.7447 44.6101 41.1037 42.9404 41.0811H30.5811C30.0009 41.0811 29.4445 41.3115 29.0343 41.7218C28.624 42.132 28.3936 42.6884 28.3936 43.2686C28.3936 43.8487 28.624 44.4051 29.0343 44.8153C29.4445 45.2256 30.0009 45.4561 30.5811 45.4561H42.9404C43.5281 45.4819 44.0854 45.724 44.5054 46.1358C44.9253 46.5477 45.1782 47.1003 45.2154 47.6873L49.1092 85.881L41.7373 90.1467C40.8263 90.788 40.0839 91.6403 39.5735 92.6306C39.0631 93.621 38.7998 94.7201 38.8061 95.8342V96.4467C38.7896 98.1568 39.4173 99.8105 40.5643 101.079C41.7112 102.348 43.2936 103.138 44.9967 103.294C43.8794 104.971 43.2856 106.943 43.2904 108.959C43.2426 110.255 43.4565 111.546 43.9192 112.757C44.3819 113.968 45.084 115.073 45.9835 116.006C46.883 116.94 47.9614 117.682 49.1543 118.189C50.3472 118.696 51.6302 118.957 52.9264 118.957C54.2226 118.957 55.5055 118.696 56.6984 118.189C57.8913 117.682 58.9698 116.94 59.8693 116.006C60.7688 115.073 61.4708 113.968 61.9336 112.757C62.3963 111.546 62.6101 110.255 62.5623 108.959C62.561 106.961 61.9755 105.007 60.8779 103.337H80.7186C79.611 105.002 79.0246 106.959 79.0342 108.959C78.9864 110.255 79.2002 111.546 79.6629 112.757C80.1256 113.968 80.8277 115.073 81.7272 116.006C82.6267 116.94 83.7052 117.682 84.8981 118.189C86.091 118.696 87.3739 118.957 88.6701 118.957C89.9663 118.957 91.2492 118.696 92.4422 118.189C93.6351 117.682 94.7135 116.94 95.613 116.006C96.5125 115.073 97.2146 113.968 97.6773 112.757C98.14 111.546 98.3539 110.255 98.3061 108.959C98.3048 106.961 97.7193 105.007 96.6217 103.337H100.581C101.161 103.337 101.718 103.107 102.128 102.697C102.538 102.286 102.769 101.73 102.769 101.15C102.769 100.57 102.538 100.013 102.128 99.603C101.718 99.1928 101.161 98.9623 100.581 98.9623H45.4779C44.8409 98.93 44.2424 98.6477 43.8124 98.1766C43.3823 97.7056 43.1555 97.084 43.1811 96.4467V95.8342C43.1774 95.454 43.2556 95.0775 43.4103 94.7303C43.5651 94.383 43.7928 94.0731 44.0779 93.8217ZM92.3998 83.7811C92.2367 84.1019 91.9901 84.3728 91.686 84.5653C91.3819 84.7578 91.0315 84.8647 90.6717 84.8748H53.3967L51.1436 62.6936L103.556 62.6717L92.3998 83.7811ZM101.456 54.8404H101.478C101.785 54.8436 102.086 54.9208 102.356 55.0655C102.627 55.2103 102.858 55.4182 103.031 55.6717L104.628 57.9029C104.694 58.0123 104.759 58.1436 104.825 58.2748L50.6842 58.3186L50.3561 54.9717L101.456 54.8404ZM88.6592 103.337C89.7904 103.258 90.9193 103.521 91.8989 104.092C92.8785 104.663 93.6635 105.516 94.1515 106.54C94.6395 107.563 94.808 108.71 94.635 109.831C94.462 110.951 93.9555 111.994 93.1815 112.823C92.4076 113.652 91.402 114.228 90.2957 114.477C89.1895 114.726 88.0338 114.637 86.9793 114.22C85.9247 113.803 85.0202 113.078 84.3834 112.14C83.7466 111.201 83.4071 110.093 83.4092 108.959C83.3643 107.519 83.8912 106.119 84.8748 105.066C85.8585 104.012 87.219 103.391 88.6592 103.337ZM52.9154 103.337C54.0466 103.258 55.1755 103.521 56.1552 104.092C57.1348 104.663 57.9197 105.516 58.4077 106.54C58.8957 107.563 59.0642 108.71 58.8912 109.831C58.7182 110.951 58.2117 111.994 57.4378 112.823C56.6638 113.652 55.6582 114.228 54.552 114.477C53.4457 114.726 52.2901 114.637 51.2355 114.22C50.181 113.803 49.2764 113.078 48.6396 112.14C48.0029 111.201 47.6634 110.093 47.6654 108.959C47.6205 107.519 48.1474 106.119 49.1311 105.066C50.1147 104.012 51.4752 103.391 52.9154 103.337Z" fill="#6D28D9"/>
</g>
<defs>
<clipPath id="clip0_5_141">
<rect width="140" height="140" fill="white"/>
</clipPath>
</defs>
</svg>
