<svg width="120" height="126" viewBox="0 0 120 126" fill="none" xmlns="http://www.w3.org/2000/svg">
<path d="M32.7004 60.8125H17.6504C17.0702 60.8125 16.5138 61.043 16.1036 61.4532C15.6934 61.8634 15.4629 62.4198 15.4629 63V78.05C15.4629 78.6302 15.6934 79.1866 16.1036 79.5968C16.5138 80.007 17.0702 80.2375 17.6504 80.2375H32.7004C33.2806 80.2375 33.8369 80.007 34.2472 79.5968C34.6574 79.1866 34.8879 78.6302 34.8879 78.05V63C34.8879 62.4198 34.6574 61.8634 34.2472 61.4532C33.8369 61.043 33.2806 60.8125 32.7004 60.8125ZM30.5129 75.8625H19.8379V65.1875H30.5129V75.8625Z" fill="#6D28D9"/>
<path d="M106.091 104.191C111.253 95.7469 116.875 84.7 116.875 78.4C116.872 72.607 114.572 67.0517 110.48 62.9513C106.388 58.851 100.837 56.5401 95.0439 56.525V37.2094C95.0439 37.1875 95.0221 37.1656 95.0221 37.1219C95.0241 36.8659 94.9719 36.6125 94.8689 36.3781V36.3562L86.5783 16.1437C86.2128 15.3488 85.6221 14.6785 84.8795 14.2158C84.1369 13.7531 83.2749 13.5184 82.4002 13.5406H82.1596V2.84375C82.1596 2.26359 81.9291 1.70719 81.5189 1.29695C81.1086 0.886718 80.5522 0.65625 79.9721 0.65625H49.8939C49.3138 0.65625 48.7574 0.886718 48.3471 1.29695C47.9369 1.70719 47.7064 2.26359 47.7064 2.84375V13.5406H17.3658C16.4917 13.5212 15.6309 13.7571 14.8888 14.2194C14.1467 14.6818 13.5555 15.3505 13.1877 16.1437L4.89707 36.3562V36.3781C4.8044 36.6156 4.75263 36.8671 4.74394 37.1219C4.74394 37.1656 4.72207 37.1875 4.72207 37.2094V103.775C3.5822 103.79 2.49404 104.253 1.69206 105.063C0.890082 105.873 0.438481 106.966 0.43457 108.106V118.869C0.437458 120.017 0.894712 121.117 1.70635 121.928C2.518 122.74 3.61799 123.197 4.76582 123.2H80.2127C85.0063 124.653 89.9914 125.375 95.0002 125.344C106.922 125.344 119.566 121.45 119.566 114.209C119.566 109.703 114.491 105.984 106.091 104.191ZM95.0002 60.9C99.6395 60.9064 104.087 62.7522 107.368 66.0327C110.648 69.3132 112.494 73.7607 112.5 78.4C112.5 84.0438 106.2 96.0969 100.71 104.628C100.704 104.628 100.698 104.63 100.694 104.635C100.69 104.639 100.688 104.644 100.688 104.65C99.0033 107.253 97.4064 109.55 96.0939 111.213C95.9626 111.376 95.7961 111.508 95.6068 111.599C95.4175 111.69 95.2102 111.737 95.0002 111.737C94.7902 111.737 94.5829 111.69 94.3936 111.599C94.2043 111.508 94.0378 111.376 93.9064 111.213C92.5939 109.55 90.9971 107.253 89.3127 104.65V104.628C83.8221 96.0969 77.5002 84.0438 77.5002 78.4C77.5066 73.7607 79.3523 69.3132 82.6329 66.0327C85.9134 62.7522 90.3609 60.9064 95.0002 60.9ZM73.2783 75.8625H69.2533V65.1875H77.6096C75.2299 68.2903 73.7334 71.9788 73.2783 75.8625ZM90.6689 45.8938C90.6632 47.5724 89.9922 49.1804 88.8032 50.3653C87.6141 51.5503 86.0039 52.2156 84.3252 52.2156H84.1939C82.5153 52.2156 80.905 51.5503 79.7159 50.3653C78.5269 49.1804 77.856 47.5724 77.8502 45.8938V39.3969H90.6689V45.8938ZM82.4002 17.9156C82.4877 17.9156 82.5533 17.9375 82.5533 17.8938L89.5971 35.0219H77.3033L72.1627 17.9156H82.4002ZM60.6564 39.3969H73.4752V45.8938C73.4694 47.5686 72.8015 49.1733 71.6172 50.3576C70.4329 51.542 68.8282 52.2099 67.1533 52.2156H67.0002C65.3215 52.2156 63.7113 51.5503 62.5222 50.3653C61.3331 49.1804 60.6622 47.5724 60.6564 45.8938V39.3969ZM60.4596 35.0219L58.7533 17.9156H67.5908L72.7314 35.0219H60.4596ZM52.0814 5.03125H77.7846V13.5406H52.0814V5.03125ZM45.4096 17.9156H54.3564L56.0627 35.0219H43.7033L45.4096 17.9156ZM43.4846 39.3969H56.2814V45.8938C56.2809 47.5702 55.6146 49.1779 54.4292 50.3633C53.2437 51.5488 51.6361 52.215 49.9596 52.2156H49.8064C48.1316 52.2099 46.5269 51.542 45.3426 50.3576C44.1582 49.1733 43.4903 47.5686 43.4846 45.8938V39.3969ZM41.0127 17.9156L39.3064 35.0219H27.0346L32.1752 17.9156H41.0127ZM39.1096 39.3969V45.8938C39.1038 47.5724 38.4329 49.1804 37.2438 50.3653C36.0548 51.5503 34.4445 52.2156 32.7658 52.2156H32.6127C30.9378 52.2099 29.3332 51.542 28.1488 50.3576C26.9645 49.1733 26.2966 47.5686 26.2908 45.8938V39.3969H39.1096ZM17.1252 17.9813C17.196 17.9336 17.2806 17.9105 17.3658 17.9156H27.6033L22.4846 35.0219H10.1689L17.1252 17.9813ZM9.09707 39.3969H21.9158V45.8938C21.9101 47.5686 21.2422 49.1733 20.0578 50.3576C18.8735 51.542 17.2688 52.2099 15.5939 52.2156H15.4408C13.7621 52.2156 12.1519 51.5503 10.9628 50.3653C9.77377 49.1804 9.10286 47.5724 9.09707 45.8938V39.3969ZM9.09707 54.4688C10.9299 55.837 13.1536 56.5808 15.4408 56.5906H15.5939C17.2476 56.5845 18.8772 56.194 20.354 55.4499C21.8308 54.7058 23.1144 53.6285 24.1033 52.3031C25.0923 53.6285 26.3758 54.7058 27.8526 55.4499C29.3294 56.194 30.959 56.5845 32.6127 56.5906H32.7658C34.4225 56.5839 36.055 56.1932 37.5352 55.4493C39.0154 54.7054 40.3031 53.6285 41.2971 52.3031C42.286 53.6285 43.5696 54.7058 45.0464 55.4499C46.5232 56.194 48.1528 56.5845 49.8064 56.5906H49.9596C51.6137 56.5869 53.2441 56.1974 54.7213 55.4531C56.1984 54.7088 57.4817 53.6303 58.4689 52.3031C59.4629 53.6285 60.7506 54.7054 62.2308 55.4493C63.711 56.1932 65.3436 56.5839 67.0002 56.5906H67.1533C68.807 56.5845 70.4366 56.194 71.9134 55.4499C73.3902 54.7058 74.6738 53.6285 75.6627 52.3031C76.6567 53.6285 77.9443 54.7054 79.4246 55.4493C80.9048 56.1932 82.5373 56.5839 84.1939 56.5906H84.3252C86.613 56.5843 88.8378 55.8402 90.6689 54.4688V56.9406C87.5431 57.5927 84.5954 58.9135 82.0283 60.8125H67.0658C66.4857 60.8125 65.9293 61.043 65.519 61.4532C65.1088 61.8634 64.8783 62.4198 64.8783 63V78.05C64.8783 78.6302 65.1088 79.1866 65.519 79.5968C65.9293 80.007 66.4857 80.2375 67.0658 80.2375H73.2564C74.1314 86.5813 79.0314 96.1625 83.6471 103.775H60.6564V84.4156C60.6564 81.5583 59.5214 78.8181 57.501 76.7977C55.4806 74.7772 52.7403 73.6422 49.883 73.6422C47.0257 73.6422 44.2854 74.7772 42.265 76.7977C40.2446 78.8181 39.1096 81.5583 39.1096 84.4156V103.775H9.09707V54.4688ZM56.2814 84.4156V103.775H43.4846V84.4156C43.4846 82.7187 44.1587 81.0912 45.3586 79.8912C46.5586 78.6913 48.186 78.0172 49.883 78.0172C51.58 78.0172 53.2074 78.6913 54.4074 79.8912C55.6073 81.0912 56.2814 82.7187 56.2814 84.4156ZM70.4346 114.209C70.4782 115.951 71.2003 117.608 72.4471 118.825L4.80957 118.869L4.76582 108.15H74.0658C73.0185 108.794 72.1417 109.681 71.5096 110.736C70.8775 111.791 70.5088 112.982 70.4346 114.209ZM95.0002 120.969C82.6846 120.969 74.8096 116.966 74.8096 114.209C74.8096 112.459 78.4627 109.572 86.4252 108.172C88.0002 110.578 89.4439 112.591 90.4939 113.925C91.0307 114.607 91.7151 115.158 92.4957 115.537C93.2762 115.915 94.1326 116.112 95.0002 116.112C95.8678 116.112 96.7242 115.915 97.5047 115.537C98.2853 115.158 98.9697 114.607 99.5064 113.925C100.556 112.591 102 110.578 103.575 108.172C111.538 109.572 115.191 112.459 115.191 114.209C115.191 116.966 107.338 120.969 95.0002 120.969Z" fill="#6D28D9"/>
<path d="M95.0001 67.2656C92.7979 67.2656 90.6452 67.9186 88.8142 69.1421C86.9831 70.3656 85.556 72.1045 84.7133 74.1391C83.8706 76.1736 83.65 78.4123 84.0797 80.5722C84.5093 82.7321 85.5697 84.716 87.1269 86.2732C88.6841 87.8304 90.668 88.8908 92.8279 89.3204C94.9877 89.75 97.2265 89.5295 99.261 88.6868C101.296 87.8441 103.035 86.417 104.258 84.5859C105.481 82.7549 106.134 80.6022 106.134 78.4C106.134 75.4472 104.961 72.6154 102.873 70.5274C100.785 68.4395 97.9529 67.2662 95.0001 67.2656ZM95.0001 85.1594C93.6632 85.1594 92.3564 84.7629 91.2448 84.0202C90.1332 83.2775 89.2669 82.2218 88.7553 80.9867C88.2437 79.7516 88.1098 78.3925 88.3706 77.0813C88.6314 75.7701 89.2752 74.5657 90.2205 73.6204C91.1658 72.6751 92.3702 72.0313 93.6814 71.7705C94.9926 71.5097 96.3517 71.6435 97.5868 72.1551C98.8219 72.6667 99.8776 73.5331 100.62 74.6447C101.363 75.7563 101.759 77.0631 101.759 78.4C101.754 80.1909 101.04 81.9068 99.7733 83.1732C98.507 84.4396 96.791 85.1536 95.0001 85.1594Z" fill="#6D28D9"/>
</svg>
