<svg width="57" height="57" viewBox="0 0 57 57" fill="none" xmlns="http://www.w3.org/2000/svg">
<g clip-path="url(#clip0_166_32)">
<path d="M7.00377 0.357592C6.85184 0.528727 5.3896 3.37385 3.73745 6.6896C0.49012 13.2355 0.50911 13.1927 1.36367 14.7544C2.02833 15.9737 3.09178 16.5941 4.76292 16.701C6.05425 16.7866 6.33911 16.7224 7.19367 16.2304C7.74438 15.9309 8.23813 15.5886 8.2951 15.4603C8.39005 15.2891 8.52298 15.3319 8.75087 15.5459C9.98523 16.808 12.4919 17.1289 14.0871 16.209C14.5999 15.9309 15.0556 15.5886 15.1316 15.4817C15.1886 15.3533 15.6633 15.5672 16.214 15.9523C17.1066 16.5727 17.3344 16.6368 18.7397 16.6368C20.145 16.6368 20.3919 16.5727 21.2464 15.9737L22.177 15.3105L22.7087 15.7812C24.1329 17.0647 26.9435 17.0647 28.2918 15.7812L28.8425 15.2678L29.4882 15.7812C30.7795 16.8722 32.7545 17.0647 34.3307 16.2304C34.8624 15.9523 35.3562 15.61 35.4321 15.5031C35.5081 15.3533 35.9259 15.5245 36.5336 15.9523C37.4261 16.5727 37.635 16.6368 39.0593 16.6368C40.4645 16.6368 40.6924 16.5727 41.585 15.9523C42.1926 15.5245 42.6104 15.3533 42.6864 15.5031C42.7624 15.61 43.2561 15.9523 43.7878 16.2304C45.421 17.0861 47.4339 16.8722 48.7823 15.6742L49.257 15.2464L49.8077 15.7598C50.6243 16.5513 51.5738 16.808 53.112 16.701C54.2894 16.6154 54.6122 16.4871 55.3529 15.8881C56.2834 15.1394 56.8151 14.1554 56.8151 13.1714C56.8151 12.551 50.9661 0.571511 50.4914 0.22924C50.3774 0.143673 40.5975 0.0581055 28.7666 0.0581055C10.365 0.0581055 7.23165 0.100889 7.00377 0.357592ZM52.2954 7.58806C55.3149 13.6848 55.2769 13.5778 54.0995 14.4121C53.6248 14.7544 53.245 14.8185 52.3904 14.7544C51.0421 14.6688 50.3584 14.134 50.0166 12.936C49.7887 12.1659 49.6748 12.0376 49.238 12.0376C48.6303 12.0376 48.2695 12.3798 48.2695 13.0002C48.2695 13.9415 46.9972 14.8185 45.6489 14.8185C44.3955 14.8185 43.5409 14.1768 43.1801 12.936C42.9523 12.1659 42.8383 12.0376 42.4015 12.0376C41.7938 12.0376 41.433 12.3798 41.433 13.0002C41.414 14.0912 40.1227 14.9041 38.6415 14.7757C37.3691 14.6474 36.6665 14.0912 36.3816 12.9788C36.2107 12.2943 36.0778 12.1231 35.66 12.0804C35.0143 11.9948 34.5966 12.3585 34.5966 13.0002C34.5966 13.5564 33.685 14.5404 32.9634 14.733C32.2038 14.9469 30.7985 14.6902 30.2478 14.2409C29.9819 14.0056 29.6591 13.4281 29.5452 12.9788C29.3742 12.2943 29.2413 12.1231 28.8235 12.0804C28.1969 11.9948 27.7601 12.3585 27.7601 12.9788C27.7411 14.0912 26.4687 14.9041 24.9685 14.7757C23.6962 14.6474 22.9935 14.0912 22.7087 12.9788C22.5378 12.2515 22.4238 12.1445 21.9111 12.0804C21.3984 12.0162 21.2654 12.1018 21.0945 12.6152C20.6198 13.9415 20.4678 14.1554 19.7652 14.4976C18.8537 14.9683 17.3155 14.8399 16.6128 14.2409C16.328 14.027 16.0241 13.4494 15.8912 12.9788C15.7013 12.2301 15.6253 12.1445 15.0556 12.1445C14.391 12.1445 14.258 12.2943 13.9732 13.4067C13.7263 14.3479 12.7198 14.8613 11.3715 14.7544C10.0232 14.6688 9.35855 14.1554 9.05471 12.9788C8.86481 12.2087 8.78885 12.1445 8.20015 12.1445C7.59246 12.1445 7.5165 12.2301 7.25064 13.0858C6.85184 14.3693 6.03526 14.8827 4.53504 14.7544C3.66149 14.6902 3.33865 14.5618 2.88289 14.0698C2.56005 13.7275 2.31318 13.3639 2.31318 13.2569C2.31318 13.1286 3.35764 11.0536 4.62999 8.63626C5.90233 6.21898 7.19367 3.71613 7.5165 3.09576L8.08621 1.98338H28.8045H49.5229L52.2954 7.58806Z" fill="#6D28D9"/>
<path d="M8.61793 4.37926C8.2951 4.74292 8.33308 5.32051 8.69389 5.70556C8.95976 6.00505 11.0487 6.04783 28.8045 6.04783H48.6303L48.9152 5.57721C49.295 4.97824 49.295 4.87128 48.9152 4.46483C48.6493 4.16534 46.5604 4.12256 28.7286 4.12256C13.5174 4.12256 8.78884 4.18674 8.61793 4.37926Z" fill="#6D28D9"/>
<path d="M6.79491 8.31542C6.43409 8.70047 6.39611 9.27805 6.71894 9.64171C7.04178 10.0054 50.5674 10.0054 50.8902 9.64171C51.213 9.27805 51.175 8.70047 50.8142 8.31542C50.5484 8.01593 48.2885 7.97314 28.8046 7.97314C9.3206 7.97314 7.06077 8.01593 6.79491 8.31542Z" fill="#6D28D9"/>
<path d="M7.21266 18.3913L6.49103 18.7335V24.274V29.8146L7.34559 29.0017L8.18116 28.1888L8.20015 23.0975C8.20015 20.3165 8.14318 18.0276 8.06722 18.049C7.97226 18.0704 7.59246 18.2201 7.21266 18.3913Z" fill="#6D28D9"/>
<path d="M49.3709 31.2045L49.314 44.4461L35.8309 44.5103L22.3478 44.5745L21.7022 45.4729L21.0755 46.3714L35.3561 46.4356C50.6623 46.4784 50.3774 46.4997 50.8712 45.4087C51.0611 45.0023 51.118 41.9005 51.118 31.7822V18.7116L50.6053 18.4977C50.3014 18.3907 49.9216 18.2196 49.7507 18.134C49.4279 17.9843 49.4089 18.733 49.3709 31.2045Z" fill="#6D28D9"/>
<path d="M23.3164 18.9259C23.0695 19.3323 23.0125 20.188 23.0125 24.1669C23.0125 28.5736 23.1075 29.4293 23.5063 28.702C23.5632 28.5736 23.924 28.3383 24.2659 28.1672L24.9115 27.8677V24.2311V20.5944H26.1459H27.3803V24.2311V27.8677L27.912 28.2314C28.1968 28.4239 28.6146 28.7875 28.8615 29.0229L29.2793 29.4293V24.5306C29.2793 21.0223 29.2033 19.4821 29.0324 19.097C28.8045 18.5622 28.7476 18.5622 26.2029 18.498C23.6962 18.4552 23.6012 18.4552 23.3164 18.9259Z" fill="#6D28D9"/>
<path d="M15.7963 23.5248C15.3405 23.7387 15.2266 24.0596 15.2266 25.2361C15.2266 26.049 15.3025 26.3699 15.4924 26.3699C15.6254 26.3699 16.0242 26.4341 16.347 26.4982C16.8787 26.6266 16.9357 26.5838 16.9357 26.0704C16.9357 25.5142 16.9547 25.5142 18.265 25.5142H19.5943V26.7763C19.5943 27.9315 19.6323 28.0598 20.221 28.5519C21.3604 29.5145 21.3034 29.6215 21.3034 26.7549C21.3034 25.3003 21.2085 23.974 21.1135 23.8029C20.9806 23.5462 20.4299 23.482 18.5119 23.4392C17.1826 23.4178 15.9482 23.4606 15.7963 23.5248Z" fill="#6D28D9"/>
<path d="M31.6531 23.5252C31.4442 23.5894 31.2163 23.7392 31.1403 23.8889C31.0644 24.0173 30.9884 26.1136 30.9884 28.5736V33.0019L31.6151 33.6436C32.6975 34.756 32.6975 34.7345 32.6975 29.8999V25.5147H34.0268H35.3562V29.0443C35.3562 30.9909 35.4131 32.574 35.4701 32.574C35.5271 32.574 35.9069 32.253 36.3057 31.868L37.0653 31.1835V27.6539C37.0653 25.7072 36.9703 23.9745 36.8754 23.8033C36.7424 23.5466 36.2107 23.4824 34.3687 23.4396C33.0773 23.4182 31.862 23.4611 31.6531 23.5252Z" fill="#6D28D9"/>
<path d="M43.7499 24.5729C43.1042 25.0649 43.2751 25.7494 44.1486 26.2415C44.7563 26.5623 44.8323 26.6907 44.6234 26.9046C44.3575 27.1827 35.1283 35.4828 34.5396 35.9748C34.3307 36.1459 33.704 36.2529 32.9824 36.2529H31.786L29.963 34.5843C28.2918 33.0441 28.1399 32.8516 28.1399 32.1456C28.1399 30.4343 26.7726 29.2791 25.3863 29.7925C24.5507 30.1134 23.7721 31.1402 23.7721 31.9531C23.7721 32.2954 23.6962 32.5735 23.5822 32.5735C23.4873 32.5735 23.5443 33.0013 23.7152 33.4933C23.962 34.2634 24.114 34.4346 24.5128 34.456C24.7786 34.4773 25.5003 34.5201 26.0889 34.5629C27.1334 34.6057 27.2284 34.6699 28.9945 36.2957C30.3617 37.5792 30.7795 38.0712 30.7036 38.3707C30.6466 38.5632 30.7226 39.0766 30.8555 39.4831C31.862 42.1784 35.1283 41.3655 35.1853 38.3707C35.1853 37.9 36.0208 37.0658 40.4456 33.1083C43.3321 30.5198 45.7628 28.3593 45.8388 28.3379C45.9147 28.2951 45.9907 28.5946 45.9907 28.9796C45.9907 29.8139 46.2756 30.2204 46.8453 30.2204C47.5669 30.2204 47.6998 29.8139 47.6998 27.6105C47.6998 25.236 47.8327 25.45 45.8957 24.8082C45.383 24.6371 44.7753 24.4231 44.5664 24.359C44.3385 24.2948 43.9967 24.3804 43.7499 24.5729ZM26.4308 32.1456C26.4308 32.4237 26.2978 32.5735 26.07 32.5735C25.6522 32.5735 25.4053 32.2526 25.5762 31.9317C25.8041 31.5253 26.4308 31.6964 26.4308 32.1456ZM33.3242 38.4348C33.4572 38.7985 32.9824 39.2905 32.6975 39.098C32.6026 39.0338 32.5076 38.7771 32.5076 38.5418C32.5076 38.0498 33.1723 37.9642 33.3242 38.4348Z" fill="#6D28D9"/>
<path d="M11.9412 28.317C9.16866 29.0443 6.71893 31.7183 5.73143 35.0554C4.91486 37.7936 5.46557 41.3233 7.07974 43.7405C7.47853 44.3609 7.82036 44.9385 7.82036 45.0027C7.82036 45.0882 7.59248 45.4519 7.32661 45.8156C6.88984 46.3931 6.73792 46.4787 6.20619 46.3504C5.57951 46.222 5.54153 46.2648 3.2817 49.4522C2.02834 51.2277 0.926909 52.9391 0.869938 53.2172C0.471143 54.9713 2.33218 56.6613 3.73746 55.8484C4.4401 55.4205 8.57997 49.495 8.57997 48.896C8.57997 48.6393 8.50401 48.3612 8.39007 48.297C8.08622 48.0831 8.18117 47.698 8.73189 46.9493L9.24463 46.2434L10.5739 46.8638C13.0617 48.0617 15.6633 47.912 18.0941 46.4573C20.088 45.2594 21.9111 42.564 22.4238 40.0397C22.7087 38.7134 22.6707 36.5101 22.3669 35.2266C21.5693 31.868 19.0246 29.1085 15.9862 28.317C14.9607 28.0603 12.9477 28.0603 11.9412 28.317ZM15.2265 32.574C15.2265 34.0286 15.3025 35.141 15.3975 35.141C15.5114 35.141 15.8912 34.9485 16.252 34.6918L16.9357 34.2425V32.4242V30.6273L17.5244 31.0124C18.303 31.5258 19.5563 32.9376 19.9171 33.7077C20.24 34.4351 20.4299 34.2425 18.0371 35.8041C16.5559 36.7668 16.309 36.8523 15.7583 36.6812C14.315 36.2534 12.9477 37.4085 12.9477 39.0985C12.9477 41.3874 15.2835 42.3715 16.7648 40.7029C17.1635 40.2751 17.3155 39.89 17.3155 39.3552C17.3155 38.6493 17.3914 38.5423 18.7967 37.6438C21.1325 36.0822 20.9806 36.0608 20.8856 38.1573C20.8287 39.5263 20.6767 40.2323 20.2779 41.1735C19.5943 42.7779 18.3219 44.2326 16.9736 44.9385C16.0241 45.4519 15.6633 45.5161 13.9922 45.5161C11.9982 45.5161 11.4855 45.3449 9.85231 44.1684C8.27612 42.9918 7.06075 40.2537 7.06075 37.815C7.06075 34.6918 8.57997 32.0392 11.1436 30.6273C12.0932 30.1139 12.5109 30.0069 13.7643 30.0069H15.2265V32.574ZM15.5684 39.0129C15.6443 39.4194 15.2076 39.6761 14.8467 39.4194C14.5049 39.1841 14.7708 38.5209 15.1696 38.6065C15.3595 38.6493 15.5304 38.8204 15.5684 39.0129ZM6.33912 49.1313C6.39609 49.5378 3.14876 53.9445 2.82593 53.9659C2.63603 53.9659 2.5031 53.8803 2.54108 53.7734C2.57906 53.6664 3.35766 52.5112 4.26919 51.1849C5.76941 49.0671 6.28215 48.5537 6.33912 49.1313Z" fill="#6D28D9"/>
</g>
<defs>
<clipPath id="clip0_166_32">
<rect width="57" height="57" fill="white"/>
</clipPath>
</defs>
</svg>
