<svg width="57" height="57" viewBox="0 0 57 57" fill="none" xmlns="http://www.w3.org/2000/svg">
<path d="M7.00377 0.357696C6.85184 0.528831 5.3896 3.37395 3.73745 6.6897C0.49012 13.2356 0.50911 13.1928 1.36367 14.7545C2.02833 15.9738 3.09178 16.5942 4.76292 16.7011C6.05425 16.7867 6.33911 16.7225 7.19367 16.2305C7.74438 15.931 8.23813 15.5887 8.2951 15.4604C8.39005 15.2892 8.52298 15.332 8.75087 15.546C9.98523 16.8081 12.4919 17.129 14.0871 16.2091C14.5999 15.931 15.0556 15.5887 15.1316 15.4818C15.1886 15.3534 15.6633 15.5673 16.214 15.9524C17.1066 16.5728 17.3344 16.6369 18.7397 16.6369C20.145 16.6369 20.3919 16.5728 21.2464 15.9738L22.177 15.3106L22.7087 15.7813C24.1329 17.0648 26.9435 17.0648 28.2918 15.7813L28.8425 15.2679L29.4882 15.7813C30.7795 16.8723 32.7545 17.0648 34.3307 16.2305C34.8624 15.9524 35.3562 15.6101 35.4321 15.5032C35.5081 15.3534 35.9259 15.5246 36.5336 15.9524C37.4261 16.5728 37.635 16.6369 39.0593 16.6369C40.4645 16.6369 40.6924 16.5728 41.585 15.9524C42.1926 15.5246 42.6104 15.3534 42.6864 15.5032C42.7624 15.6101 43.2561 15.9524 43.7878 16.2305C45.421 17.0862 47.4339 16.8723 48.7823 15.6743L49.257 15.2465L49.8077 15.7599C50.6243 16.5514 51.5738 16.8081 53.112 16.7011C54.2894 16.6155 54.6122 16.4872 55.3529 15.8882C56.2834 15.1395 56.8151 14.1555 56.8151 13.1715C56.8151 12.5511 50.9661 0.571615 50.4914 0.229344C50.3774 0.143777 40.5975 0.0582091 28.7666 0.0582091C10.365 0.0582091 7.23165 0.100993 7.00377 0.357696ZM52.2954 7.58816C55.3149 13.6849 55.2769 13.5779 54.0995 14.4122C53.6248 14.7545 53.245 14.8186 52.3904 14.7545C51.0421 14.6689 50.3584 14.1341 50.0166 12.9361C49.7887 12.166 49.6748 12.0377 49.238 12.0377C48.6303 12.0377 48.2695 12.3799 48.2695 13.0003C48.2695 13.9416 46.9972 14.8186 45.6489 14.8186C44.3955 14.8186 43.5409 14.1769 43.1801 12.9361C42.9523 12.166 42.8383 12.0377 42.4015 12.0377C41.7938 12.0377 41.433 12.3799 41.433 13.0003C41.414 14.0913 40.1227 14.9042 38.6415 14.7758C37.3691 14.6475 36.6665 14.0913 36.3816 12.9789C36.2107 12.2944 36.0778 12.1232 35.66 12.0805C35.0143 11.9949 34.5966 12.3586 34.5966 13.0003C34.5966 13.5565 33.685 14.5405 32.9634 14.7331C32.2038 14.947 30.7985 14.6903 30.2478 14.241C29.9819 14.0057 29.6591 13.4282 29.5452 12.9789C29.3742 12.2944 29.2413 12.1232 28.8235 12.0805C28.1969 11.9949 27.7601 12.3586 27.7601 12.9789C27.7411 14.0913 26.4687 14.9042 24.9685 14.7758C23.6962 14.6475 22.9935 14.0913 22.7087 12.9789C22.5378 12.2516 22.4238 12.1446 21.9111 12.0805C21.3984 12.0163 21.2654 12.1019 21.0945 12.6153C20.6198 13.9416 20.4678 14.1555 19.7652 14.4977C18.8537 14.9684 17.3155 14.84 16.6128 14.241C16.328 14.0271 16.0241 13.4495 15.8912 12.9789C15.7013 12.2302 15.6253 12.1446 15.0556 12.1446C14.391 12.1446 14.258 12.2944 13.9732 13.4068C13.7263 14.348 12.7198 14.8614 11.3715 14.7545C10.0232 14.6689 9.35855 14.1555 9.05471 12.9789C8.86481 12.2088 8.78885 12.1446 8.20015 12.1446C7.59246 12.1446 7.5165 12.2302 7.25064 13.0859C6.85184 14.3694 6.03526 14.8828 4.53504 14.7545C3.66149 14.6903 3.33865 14.5619 2.88289 14.0699C2.56005 13.7276 2.31318 13.364 2.31318 13.257C2.31318 13.1287 3.35764 11.0537 4.62999 8.63636C5.90233 6.21908 7.19367 3.71623 7.5165 3.09586L8.08621 1.98348H28.8045H49.5229L52.2954 7.58816Z" fill="#6D28D9"/>
<path d="M8.61793 4.37928C8.2951 4.74294 8.33308 5.32053 8.69389 5.70558C8.95976 6.00507 11.0487 6.04785 28.8045 6.04785H48.6303L48.9152 5.57723C49.295 4.97826 49.295 4.8713 48.9152 4.46485C48.6493 4.16536 46.5604 4.12258 28.7286 4.12258C13.5174 4.12258 8.78884 4.18676 8.61793 4.37928Z" fill="#6D28D9"/>
<path d="M6.79491 8.31551C6.43409 8.70056 6.39611 9.27814 6.71894 9.6418C7.04178 10.0055 50.5674 10.0055 50.8902 9.6418C51.213 9.27814 51.175 8.70056 50.8142 8.31551C50.5484 8.01602 48.2885 7.97323 28.8046 7.97323C9.3206 7.97323 7.06077 8.01602 6.79491 8.31551Z" fill="#6D28D9"/>
<path d="M7.21266 18.3912L6.49103 18.7334V24.2739V29.8145L7.34559 29.0016L8.18116 28.1887L8.20015 23.0974C8.20015 20.3164 8.14318 18.0275 8.06722 18.0489C7.97226 18.0703 7.59246 18.22 7.21266 18.3912Z" fill="#6D28D9"/>
<path d="M49.3709 31.2045L49.314 44.4461L35.8309 44.5103L22.3478 44.5744L21.7022 45.4729L21.0755 46.3714L35.3561 46.4355C50.6623 46.4783 50.3774 46.4997 50.8712 45.4087C51.0611 45.0023 51.118 41.9004 51.118 31.7821V18.7116L50.6053 18.4977C50.3014 18.3907 49.9216 18.2196 49.7507 18.134C49.4279 17.9843 49.4089 18.733 49.3709 31.2045Z" fill="#6D28D9"/>
<path d="M23.3164 18.9258C23.0695 19.3322 23.0125 20.1879 23.0125 24.1668C23.0125 28.5735 23.1075 29.4292 23.5063 28.7019C23.5632 28.5735 23.924 28.3382 24.2659 28.1671L24.9115 27.8676V24.231V20.5943H26.1459H27.3803V24.231V27.8676L27.912 28.2313C28.1968 28.4238 28.6146 28.7874 28.8615 29.0228L29.2793 29.4292V24.5305C29.2793 21.0222 29.2033 19.482 29.0324 19.0969C28.8045 18.5621 28.7476 18.5621 26.2029 18.4979C23.6962 18.4551 23.6012 18.4551 23.3164 18.9258Z" fill="#6D28D9"/>
<path d="M15.7963 23.525C15.3405 23.7389 15.2266 24.0598 15.2266 25.2363C15.2266 26.0492 15.3025 26.3701 15.4924 26.3701C15.6254 26.3701 16.0242 26.4343 16.347 26.4984C16.8787 26.6268 16.9357 26.584 16.9357 26.0706C16.9357 25.5144 16.9547 25.5144 18.265 25.5144H19.5943V26.7765C19.5943 27.9317 19.6323 28.06 20.221 28.5521C21.3604 29.5147 21.3034 29.6217 21.3034 26.7551C21.3034 25.3005 21.2085 23.9742 21.1135 23.8031C20.9806 23.5464 20.4299 23.4822 18.5119 23.4394C17.1826 23.418 15.9482 23.4608 15.7963 23.525Z" fill="#6D28D9"/>
<path d="M31.6531 23.5252C31.4442 23.5894 31.2163 23.7392 31.1403 23.8889C31.0644 24.0173 30.9884 26.1137 30.9884 28.5737V33.0019L31.6151 33.6436C32.6975 34.756 32.6975 34.7346 32.6975 29.9V25.5147H34.0268H35.3562V29.0444C35.3562 30.991 35.4131 32.574 35.4701 32.574C35.5271 32.574 35.9069 32.2531 36.3057 31.8681L37.0653 31.1836V27.6539C37.0653 25.7072 36.9703 23.9745 36.8754 23.8033C36.7424 23.5466 36.2107 23.4825 34.3687 23.4397C33.0773 23.4183 31.862 23.4611 31.6531 23.5252Z" fill="#6D28D9"/>
<path d="M43.7499 24.573C43.1042 25.065 43.2751 25.7495 44.1486 26.2416C44.7563 26.5624 44.8323 26.6908 44.6234 26.9047C44.3575 27.1828 35.1283 35.4829 34.5396 35.9749C34.3307 36.146 33.704 36.253 32.9824 36.253H31.786L29.963 34.5844C28.2918 33.0442 28.1399 32.8517 28.1399 32.1457C28.1399 30.4344 26.7726 29.2792 25.3863 29.7926C24.5507 30.1135 23.7721 31.1403 23.7721 31.9532C23.7721 32.2955 23.6962 32.5736 23.5822 32.5736C23.4873 32.5736 23.5443 33.0014 23.7152 33.4934C23.962 34.2635 24.114 34.4347 24.5128 34.4561C24.7786 34.4774 25.5003 34.5202 26.0889 34.563C27.1334 34.6058 27.2284 34.67 28.9945 36.2958C30.3617 37.5793 30.7795 38.0713 30.7036 38.3708C30.6466 38.5633 30.7226 39.0767 30.8555 39.4832C31.862 42.1785 35.1283 41.3656 35.1853 38.3708C35.1853 37.9001 36.0208 37.0659 40.4456 33.1084C43.3321 30.5199 45.7628 28.3594 45.8388 28.338C45.9147 28.2952 45.9907 28.5947 45.9907 28.9797C45.9907 29.814 46.2756 30.2205 46.8453 30.2205C47.5669 30.2205 47.6998 29.814 47.6998 27.6106C47.6998 25.2361 47.8327 25.4501 45.8957 24.8083C45.383 24.6372 44.7753 24.4232 44.5664 24.3591C44.3385 24.2949 43.9967 24.3805 43.7499 24.573ZM26.4308 32.1457C26.4308 32.4238 26.2978 32.5736 26.07 32.5736C25.6522 32.5736 25.4053 32.2527 25.5762 31.9318C25.8041 31.5254 26.4308 31.6965 26.4308 32.1457ZM33.3242 38.4349C33.4572 38.7986 32.9824 39.2906 32.6975 39.0981C32.6026 39.0339 32.5076 38.7772 32.5076 38.5419C32.5076 38.0499 33.1723 37.9643 33.3242 38.4349Z" fill="#6D28D9"/>
<path d="M11.9412 28.3168C9.16866 29.0441 6.71893 31.7181 5.73143 35.0552C4.91486 37.7934 5.46557 41.3231 7.07974 43.7403C7.47853 44.3607 7.82036 44.9383 7.82036 45.0025C7.82036 45.088 7.59248 45.4517 7.32661 45.8154C6.88984 46.3929 6.73792 46.4785 6.20619 46.3502C5.57951 46.2218 5.54153 46.2646 3.2817 49.452C2.02834 51.2275 0.926909 52.9389 0.869938 53.217C0.471143 54.9711 2.33218 56.6611 3.73746 55.8482C4.4401 55.4203 8.57997 49.4948 8.57997 48.8958C8.57997 48.6391 8.50401 48.361 8.39007 48.2968C8.08622 48.0829 8.18117 47.6978 8.73189 46.9491L9.24463 46.2432L10.5739 46.8636C13.0617 48.0615 15.6633 47.9118 18.0941 46.4571C20.088 45.2592 21.9111 42.5638 22.4238 40.0395C22.7087 38.7132 22.6707 36.5099 22.3669 35.2264C21.5693 31.8678 19.0246 29.1083 15.9862 28.3168C14.9607 28.0601 12.9477 28.0601 11.9412 28.3168ZM15.2265 32.5738C15.2265 34.0284 15.3025 35.1408 15.3975 35.1408C15.5114 35.1408 15.8912 34.9483 16.252 34.6916L16.9357 34.2423V32.424V30.6271L17.5244 31.0122C18.303 31.5256 19.5563 32.9374 19.9171 33.7075C20.24 34.4349 20.4299 34.2423 18.0371 35.8039C16.5559 36.7666 16.309 36.8521 15.7583 36.681C14.315 36.2532 12.9477 37.4083 12.9477 39.0983C12.9477 41.3872 15.2835 42.3713 16.7648 40.7027C17.1635 40.2749 17.3155 39.8898 17.3155 39.355C17.3155 38.6491 17.3914 38.5421 18.7967 37.6436C21.1325 36.082 20.9806 36.0606 20.8856 38.1571C20.8287 39.5261 20.6767 40.2321 20.2779 41.1733C19.5943 42.7777 18.3219 44.2324 16.9736 44.9383C16.0241 45.4517 15.6633 45.5159 13.9922 45.5159C11.9982 45.5159 11.4855 45.3447 9.85231 44.1682C8.27612 42.9916 7.06075 40.2535 7.06075 37.8148C7.06075 34.6916 8.57997 32.039 11.1436 30.6271C12.0932 30.1137 12.5109 30.0067 13.7643 30.0067H15.2265V32.5738ZM15.5684 39.0127C15.6443 39.4192 15.2076 39.6759 14.8467 39.4192C14.5049 39.1839 14.7708 38.5207 15.1696 38.6063C15.3595 38.6491 15.5304 38.8202 15.5684 39.0127ZM6.33912 49.1311C6.39609 49.5376 3.14876 53.9443 2.82593 53.9657C2.63603 53.9657 2.5031 53.8801 2.54108 53.7732C2.57906 53.6662 3.35766 52.511 4.26919 51.1847C5.76941 49.0669 6.28215 48.5535 6.33912 49.1311Z" fill="#6D28D9"/>
</svg>
