<svg width="140" height="140" viewBox="0 0 140 140" fill="none" xmlns="http://www.w3.org/2000/svg">
<path d="M74.8519 119.438H65.7388C65.1586 119.438 64.6022 119.668 64.192 120.078C63.7817 120.488 63.5513 121.045 63.5513 121.625C63.5513 122.205 63.7817 122.762 64.192 123.172C64.6022 123.582 65.1586 123.812 65.7388 123.812H74.8519C75.4321 123.812 75.9885 123.582 76.3987 123.172C76.8089 122.762 77.0394 122.205 77.0394 121.625C77.0394 121.045 76.8089 120.488 76.3987 120.078C75.9885 119.668 75.4321 119.438 74.8519 119.438Z" fill="#6D28D9"/>
<path d="M116.113 32.8344C116.113 32.5806 116.069 32.3288 115.981 32.0906C115.948 32.0346 115.919 31.9761 115.894 31.9156C115.85 31.8281 115.828 31.7625 115.784 31.675L101.763 9.64688C101.379 9.03657 100.846 8.53375 100.215 8.18557C99.5836 7.83739 98.8742 7.65526 98.1532 7.65625H41.847C41.126 7.65526 40.4166 7.83739 39.7853 8.18557C39.154 8.53375 38.6214 9.03657 38.2376 9.64688L24.2157 31.675C24.172 31.7625 24.1501 31.8281 24.1063 31.9156C24.0817 31.9761 24.0524 32.0346 24.0188 32.0906C23.9312 32.3288 23.8867 32.5806 23.8876 32.8344L23.8657 32.8563V42.9406C23.8769 45.2696 24.6321 47.534 26.0213 49.4033C27.4105 51.2726 29.3608 52.6489 31.5876 53.3313V119.7C31.594 123.055 32.9311 126.271 35.3056 128.641C37.6801 131.012 40.8981 132.343 44.2532 132.344H95.747C99.1021 132.343 102.32 131.012 104.695 128.641C107.069 126.271 108.406 123.055 108.413 119.7V53.3313C110.639 52.6489 112.59 51.2726 113.979 49.4033C115.368 47.534 116.123 45.2696 116.134 42.9406V32.8563L116.113 32.8344ZM98.0657 11.9875L109.944 30.6688H97.8251L90.0157 11.9875H98.0657ZM85.2688 11.9875L93.0782 30.6688H80.7407L78.7063 12.0094L85.2688 11.9875ZM94.172 35.0438V42.9406C94.172 44.6811 93.4806 46.3503 92.2499 47.581C91.0192 48.8117 89.35 49.5031 87.6095 49.5031H87.5438C85.8034 49.5031 84.1342 48.8117 82.9035 47.581C81.6727 46.3503 80.9813 44.6811 80.9813 42.9406V35.0438H94.172ZM65.6907 12.0094H74.3095L76.3439 30.6688H63.6563L65.6907 12.0094ZM63.3938 35.0438H76.6063V42.9406C76.6063 44.6811 75.9149 46.3503 74.6842 47.581C73.4535 48.8117 71.7843 49.5031 70.0438 49.5031H69.9563C68.2159 49.5031 66.5467 48.8117 65.316 47.581C64.0853 46.3503 63.3938 44.6811 63.3938 42.9406V35.0438ZM61.2938 12.0094L59.2595 30.6688H46.922L54.7313 12.0313L61.2938 12.0094ZM59.0188 35.0438V42.9406C59.0188 44.6811 58.3274 46.3503 57.0967 47.581C55.866 48.8117 54.1968 49.5031 52.4563 49.5031H52.3907C50.6502 49.5031 48.981 48.8117 47.7503 47.581C46.5196 46.3503 45.8282 44.6811 45.8282 42.9406V35.0438H59.0188ZM41.847 12.0313H49.9845L42.1751 30.6688H30.0345L41.847 12.0313ZM34.8907 49.5031H34.8032C33.0627 49.5031 31.3935 48.8117 30.1628 47.581C28.9321 46.3503 28.2407 44.6811 28.2407 42.9406V35.0438H41.4532V42.9406C41.4532 44.6811 40.7618 46.3503 39.5311 47.581C38.3004 48.8117 36.6312 49.5031 34.8907 49.5031ZM104.038 119.7C104.031 121.895 103.154 123.997 101.6 125.547C100.046 127.097 97.9416 127.968 95.747 127.969H44.2532C42.0585 127.968 39.9538 127.097 38.3999 125.547C36.8459 123.997 35.9695 121.895 35.9626 119.7V115.303H104.038V119.7ZM104.038 110.928H35.9626V53.7688C37.4743 53.6244 38.9388 53.1643 40.2615 52.4182C41.5841 51.6721 42.7354 50.6567 43.6407 49.4375C44.6485 50.8123 45.9657 51.9306 47.4858 52.702C49.0058 53.4735 50.6861 53.8764 52.3907 53.8781H52.4563C54.161 53.8764 55.8412 53.4735 57.3613 52.702C58.8814 51.9306 60.1985 50.8123 61.2063 49.4375C62.2141 50.8123 63.5313 51.9306 65.0514 52.702C66.5715 53.4735 68.2517 53.8764 69.9563 53.8781H70.0438C71.7485 53.8764 73.4287 53.4735 74.9488 52.702C76.4689 51.9306 77.786 50.8123 78.7938 49.4375C79.8016 50.8123 81.1188 51.9306 82.6389 52.702C84.159 53.4735 85.8392 53.8764 87.5438 53.8781H87.6095C89.3141 53.8764 90.9944 53.4735 92.5144 52.702C94.0345 51.9306 95.3517 50.8123 96.3595 49.4375C97.2648 50.6567 98.4161 51.6721 99.7387 52.4182C101.061 53.1643 102.526 53.6244 104.038 53.7688V110.928ZM111.759 42.9406C111.759 44.6811 111.068 46.3503 109.837 47.581C108.607 48.8117 106.937 49.5031 105.197 49.5031H105.109C103.369 49.5031 101.7 48.8117 100.469 47.581C99.2384 46.3503 98.547 44.6811 98.547 42.9406V35.0438H111.759V42.9406Z" fill="#6D28D9"/>
<path d="M92.422 96.3808L80.7189 84.6776C82.6881 80.7689 83.2004 76.2865 82.1641 72.0342C81.1278 67.7818 78.6106 64.0377 75.0639 61.4732C71.5171 58.9087 67.1728 57.6915 62.8099 58.0399C58.4471 58.3883 54.351 60.2794 51.2561 63.3743C48.1613 66.4691 46.2701 70.5652 45.9217 74.9281C45.5734 79.291 46.7905 83.6353 49.3551 87.1821C51.9196 90.7288 55.6637 93.246 59.916 94.2823C64.1683 95.3186 68.6507 94.8062 72.5595 92.837L84.2626 104.54C85.3516 105.588 86.8081 106.167 88.3192 106.152C89.8303 106.137 91.2754 105.531 92.344 104.462C93.4125 103.394 94.0193 101.948 94.0339 100.437C94.0485 98.9263 93.4697 97.4698 92.422 96.3808ZM64.2907 90.4308C61.0436 90.4344 57.8958 89.3119 55.3837 87.2545C52.8715 85.1971 51.1507 82.3322 50.5143 79.148C49.878 75.9639 50.3655 72.6576 51.894 69.7927C53.4224 66.9278 55.897 64.6816 58.8961 63.437C61.8952 62.1923 65.2331 62.0263 68.3409 62.9671C71.4487 63.9079 74.134 65.8973 75.9393 68.5964C77.7445 71.2954 78.5579 74.537 78.2407 77.7685C77.9236 81.0001 76.4956 84.0217 74.2001 86.3183C72.9016 87.624 71.3575 88.6596 69.6567 89.3655C67.9559 90.0713 66.1322 90.4334 64.2907 90.4308ZM89.3376 101.434C89.0776 101.694 88.7258 101.843 88.3577 101.847C87.9896 101.851 87.6346 101.71 87.3689 101.456L76.2564 90.3433C76.6266 90.0531 76.9773 89.7389 77.3064 89.4026C77.63 89.0759 77.9367 88.7327 78.2251 88.3745L89.3376 99.4652C89.4675 99.5941 89.5706 99.7474 89.641 99.9164C89.7113 100.085 89.7475 100.267 89.7475 100.45C89.7475 100.633 89.7113 100.814 89.641 100.983C89.5706 101.152 89.4675 101.305 89.3376 101.434Z" fill="#6D28D9"/>
</svg>
