<svg width="140" height="140" viewBox="0 0 140 140" fill="none" xmlns="http://www.w3.org/2000/svg">
<path d="M70.0002 7.65625C58.5862 7.66783 47.643 12.2072 39.572 20.2781C31.5011 28.349 26.9618 39.2922 26.9502 50.7063C26.9502 50.7719 26.9939 50.8375 26.9939 50.9031C27.0104 51.0512 27.0397 51.1976 27.0814 51.3406C27.1229 51.4754 27.1741 51.607 27.2346 51.7344C27.2998 51.8487 27.3729 51.9583 27.4533 52.0625C27.5519 52.1756 27.6619 52.2782 27.7814 52.3688C27.821 52.4301 27.8732 52.4823 27.9346 52.5219L62.7814 75.7531H38.1283C36.9691 75.7566 35.8583 76.2186 35.0386 77.0384C34.2188 77.8581 33.7568 78.9689 33.7533 80.1281V127.969C33.7568 129.128 34.2188 130.239 35.0386 131.059C35.8583 131.878 36.9691 132.34 38.1283 132.344H101.872C103.031 132.34 104.142 131.878 104.962 131.059C105.782 130.239 106.244 129.128 106.247 127.969V80.1281C106.244 78.9689 105.782 77.8581 104.962 77.0384C104.142 76.2186 103.031 75.7566 101.872 75.7531H77.2189L112.066 52.5219C112.127 52.4823 112.179 52.4301 112.219 52.3688C112.339 52.2782 112.448 52.1756 112.547 52.0625C112.627 51.9583 112.701 51.8487 112.766 51.7344C112.826 51.607 112.877 51.4754 112.919 51.3406C112.961 51.1976 112.99 51.0512 113.006 50.9031C113.006 50.8375 113.05 50.7719 113.05 50.7063C113.039 39.2922 108.499 28.349 100.428 20.2781C92.3574 12.2072 81.4142 7.66783 70.0002 7.65625ZM70.0002 12.0312C77.0747 12.0364 84.0124 13.9803 90.0596 17.6518C96.1068 21.3233 101.032 26.5819 104.3 32.8563C100.343 29.7559 95.4584 28.0763 90.4314 28.0875C86.1521 28.0906 81.9612 29.3067 78.345 31.5949C74.7287 33.8832 71.8353 37.1497 70.0002 41.0156C68.1651 37.1497 65.2717 33.8832 61.6554 31.5949C58.0392 29.3067 53.8483 28.0906 49.5689 28.0875C44.542 28.0763 39.6573 29.7559 35.7002 32.8563C38.9683 26.5819 43.8936 21.3233 49.9408 17.6518C55.988 13.9803 62.9257 12.0364 70.0002 12.0312ZM31.3908 49.5687C31.6842 44.8404 33.8069 40.4121 37.3092 37.2219C40.8115 34.0317 45.4182 32.3303 50.1533 32.4782C54.8884 32.6261 59.3799 34.6116 62.6763 38.0141C65.9727 41.4166 67.8149 45.9688 67.8127 50.7063V73.85L31.3908 49.5687ZM74.6158 80.1281V98.8313L71.2033 96.5562C70.8488 96.3141 70.4295 96.1845 70.0002 96.1845C69.5709 96.1845 69.1516 96.3141 68.7971 96.5562L65.3846 98.8313V80.1281H74.6158ZM77.8314 104.847C78.1807 104.661 78.473 104.384 78.6772 104.045C78.8814 103.706 78.9898 103.318 78.9908 102.922V80.1281H101.872V127.969H38.1283V80.1281H61.0096V102.922C61.0106 103.318 61.119 103.706 61.3232 104.045C61.5273 104.384 61.8196 104.661 62.1689 104.847C62.517 105.029 62.9072 105.115 63.2994 105.095C63.6916 105.076 64.0716 104.953 64.4002 104.738L70.0002 100.997L75.6002 104.738C75.957 104.975 76.3748 105.104 76.8033 105.109C77.1631 105.113 77.5176 105.023 77.8314 104.847ZM72.1877 73.85V50.7063C72.1855 45.9688 74.0277 41.4166 77.3241 38.0141C80.6205 34.6116 85.112 32.6261 89.8471 32.4782C94.5822 32.3303 99.1889 34.0317 102.691 37.2219C106.193 40.4121 108.316 44.8404 108.61 49.5687L72.1877 73.85Z" fill="#6D28D9"/>
<path d="M94.9816 109.812H81.3535C80.7734 109.812 80.217 110.043 79.8067 110.453C79.3965 110.863 79.166 111.42 79.166 112V121.078C79.166 121.658 79.3965 122.215 79.8067 122.625C80.217 123.035 80.7734 123.266 81.3535 123.266H94.9816C95.5618 123.266 96.1182 123.035 96.5284 122.625C96.9387 122.215 97.1691 121.658 97.1691 121.078V112C97.1691 111.42 96.9387 110.863 96.5284 110.453C96.1182 110.043 95.5618 109.812 94.9816 109.812ZM92.7941 118.891H83.541V114.188H92.7941V118.891Z" fill="#6D28D9"/>
</svg>
