<svg width="140" height="140" viewBox="0 0 140 140" fill="none" xmlns="http://www.w3.org/2000/svg">
<path d="M96.928 7.65625H43.0718C39.5908 7.65625 36.2524 9.03906 33.791 11.5005C31.3296 13.9619 29.9468 17.3003 29.9468 20.7812V119.219C29.9468 122.7 31.3296 126.038 33.791 128.5C36.2524 130.961 39.5908 132.344 43.0718 132.344H96.928C100.409 132.344 103.747 130.961 106.209 128.5C108.67 126.038 110.053 122.7 110.053 119.219V20.7812C110.053 17.3003 108.67 13.9619 106.209 11.5005C103.747 9.03906 100.409 7.65625 96.928 7.65625ZM84.9843 12.0312L83.1687 18.7906H56.8312L55.0155 12.0312H84.9843ZM105.678 119.219C105.678 121.539 104.756 123.765 103.115 125.406C101.474 127.047 99.2487 127.969 96.928 127.969H43.0718C40.7511 127.969 38.5255 127.047 36.8846 125.406C35.2436 123.765 34.3218 121.539 34.3218 119.219V114.516H105.678V119.219ZM105.678 110.163L105.656 110.141H34.3437L34.3218 110.163V20.7812C34.3218 18.4606 35.2436 16.235 36.8846 14.5941C38.5255 12.9531 40.7511 12.0313 43.0718 12.0312H50.4874L52.6093 19.9281C52.857 20.8581 53.4054 21.6799 54.1691 22.2655C54.9328 22.8512 55.8688 23.1676 56.8312 23.1656H83.1687C84.131 23.1676 85.067 22.8512 85.8307 22.2655C86.5944 21.6799 87.1428 20.8581 87.3905 19.9281L89.5124 12.0312H96.928C99.2487 12.0313 101.474 12.9531 103.115 14.5941C104.756 16.235 105.678 18.4606 105.678 20.7812V110.163Z" fill="#6D28D9"/>
<path d="M75.0705 119.057H65.5439C64.9638 119.057 64.4074 119.287 63.9972 119.697C63.5869 120.108 63.3564 120.664 63.3564 121.244C63.3564 121.824 63.5869 122.381 63.9972 122.791C64.4074 123.201 64.9638 123.432 65.5439 123.432H75.0705C75.6507 123.432 76.2071 123.201 76.6173 122.791C77.0275 122.381 77.258 121.824 77.258 121.244C77.258 120.664 77.0275 120.108 76.6173 119.697C76.2071 119.287 75.6507 119.057 75.0705 119.057Z" fill="#6D28D9"/>
<path d="M97.4966 91.6125V51.0781C97.4966 51.0563 97.4747 51.0125 97.4747 50.9906C97.4737 50.737 97.4293 50.4855 97.3435 50.2469L97.3216 50.225L92.4653 38.4125C92.248 37.8954 91.9033 37.4418 91.4635 37.0937C91.0236 36.7457 90.5029 36.5146 89.9497 36.4219V30.9531C89.9497 30.373 89.7192 29.8166 89.309 29.4063C88.8988 28.9961 88.3424 28.7656 87.7622 28.7656H70.1528C69.5727 28.7656 69.0163 28.9961 68.606 29.4063C68.1958 29.8166 67.9653 30.373 67.9653 30.9531V36.3125H51.1216C50.4296 36.2915 49.7473 36.4782 49.1624 36.8486C48.5776 37.219 48.1171 37.7561 47.8403 38.3906L42.9841 50.225V50.2469C42.8811 50.4812 42.8289 50.7347 42.831 50.9906C42.831 51.0125 42.8091 51.0563 42.8091 51.0781V91.5031C42.0882 91.7063 41.4529 92.1383 40.9991 92.7342C40.5453 93.33 40.2977 94.0573 40.2935 94.8063V101.106C40.2949 101.559 40.3854 102.006 40.5599 102.424C40.7344 102.841 40.9894 103.22 41.3103 103.539C41.6312 103.858 42.0119 104.111 42.4304 104.283C42.849 104.454 43.2973 104.542 43.7497 104.541H96.2497C96.7022 104.542 97.1504 104.454 97.569 104.283C97.9876 104.111 98.3682 103.858 98.6891 103.539C99.0101 103.22 99.265 102.841 99.4395 102.424C99.614 102.006 99.7045 101.559 99.706 101.106V94.8063C99.7012 94.1136 99.4878 93.4384 99.0937 92.8687C98.6997 92.299 98.1431 91.8613 97.4966 91.6125ZM93.1216 53.2656V56.4594C93.1219 56.7869 93.0576 57.1113 92.9323 57.414C92.8071 57.7167 92.6234 57.9917 92.3918 58.2234C92.1602 58.455 91.8852 58.6387 91.5825 58.7639C91.2798 58.8891 90.9554 58.9534 90.6278 58.9531H89.9497C89.6205 58.9554 89.2942 58.8927 88.9894 58.7684C88.6845 58.6442 88.4073 58.4609 88.1735 58.2292C87.9397 57.9975 87.7541 57.7218 87.6272 57.4181C87.5003 57.1144 87.4347 56.7885 87.4341 56.4594V53.2656H93.1216ZM88.681 40.6875L92.0497 48.8906H86.8653L84.4153 40.6875H88.681ZM72.3403 33.1406H85.5747V36.3125H72.3403V33.1406ZM77.3716 53.2656H83.0591V56.4594C83.0594 56.7869 82.9951 57.1113 82.8698 57.414C82.7446 57.7167 82.5609 57.9917 82.3293 58.2234C82.0977 58.455 81.8227 58.6387 81.52 58.7639C81.2173 58.8891 80.8929 58.9534 80.5653 58.9531H79.8653C79.5378 58.9534 79.2134 58.8891 78.9107 58.7639C78.608 58.6387 78.333 58.455 78.1013 58.2234C77.8697 57.9917 77.686 57.7167 77.5608 57.414C77.4356 57.1113 77.3713 56.7869 77.3716 56.4594V53.2656ZM77.1747 48.8906L76.3435 40.6875H79.8435L82.3153 48.8906H77.1747ZM68.3591 40.6875H71.9466L72.7778 48.8906H67.5497L68.3591 40.6875ZM67.3091 53.2656H72.9966V56.4594C72.9969 56.7869 72.9326 57.1113 72.8073 57.414C72.6821 57.7167 72.4984 57.9917 72.2668 58.2234C72.0352 58.455 71.7602 58.6387 71.4575 58.7639C71.1548 58.8891 70.8304 58.9534 70.5028 58.9531H69.8247C69.4955 58.9554 69.1692 58.8927 68.8644 58.7684C68.5595 58.6442 68.2823 58.4609 68.0485 58.2292C67.8147 57.9975 67.6291 57.7218 67.5022 57.4181C67.3753 57.1144 67.3097 56.7885 67.3091 56.4594V53.2656ZM60.4622 40.6875H63.9622L63.1528 48.8906H57.9903L60.4622 40.6875ZM57.2466 53.2656H62.9341V56.4594C62.9344 56.7869 62.8701 57.1113 62.7448 57.414C62.6196 57.7167 62.4359 57.9917 62.2043 58.2234C61.9727 58.455 61.6977 58.6387 61.395 58.7639C61.0923 58.8891 60.7679 58.9534 60.4403 58.9531H59.7622C59.433 58.9554 59.1067 58.8927 58.8019 58.7684C58.497 58.6442 58.2198 58.4609 57.986 58.2292C57.7522 57.9975 57.5666 57.7218 57.4397 57.4181C57.3128 57.1144 57.2472 56.7885 57.2466 56.4594V53.2656ZM51.6247 40.6875H55.8903L53.4403 48.8906H48.256L51.6247 40.6875ZM47.1841 53.2656H52.8716V56.4594C52.8719 56.7869 52.8076 57.1113 52.6823 57.414C52.5571 57.7167 52.3734 57.9917 52.1418 58.2234C51.9102 58.455 51.6352 58.6387 51.3325 58.7639C51.0298 58.8891 50.7054 58.9534 50.3778 58.9531H49.6778C49.3503 58.9534 49.0259 58.8891 48.7232 58.7639C48.4205 58.6387 48.1455 58.455 47.9138 58.2234C47.6822 57.9917 47.4985 57.7167 47.3733 57.414C47.2481 57.1113 47.1838 56.7869 47.1841 56.4594V53.2656ZM47.1841 62.8469C47.978 63.1617 48.8238 63.3249 49.6778 63.3281H50.3778C52.1221 63.3264 53.7987 62.6527 55.0591 61.4469C56.3261 62.6562 58.0107 63.33 59.7622 63.3281H60.4403C62.1846 63.3264 63.8612 62.6527 65.1216 61.4469C66.3886 62.6562 68.0732 63.33 69.8247 63.3281H70.5028C72.2471 63.3264 73.9237 62.6527 75.1841 61.4469C76.4445 62.6527 78.121 63.3264 79.8653 63.3281H80.5653C82.3096 63.3264 83.9862 62.6527 85.2466 61.4469C86.5136 62.6562 88.1982 63.33 89.9497 63.3281H90.6278C91.4818 63.3249 92.3277 63.1617 93.1216 62.8469V91.3719H47.1841V62.8469ZM44.6685 100.166V95.7469H95.3091L95.331 100.166H44.6685Z" fill="#6D28D9"/>
<path d="M73.7407 77.0654C74.5551 77.65 75.166 78.4748 75.4877 79.4242C75.8094 80.3737 75.8257 81.4 75.5344 82.3592C75.2917 83.165 74.862 83.902 74.2804 84.5102C73.6988 85.1185 72.9817 85.5807 72.1875 85.8592V86.6029C72.1875 87.1831 71.9571 87.7395 71.5468 88.1497C71.1366 88.56 70.5802 88.7904 70 88.7904C69.4199 88.7904 68.8635 88.56 68.4532 88.1497C68.043 87.7395 67.8125 87.1831 67.8125 86.6029V85.5311C67.1263 85.1895 66.4681 84.7946 65.8438 84.3498C65.5813 84.1748 65.3407 83.9998 65.0782 83.8467C64.8336 83.6948 64.6215 83.4961 64.4539 83.262C64.2862 83.0279 64.1665 82.7631 64.1015 82.4826C64.0364 82.2022 64.0274 81.9117 64.0749 81.6277C64.1224 81.3438 64.2254 81.072 64.3782 80.8279C64.5266 80.5828 64.7222 80.3695 64.9536 80.2003C65.1849 80.0311 65.4475 79.9095 65.7262 79.8424C66.0048 79.7753 66.294 79.764 66.577 79.8093C66.86 79.8545 67.1312 79.9554 67.375 80.1061C67.6813 80.3029 67.9875 80.5217 68.3157 80.7404C69.0594 81.2436 69.8469 81.8779 70.4594 81.7904C70.6553 81.7853 70.8447 81.7193 71.0015 81.6018C71.1583 81.4842 71.2746 81.3208 71.3344 81.1342C71.3734 81.0403 71.3771 80.9355 71.3449 80.839C71.3128 80.7426 71.2469 80.661 71.1594 80.6092L67.0907 77.6123C66.5733 77.2443 66.1342 76.7772 65.7987 76.2381C65.4632 75.6991 65.238 75.0988 65.1363 74.472C65.0346 73.8453 65.0582 73.2046 65.206 72.5871C65.3537 71.9697 65.6226 71.3876 65.9969 70.8748C66.4623 70.2185 67.0871 69.6915 67.8125 69.3436V68.0967C67.8125 67.5165 68.043 66.9601 68.4532 66.5499C68.8635 66.1397 69.4199 65.9092 70 65.9092C70.5802 65.9092 71.1366 66.1397 71.5468 66.5499C71.9571 66.9601 72.1875 67.5165 72.1875 68.0967V69.1029C72.6309 69.2643 73.0504 69.4851 73.4344 69.7592L75.075 70.9623C75.3063 71.1332 75.5016 71.348 75.6498 71.5944C75.7981 71.8408 75.8963 72.114 75.939 72.3984C75.9817 72.6828 75.9679 72.9728 75.8985 73.2519C75.829 73.5309 75.7053 73.7936 75.5344 74.0248C75.3635 74.2561 75.1487 74.4514 74.9023 74.5996C74.6559 74.7478 74.3827 74.8461 74.0983 74.8888C73.8139 74.9314 73.5239 74.9176 73.2449 74.8482C72.9658 74.7788 72.7032 74.6551 72.4719 74.4842L70.8532 73.2811C70.6309 73.1244 70.3558 73.0615 70.0875 73.1061C69.9785 73.1195 69.8735 73.1556 69.7793 73.2121C69.6851 73.2686 69.6038 73.3443 69.5407 73.4342C69.5017 73.4854 69.4746 73.5446 69.4611 73.6076C69.4477 73.6705 69.4483 73.7356 69.4629 73.7983C69.4776 73.861 69.5058 73.9197 69.5457 73.9701C69.5856 74.0206 69.6362 74.0617 69.6938 74.0904C69.6938 74.0904 73.5657 76.9561 73.7407 77.0654Z" fill="#6D28D9"/>
</svg>
