<svg width="55" height="56" viewBox="0 0 55 56" fill="none" xmlns="http://www.w3.org/2000/svg">
<g clip-path="url(#clip0_166_14)">
<path d="M41.1025 37.5982C41.1025 32.246 41.1025 26.8791 41.1025 21.5269C41.1025 20.4181 41.3243 20.1963 42.4184 20.1963C44.7692 20.1963 47.1052 20.1963 49.456 20.1963C50.3283 20.1963 50.624 20.492 50.624 21.3643C50.624 32.1869 50.624 43.0242 50.624 53.8468C50.624 54.7191 50.3136 55.0148 49.456 55.0148C47.0609 55.0148 44.6509 55.0148 42.2558 55.0148C41.3835 55.0148 41.1025 54.7339 41.1025 53.8468C41.1025 48.4208 41.1025 43.0095 41.1025 37.5982ZM48.8203 53.2111C48.8203 42.7729 48.8203 32.3791 48.8203 21.9853C46.8243 21.9853 44.8727 21.9853 42.9211 21.9853C42.9211 32.4087 42.9211 42.8025 42.9211 53.2111C44.9023 53.2111 46.8391 53.2111 48.8203 53.2111Z" fill="#6D28D9"/>
<path d="M32.261 41.7378C32.261 45.7445 32.261 49.7512 32.261 53.7727C32.261 54.7189 31.9801 54.9999 31.0487 54.9999C28.6683 54.9999 26.2879 54.9999 23.8928 54.9999C23.0204 54.9999 22.71 54.7042 22.71 53.8466C22.71 45.7593 22.71 37.6571 22.71 29.5698C22.71 28.7122 23.0204 28.4165 23.8928 28.4165C26.2583 28.4165 28.6239 28.4165 30.9895 28.4165C31.9801 28.4165 32.2463 28.6827 32.2463 29.6585C32.2758 33.68 32.261 37.7015 32.261 41.7378ZM24.5433 30.2055C24.5433 37.8789 24.5433 45.5375 24.5433 53.1813C26.5393 53.1813 28.5057 53.1813 30.4573 53.1813C30.4573 45.5079 30.4573 37.8641 30.4573 30.2055C28.4613 30.2055 26.5245 30.2055 24.5433 30.2055Z" fill="#6D28D9"/>
<path d="M35.0556 22.4436C34.9373 22.6506 34.8338 22.9167 34.6564 23.1089C34.2276 23.5672 33.7693 23.996 33.3405 24.4543C32.9266 24.8979 32.483 24.957 31.9508 24.7057C30.975 24.2621 29.9104 24.6909 29.5556 25.6963C29.3338 26.2877 28.9642 26.539 28.3432 26.5094C27.7962 26.4799 27.2344 26.4799 26.6873 26.5094C26.0663 26.539 25.608 26.3172 25.4897 25.6963C25.2975 24.7352 24.3956 24.7648 23.7747 24.4395C23.6416 24.3656 23.3459 24.5726 23.1241 24.6761C22.3997 24.9866 22.1927 24.957 21.6456 24.41C21.2465 24.0256 20.8768 23.6116 20.4629 23.242C20.0045 22.828 19.8419 22.3401 20.1967 21.8226C20.7438 21.0094 20.0932 20.4033 19.8567 19.7379C19.7975 19.5605 19.3836 19.4866 19.1322 19.3979C18.6147 19.2205 18.3634 18.8656 18.393 18.3038C18.4077 17.6976 18.4225 17.0914 18.393 16.4705C18.3634 15.8938 18.6147 15.539 19.1618 15.332C20.1967 14.9328 20.6403 13.8831 20.1819 12.9073C19.9306 12.3602 20.0045 11.9315 20.4481 11.5175C20.862 11.1331 21.276 10.7191 21.6604 10.3051C22.0892 9.83202 22.5623 9.71374 23.0946 10.0538C23.9077 10.5861 24.5139 9.93552 25.1793 9.69896C25.3567 9.62503 25.4306 9.22584 25.5193 8.97449C25.6967 8.44224 26.0663 8.22046 26.6134 8.22046C27.2196 8.23525 27.8258 8.23525 28.4467 8.22046C28.9938 8.20568 29.4373 8.41267 29.526 8.95971C29.7034 9.9503 30.5905 9.96509 31.2559 10.2756C31.4333 10.3643 31.7733 10.1425 32.0099 10.0242C32.5274 9.77288 32.9561 9.83202 33.3553 10.2608C33.7545 10.6895 34.1685 11.1183 34.612 11.5175C35.0556 11.9167 35.2182 12.3898 34.8634 12.8925C34.3016 13.7057 34.9373 14.3266 35.1739 14.992C35.233 15.1694 35.6322 15.2581 35.8983 15.3468C36.4454 15.539 36.6967 15.8938 36.6672 16.4705C36.6376 17.0619 36.6376 17.6533 36.6672 18.2447C36.6967 18.8508 36.4454 19.2057 35.8688 19.4127C34.8782 19.7823 34.4346 20.8468 34.8486 21.8078C34.893 21.9852 34.9669 22.1775 35.0556 22.4436ZM21.9561 22.1775C22.5623 22.9019 22.5475 22.8723 23.4051 22.6062C23.686 22.5175 24.0556 22.5914 24.3365 22.6801C24.8096 22.828 25.2384 23.1237 25.7115 23.2568C26.2881 23.4046 26.6873 23.7003 26.8204 24.2769C26.9091 24.6761 27.1604 24.7205 27.5005 24.7205C27.8701 24.7205 28.0919 24.6465 28.1806 24.2621C28.3137 23.7003 28.6685 23.4046 29.2451 23.2568C29.6591 23.1533 30.0583 22.9906 30.4131 22.7836C30.9158 22.4732 31.4037 22.3844 31.9064 22.7245C32.2465 22.9463 32.4534 22.8132 32.7048 22.5619C32.9561 22.3105 33.0744 22.1035 32.8674 21.7635C32.5569 21.2756 32.6161 20.8172 32.9118 20.3145C33.1483 19.9006 33.3258 19.4422 33.4588 18.9839C33.5919 18.496 33.858 18.2003 34.3163 18.0672C34.7155 17.9637 34.8634 17.7715 34.8634 17.328C34.8634 16.8992 34.7008 16.7218 34.3311 16.6331C33.8284 16.5 33.5771 16.1748 33.444 15.6869C33.3258 15.2285 33.1336 14.7702 32.897 14.3562C32.6161 13.8683 32.5717 13.4248 32.8674 12.9516C33.0596 12.6264 33.0153 12.4194 32.7344 12.1385C32.4534 11.8723 32.2317 11.7541 31.8768 11.9758C31.4037 12.2715 30.9454 12.2124 30.4723 11.9315C30.1174 11.7245 29.7182 11.5175 29.3042 11.4288C28.6981 11.2957 28.2989 10.9852 28.1658 10.3791C28.0771 10.0242 27.8553 9.9503 27.5153 9.9503C27.1752 9.9503 26.9091 9.97987 26.8204 10.3938C26.6873 10.9705 26.3177 11.2957 25.7263 11.4288C25.3419 11.5175 24.9427 11.6801 24.6026 11.8871C24.0852 12.2124 23.5825 12.2863 23.0502 11.9463C22.6954 11.7097 22.5032 11.9315 22.2518 12.1533C21.9857 12.3898 21.9266 12.5968 22.104 12.9073C22.4145 13.41 22.3701 13.8979 22.0596 14.4154C21.8379 14.7702 21.6752 15.1842 21.5717 15.5834C21.4239 16.1304 21.1577 16.5296 20.5811 16.6479C20.1967 16.7366 20.1228 16.9731 20.1228 17.328C20.1228 17.6828 20.1967 17.9342 20.5811 18.0229C21.143 18.1559 21.4239 18.5404 21.5717 19.0874C21.7048 19.5605 21.9266 20.0188 22.1631 20.4476C22.3553 20.8172 22.3997 21.1721 22.2075 21.5565C22.1188 21.7783 22.0448 21.9852 21.9561 22.1775Z" fill="#6D28D9"/>
<path d="M9.1371 16.4556C14.164 16.4556 18.2742 20.5658 18.2742 25.5927C18.2742 30.6196 14.1788 34.715 9.1371 34.715C4.09543 34.715 0 30.6196 0 25.5927C0 20.551 4.09543 16.4556 9.1371 16.4556ZM9.12231 18.2298C5.05645 18.2446 1.75941 21.5416 1.77419 25.6075C1.78898 29.6733 5.10081 32.9408 9.16667 32.9408C13.203 32.926 16.5 29.629 16.5 25.5927C16.5 21.5416 13.1734 18.215 9.12231 18.2298Z" fill="#6D28D9"/>
<path d="M45.8627 0C50.9044 0 54.9998 4.09543 54.9998 9.1371C54.9998 14.164 50.8896 18.2742 45.8627 18.2742C40.8506 18.2742 36.7256 14.1492 36.7256 9.1371C36.7256 4.11021 40.8358 0 45.8627 0ZM53.2256 9.15188C53.2256 5.08602 49.9285 1.78898 45.8627 1.77419C41.8116 1.77419 38.485 5.10081 38.4998 9.15188C38.5146 13.1734 41.8116 16.4852 45.8331 16.5C49.8842 16.5148 53.2256 13.203 53.2256 9.15188Z" fill="#6D28D9"/>
<path d="M13.8976 45.8482C13.8976 48.4947 13.8976 51.1264 13.8976 53.7729C13.8976 54.734 13.6315 55.0001 12.6853 55.0001C10.3049 55.0001 7.9245 55.0001 5.52934 55.0001C4.65703 55.0001 4.36133 54.7044 4.36133 53.8321C4.36133 48.4947 4.36133 43.1573 4.36133 37.8052C4.36133 36.9329 4.65703 36.6372 5.52934 36.6372C7.9245 36.6372 10.3344 36.6372 12.7296 36.6372C13.6167 36.6372 13.8828 36.9181 13.8828 37.8052C13.8976 40.4813 13.8976 43.1721 13.8976 45.8482ZM12.0643 53.2259C12.0643 48.2582 12.0643 43.3643 12.0643 38.4557C10.0683 38.4557 8.1167 38.4557 6.16509 38.4557C6.16509 43.3939 6.16509 48.3025 6.16509 53.2259C7.99843 53.2259 9.7874 53.2259 11.5764 53.2259C11.739 53.2259 11.8869 53.2259 12.0643 53.2259Z" fill="#6D28D9"/>
<path d="M22.3848 17.3724C22.3848 14.5484 24.6469 12.2715 27.4708 12.242C30.2947 12.2124 32.6159 14.5336 32.6012 17.3871C32.5864 20.1963 30.2799 22.5027 27.4856 22.4879C24.6912 22.4879 22.3996 20.1815 22.3848 17.3724ZM30.8418 17.3428C30.8418 15.4947 29.3337 14.0014 27.4856 14.0162C25.6375 14.031 24.159 15.5242 24.159 17.3724C24.159 19.2205 25.667 20.7138 27.5004 20.7138C29.3485 20.699 30.8418 19.1909 30.8418 17.3428Z" fill="#6D28D9"/>
<path d="M10.0092 23.8333C10.0092 24.3655 9.99437 24.8978 10.0092 25.4448C10.0239 25.9032 9.84652 26.2137 9.44733 26.4354C8.81157 26.7903 8.20539 27.1599 7.56964 27.4999C7.03738 27.7956 6.51991 27.6478 6.28335 27.2042C6.04679 26.7607 6.20942 26.2876 6.68254 25.9771C6.71211 25.9623 6.74168 25.9327 6.78604 25.918C8.05754 25.504 8.48631 24.6317 8.24975 23.3454C8.17582 22.9314 8.22018 22.5026 8.24975 22.0739C8.27932 21.4973 8.63416 21.1424 9.15163 21.1572C9.65432 21.172 9.99437 21.5268 10.0092 22.1034C10.0239 22.6948 10.0092 23.2715 10.0092 23.8333Z" fill="#6D28D9"/>
<path d="M4.28721 25.6075C4.27242 26.1397 3.81409 26.5981 3.28183 26.5833C2.73479 26.5833 2.29124 26.1102 2.30602 25.5336C2.32081 24.9865 2.76436 24.5725 3.3114 24.6021C3.85844 24.6317 4.28721 25.0752 4.28721 25.6075Z" fill="#6D28D9"/>
<path d="M4.96822 28.7274C5.50047 28.7126 5.95881 29.1414 5.98838 29.6884C6.00316 30.2207 5.58918 30.6938 5.05693 30.7233C4.4951 30.7529 4.02198 30.3094 4.0072 29.7475C3.99241 29.2005 4.43596 28.7422 4.96822 28.7274Z" fill="#6D28D9"/>
<path d="M15.968 25.6224C15.9532 26.1547 15.4949 26.5982 14.9626 26.5982C14.4156 26.5982 13.9424 26.0956 13.972 25.5485C14.0016 25.0163 14.4599 24.6023 15.007 24.6171C15.554 24.6318 15.9828 25.0754 15.968 25.6224Z" fill="#6D28D9"/>
<path d="M5.98755 21.512C5.95798 22.059 5.49965 22.4582 4.9526 22.4434C4.40556 22.4287 3.9768 21.9703 3.99158 21.4381C4.00637 20.8762 4.49427 20.4475 5.0561 20.477C5.61793 20.5066 6.01712 20.965 5.98755 21.512Z" fill="#6D28D9"/>
<path d="M9.13755 18.7471C9.66981 18.7471 10.1134 19.1907 10.1134 19.7377C10.1134 20.2847 9.69938 20.7283 9.15233 20.7431C8.59051 20.7579 8.11739 20.2995 8.13217 19.7377C8.14696 19.2054 8.60529 18.7471 9.13755 18.7471Z" fill="#6D28D9"/>
<path d="M14.253 29.7032C14.2677 30.2354 13.839 30.6938 13.3067 30.7233C12.7597 30.7529 12.3161 30.3389 12.2866 29.7919C12.257 29.23 12.7005 28.7421 13.2476 28.7421C13.7798 28.7274 14.2382 29.1709 14.253 29.7032Z" fill="#6D28D9"/>
<path d="M13.2771 22.4438C12.7301 22.4585 12.3013 22.0298 12.2865 21.4827C12.2717 20.9209 12.6709 20.4922 13.2328 20.4774C13.7946 20.4626 14.2677 20.9061 14.2677 21.4532C14.2677 21.9854 13.8094 22.4438 13.2771 22.4438Z" fill="#6D28D9"/>
<path d="M9.10764 32.4233C8.57538 32.4085 8.13184 31.965 8.13184 31.4327C8.13184 30.8709 8.61974 30.4422 9.18157 30.4569C9.72861 30.4865 10.1278 30.9153 10.113 31.4771C10.0982 32.0241 9.65469 32.4381 9.10764 32.4233Z" fill="#6D28D9"/>
<path d="M44.9461 4.28786C44.9608 4.2435 44.9904 4.19915 44.9756 4.16958C44.9017 3.43033 45.3748 3.06071 45.8332 3.03114C46.3358 3.00157 46.602 3.32684 46.7646 4.0513C46.7942 4.19915 47.0012 4.347 47.149 4.40614C47.9622 4.71662 48.5684 5.24888 48.9676 6.0177C49.2781 6.62388 49.1598 7.15614 48.6719 7.40748C48.1987 7.64404 47.7552 7.45184 47.4151 6.87522C46.9125 6.0177 45.9071 5.722 45.02 6.16555C44.6356 6.35775 44.3694 6.65345 44.3694 7.11178C44.3694 7.57012 44.6799 7.82146 45.0643 7.95452C45.5227 8.10237 45.9958 8.16151 46.4541 8.32415C47.0603 8.53114 47.6961 8.72334 48.2283 9.0634C49.1302 9.64001 49.485 10.5419 49.3668 11.5916C49.2485 12.6709 48.5684 13.3066 47.6369 13.7206C47.3708 13.8389 47.0899 13.9128 46.7942 14.0163C46.7646 14.2085 46.7498 14.3859 46.7055 14.5634C46.5872 15.0217 46.2767 15.2435 45.8184 15.2287C45.3453 15.1991 45.0348 14.9478 45.02 14.4746C45.0052 14.0902 44.8426 13.9572 44.5025 13.8389C43.4971 13.4841 42.7579 12.8187 42.4178 11.769C42.2256 11.1924 42.4326 10.7045 42.9205 10.5419C43.4232 10.3644 43.9111 10.5714 44.0737 11.1776C44.4138 12.4343 46.4246 12.6413 47.356 11.8429C47.77 11.4881 47.6961 10.8228 47.1786 10.5271C46.7646 10.2905 46.2619 10.1722 45.7888 10.0096C45.3009 9.847 44.7834 9.77307 44.3103 9.58087C43.2458 9.13732 42.61 8.33893 42.5953 7.15614C42.5805 6.00291 43.1571 5.16017 44.1772 4.61313C44.4286 4.48006 44.6947 4.39135 44.9461 4.28786Z" fill="#6D28D9"/>
</g>
<defs>
<clipPath id="clip0_166_14">
<rect width="55" height="56" fill="white"/>
</clipPath>
</defs>
</svg>
