<svg width="57" height="57" viewBox="0 0 57 57" fill="none" xmlns="http://www.w3.org/2000/svg">
<path d="M25.791 0.441505C21.6013 1.02098 17.6934 2.96505 14.6874 5.93722C11.2116 9.3954 9.25765 13.5265 8.8631 18.3119L8.73158 19.8447L7.11582 19.9195C4.5043 20.0504 2.88854 21.0037 1.89277 23.0225C1.19762 24.4432 1.16004 26.6303 1.79883 27.864C2.43762 29.0977 3.26429 29.9202 4.42915 30.481C5.46248 30.9857 5.63157 31.0044 8.7128 31.0605C11.4934 31.1166 11.9631 31.0792 12.2261 30.8175C12.508 30.5558 12.5455 29.9015 12.5455 25.49C12.5455 19.8821 12.5455 19.8821 11.2867 19.8821H10.6104L10.7419 18.4241C11.174 13.7508 13.5601 9.17109 17.1298 6.21761C18.7643 4.85303 22.0147 3.22675 24.1941 2.64727C26.4862 2.04909 30.5444 2.04909 32.8365 2.64727C35.0159 3.22675 37.9468 4.68479 39.6565 6.03068C43.3578 8.94677 45.8566 13.6387 46.2887 18.4241L46.4202 19.8821H45.7438C44.485 19.8821 44.485 19.8821 44.485 25.49C44.485 31.0792 44.485 31.0979 45.725 31.0979H46.3638V32.6681C46.3638 34.9299 46.5329 34.8364 42.2305 34.8364H38.6796L38.379 34.2756C37.9093 33.3784 36.8759 32.9671 35.0723 32.9671C32.5359 32.9671 31.4274 33.8083 31.4274 35.7711C31.4274 37.0048 31.9159 37.8086 32.9492 38.2946C33.4753 38.5376 34.0014 38.5937 35.3353 38.5376C36.8008 38.5002 37.1577 38.4068 37.6462 38.0329C37.9844 37.8086 38.3414 37.3974 38.4541 37.1544L38.6608 36.7057H42.3244C45.6311 36.7057 46.082 36.6683 46.7396 36.3319C47.8669 35.7711 48.2426 34.8738 48.2426 32.8176V31.1352L49.896 31.0605C52.5263 30.9483 54.1232 29.9763 55.2317 27.864C55.8705 26.6303 55.8329 24.4432 55.1378 23.0225C54.142 21.0037 52.5263 20.0504 49.9147 19.9195L48.299 19.8447L48.1675 18.3119C47.7729 13.5265 45.7814 9.32063 42.2493 5.86245C39.7505 3.39498 36.5753 1.63785 33.1183 0.79667C31.3898 0.385426 27.5195 0.198497 25.791 0.441505ZM6.90915 25.49C6.90915 29.5837 6.96552 29.4155 5.76309 29.0229C4.31642 28.5369 3.15157 27.0415 3.15157 25.6582C3.15157 23.6581 4.72975 21.8636 6.58976 21.7701C6.89037 21.7514 6.90915 22.0505 6.90915 25.49ZM10.6667 25.49V29.2286H9.72735H8.78795V25.49V21.7514H9.72735H10.6667V25.49ZM48.2426 25.49V29.2286H47.3032H46.3638V25.49V21.7514H47.3032H48.2426V25.49ZM52.2445 22.4244C53.0899 22.9851 53.879 24.4619 53.879 25.5461C53.879 27.0415 52.7705 28.5182 51.2675 29.0229C50.0651 29.4155 50.1214 29.5837 50.1214 25.4713V21.714L50.8354 21.8449C51.2111 21.901 51.8499 22.1813 52.2445 22.4244ZM36.6692 35.1355C36.8383 35.2851 36.9699 35.5842 36.9699 35.7711C36.9699 36.444 36.4626 36.7057 35.0911 36.7057C33.7195 36.7057 33.2123 36.444 33.2123 35.7711C33.2123 35.0981 33.7195 34.8364 35.0911 34.8364C36.0117 34.8364 36.4626 34.9112 36.6692 35.1355Z" fill="#6D28D9"/>
<path d="M25.0583 4.29267C24.814 4.51698 24.7577 5.003 24.7577 6.53581C24.7577 7.99386 24.7013 8.47988 24.5134 8.47988C24.3819 8.47988 23.6867 7.8817 22.9728 7.17137C22.0522 6.25542 21.5261 5.86287 21.2067 5.86287C20.568 5.86287 16.3031 10.0688 16.3031 10.7043C16.3031 10.9847 16.754 11.6016 17.6182 12.4802C18.3322 13.2279 18.9334 13.9382 18.9334 14.0504C18.9334 14.1999 18.351 14.2747 16.9795 14.2747C15.4388 14.2747 14.9504 14.3308 14.7249 14.5738C14.274 15.0037 14.274 21.0228 14.7249 21.4527C14.9504 21.6958 15.4388 21.7518 16.9795 21.7518C18.351 21.7518 18.9334 21.8266 18.9334 21.9761C18.9334 22.0883 18.351 22.7986 17.6182 23.5464C16.754 24.4249 16.3031 25.0418 16.3031 25.3222C16.3031 25.9577 20.5867 30.1636 21.2067 30.1636C21.5261 30.1636 22.071 29.7524 22.9728 28.8551C23.6867 28.1261 24.3819 27.5466 24.5134 27.5466C24.7013 27.5466 24.7577 28.0326 24.7577 29.4907C24.7577 31.0235 24.814 31.5095 25.0583 31.7338C25.4904 32.1825 31.5401 32.1825 31.9722 31.7338C32.2165 31.5095 32.2728 31.0235 32.2728 29.4907C32.2728 28.0326 32.3292 27.5466 32.5171 27.5466C32.6486 27.5466 33.3437 28.1261 34.0577 28.8551C34.9783 29.7711 35.5044 30.1636 35.8238 30.1636C36.4625 30.1636 40.7274 25.9577 40.7274 25.3222C40.7274 25.0418 40.2765 24.4249 39.4123 23.5464C38.6983 22.7986 38.0971 22.0883 38.0971 21.9761C38.0971 21.8266 38.6795 21.7518 40.051 21.7518C41.5917 21.7518 42.0801 21.6958 42.3056 21.4527C42.7565 21.0228 42.7565 15.0037 42.3056 14.5738C42.0801 14.3308 41.5917 14.2747 40.051 14.2747C38.6795 14.2747 38.0971 14.1999 38.0971 14.0504C38.0971 13.9382 38.6983 13.2279 39.4123 12.4802C40.2765 11.6016 40.7274 10.9847 40.7274 10.7043C40.7274 10.0688 36.4625 5.86287 35.8238 5.86287C35.5044 5.86287 34.9783 6.25542 34.0577 7.17137C33.3437 7.8817 32.6486 8.47988 32.5171 8.47988C32.3292 8.47988 32.2728 7.99386 32.2728 6.53581C32.2728 5.003 32.2165 4.51698 31.9722 4.29267C31.728 4.04966 31.1456 3.99358 28.5152 3.99358C25.8849 3.99358 25.3025 4.04966 25.0583 4.29267ZM30.394 7.60131C30.394 8.72288 30.4692 9.45191 30.6383 9.62014C31.014 10.0875 32.8177 10.7417 33.1934 10.5548C33.3625 10.4613 33.9638 9.90054 34.5274 9.33975C35.091 8.76027 35.6547 8.29295 35.7674 8.29295C35.9928 8.29295 38.1347 10.4052 38.2662 10.7417C38.3038 10.8539 37.7589 11.5268 37.045 12.2371L35.7674 13.5083L36.1995 14.5925C36.4438 15.1906 36.7819 15.7888 36.9322 15.901C37.1201 16.0505 37.8529 16.144 38.9801 16.144H40.7274V18.0133V19.8825H38.9989C38.0407 19.8825 37.1389 19.9573 37.0074 20.0508C36.7256 20.219 35.8425 22.0135 35.8425 22.3874C35.8425 22.5182 36.4438 23.2099 37.1577 23.9202L38.4729 25.21L37.2141 26.4624C36.5377 27.1728 35.8801 27.7336 35.7486 27.7336C35.6171 27.7336 35.091 27.2662 34.5462 26.7055C33.1934 25.2848 33.0619 25.2287 31.8595 25.7147C30.3565 26.3129 30.394 26.2568 30.394 28.313V30.1636H28.5152H26.6365V28.313C26.6365 26.2568 26.674 26.3129 25.171 25.7147C23.9686 25.2287 23.8371 25.2848 22.4843 26.7055C21.9395 27.2662 21.4134 27.7336 21.3007 27.7336C21.188 27.7336 20.5116 27.1541 19.8164 26.4624L18.5576 25.1913L19.8728 23.9202C20.5867 23.2099 21.188 22.5369 21.188 22.4061C21.188 22.0135 20.3049 20.219 20.0231 20.0508C19.8916 19.9573 18.9898 19.8825 18.0504 19.8825H16.3031V18.0133V16.144H18.0504C19.1776 16.144 19.9104 16.0505 20.0983 15.901C20.2486 15.7888 20.5867 15.1906 20.831 14.5925L21.2631 13.5083L20.0043 12.2558C19.3092 11.5642 18.7455 10.91 18.7455 10.8165C18.7455 10.5548 21.0376 8.29295 21.3007 8.29295C21.4134 8.29295 21.9395 8.76027 22.4843 9.32106C23.8371 10.7417 23.9686 10.7978 25.171 10.3118C25.7158 10.0875 26.2795 9.78838 26.411 9.62014C26.5613 9.45191 26.6365 8.72288 26.6365 7.60131V5.86287H28.5152H30.394V7.60131Z" fill="#6D28D9"/>
<path d="M26.6929 12.7418C21.9396 14.4428 21.5826 20.7423 26.1293 23.0976C27.3693 23.7332 29.5675 23.6958 30.9953 23.0042C33.0057 22.0134 34.0578 20.3124 34.0578 18.0132C34.0578 16.4243 33.6632 15.3588 32.6675 14.2185C31.3147 12.7044 28.6656 12.0314 26.6929 12.7418ZM30.5069 14.8541C30.8638 15.0784 31.3899 15.6018 31.6717 16.0317C32.3857 17.1346 32.3857 18.8917 31.6717 19.9946C30.9014 21.1723 29.9808 21.6583 28.5153 21.6583C27.0499 21.6583 26.1293 21.1723 25.359 20.0133C24.9268 19.3777 24.8517 19.06 24.8517 18.0319C24.8517 17.0224 24.9456 16.6673 25.359 16.0317C25.8662 15.2466 26.5426 14.7045 27.3693 14.4428C28.1584 14.1811 29.7741 14.3867 30.5069 14.8541Z" fill="#6D28D9"/>
<path d="M8.14916 37.9397C7.98006 38.0892 7.84855 38.5192 7.84855 38.8743V39.5099H4.44793C2.4752 39.5099 0.9158 39.5847 0.690345 39.6968C0.352162 39.8837 0.333374 40.1641 0.333374 46.8936C0.333374 52.9875 0.37095 53.9221 0.633981 54.1651C0.878224 54.4081 1.49823 54.4642 4.39157 54.4642H7.84855V55.0998C7.84855 56.2961 7.96128 56.3335 12.5455 56.3335C17.2237 56.3335 17.2425 56.3335 17.2425 54.9315V54.109L18.5201 54.7072L19.7789 55.3054H28.4401H37.1014L38.5856 54.5577C39.3935 54.1277 41.0844 53.1931 42.3244 52.4828C43.5644 51.7537 46.702 49.9592 49.276 48.4825C51.8687 47.0057 54.3299 45.5664 54.762 45.286C56.8287 43.884 56.8663 40.5567 54.8184 39.2108C53.879 38.5939 52.8457 38.3696 51.9438 38.5752C51.2299 38.7248 50.6099 39.0613 44.7105 42.4634L41.648 44.2205L41.2723 43.8279C40.6147 43.1363 40.0323 42.8559 38.3414 42.4073C37.4396 42.1643 35.5983 41.6783 34.2456 41.3231C32.9117 40.9492 31.1268 40.4819 30.3189 40.2576C26.2795 39.1921 24.4383 38.7622 23.7244 38.7622C23.2922 38.7622 21.7516 39.0613 20.2674 39.4164C18.8019 39.7716 17.5243 40.0707 17.4116 40.0707C17.3177 40.0707 17.2425 39.6594 17.2425 39.1547C17.2425 37.6406 17.2801 37.6406 12.5455 37.6406C9.06976 37.6406 8.3934 37.678 8.14916 37.9397ZM15.3637 46.987V54.4642H12.5455H9.72734V46.987V39.5099H12.5455H15.3637V46.987ZM53.8602 40.9305C54.3299 41.3044 54.4426 41.5661 54.4426 42.1269C54.4426 43.155 53.9729 43.6036 51.4929 45.043C50.2717 45.7346 48.299 46.8562 47.1153 47.5478C45.9317 48.2395 43.2638 49.7723 41.1971 50.9499C39.1305 52.1463 37.1014 53.2118 36.688 53.3426C36.162 53.4922 33.588 53.5296 27.9516 53.4922L19.9668 53.4361L18.614 52.7258L17.2425 52.0341V47.0805V42.1456L17.9565 41.9587C21.0565 41.1362 23.3298 40.6315 23.7995 40.6315C24.4007 40.6315 24.908 40.7623 32.085 42.6877C34.302 43.2672 36.8759 43.9588 37.7777 44.1831C39.0741 44.5196 39.525 44.7439 39.882 45.1551C40.502 45.8842 40.502 46.7814 39.8632 47.5291C39.4686 48.0152 39.2432 48.1086 38.6044 48.1086C38.1723 48.1086 37.5147 48.0152 37.1577 47.9217C36.8008 47.8095 34.2644 47.1366 31.5401 46.4076C26.0728 44.9495 25.6971 44.9308 25.6971 46.0337C25.6971 46.3889 25.8286 46.6693 26.0353 46.7814C26.3359 46.931 29.1165 47.7161 32.6486 48.6507C33.4189 48.8563 34.8844 49.2302 35.8802 49.4919C38.3038 50.1275 39.4874 50.1275 40.4644 49.4919C41.4414 48.8563 42.0426 47.9778 42.1929 46.8749L42.3244 45.9963L45.2365 44.3327C46.8335 43.398 48.9941 42.1643 50.0275 41.5661C52.2257 40.2763 52.9584 40.1641 53.8602 40.9305ZM7.84855 46.987V52.5949H5.03036H2.21217V46.987V41.3792H5.03036H7.84855V46.987Z" fill="#6D28D9"/>
<path d="M11.9067 51.0249C11.7188 51.1932 11.6061 51.6418 11.6061 52.1278C11.6061 53.0064 11.963 53.5298 12.5455 53.5298C13.1279 53.5298 13.4849 53.0064 13.4849 52.1278C13.4849 51.2493 13.1279 50.7259 12.5455 50.7259C12.3576 50.7259 12.057 50.8567 11.9067 51.0249Z" fill="#6D28D9"/>
</svg>
