<svg width="57" height="57" viewBox="0 0 57 57" fill="none" xmlns="http://www.w3.org/2000/svg">
<g clip-path="url(#clip0_166_43)">
<path d="M25.791 0.441698C21.6013 1.02117 17.6934 2.96524 14.6874 5.93741C11.2116 9.39559 9.25765 13.5267 8.8631 18.3121L8.73158 19.8449L7.11582 19.9197C4.5043 20.0506 2.88854 21.0039 1.89277 23.0227C1.19762 24.4434 1.16004 26.6305 1.79883 27.8642C2.43762 29.0979 3.26429 29.9204 4.42915 30.4812C5.46248 30.9859 5.63157 31.0046 8.7128 31.0607C11.4934 31.1168 11.9631 31.0794 12.2261 30.8177C12.508 30.556 12.5455 29.9017 12.5455 25.4902C12.5455 19.8823 12.5455 19.8823 11.2867 19.8823H10.6104L10.7419 18.4243C11.174 13.751 13.5601 9.17128 17.1298 6.2178C18.7643 4.85322 22.0147 3.22694 24.1941 2.64746C26.4862 2.04928 30.5444 2.04928 32.8365 2.64746C35.0159 3.22694 37.9468 4.68498 39.6565 6.03087C43.3578 8.94696 45.8566 13.6389 46.2887 18.4243L46.4202 19.8823H45.7438C44.485 19.8823 44.485 19.8823 44.485 25.4902C44.485 31.0794 44.485 31.0981 45.725 31.0981H46.3638V32.6683C46.3638 34.9301 46.5329 34.8366 42.2305 34.8366H38.6796L38.379 34.2758C37.9093 33.3786 36.8759 32.9673 35.0723 32.9673C32.5359 32.9673 31.4274 33.8085 31.4274 35.7713C31.4274 37.005 31.9159 37.8088 32.9492 38.2948C33.4753 38.5378 34.0014 38.5939 35.3353 38.5378C36.8008 38.5004 37.1577 38.407 37.6462 38.0331C37.9844 37.8088 38.3414 37.3976 38.4541 37.1546L38.6608 36.7059H42.3244C45.6311 36.7059 46.082 36.6685 46.7396 36.3321C47.8669 35.7713 48.2426 34.874 48.2426 32.8178V31.1354L49.896 31.0607C52.5263 30.9485 54.1232 29.9765 55.2317 27.8642C55.8705 26.6305 55.8329 24.4434 55.1378 23.0227C54.142 21.0039 52.5263 20.0506 49.9147 19.9197L48.299 19.8449L48.1675 18.3121C47.7729 13.5267 45.7814 9.32082 42.2493 5.86264C39.7505 3.39517 36.5753 1.63804 33.1183 0.796863C31.3898 0.385619 27.5195 0.19869 25.791 0.441698ZM6.90915 25.4902C6.90915 29.5839 6.96552 29.4157 5.76309 29.0231C4.31642 28.5371 3.15157 27.0417 3.15157 25.6584C3.15157 23.6583 4.72975 21.8638 6.58976 21.7703C6.89037 21.7516 6.90915 22.0507 6.90915 25.4902ZM10.6667 25.4902V29.2288H9.72735H8.78795V25.4902V21.7516H9.72735H10.6667V25.4902ZM48.2426 25.4902V29.2288H47.3032H46.3638V25.4902V21.7516H47.3032H48.2426V25.4902ZM52.2445 22.4246C53.0899 22.9853 53.879 24.4621 53.879 25.5463C53.879 27.0417 52.7705 28.5184 51.2675 29.0231C50.0651 29.4157 50.1214 29.5839 50.1214 25.4715V21.7142L50.8354 21.8451C51.2111 21.9012 51.8499 22.1815 52.2445 22.4246ZM36.6692 35.1357C36.8383 35.2853 36.9699 35.5844 36.9699 35.7713C36.9699 36.4442 36.4626 36.7059 35.0911 36.7059C33.7195 36.7059 33.2123 36.4442 33.2123 35.7713C33.2123 35.0983 33.7195 34.8366 35.0911 34.8366C36.0117 34.8366 36.4626 34.9114 36.6692 35.1357Z" fill="#6D28D9"/>
<path d="M25.0583 4.29274C24.814 4.51705 24.7577 5.00307 24.7577 6.53588C24.7577 7.99393 24.7013 8.47995 24.5134 8.47995C24.3819 8.47995 23.6867 7.88177 22.9728 7.17144C22.0522 6.25549 21.5261 5.86294 21.2067 5.86294C20.568 5.86294 16.3031 10.0689 16.3031 10.7044C16.3031 10.9848 16.754 11.6017 17.6182 12.4803C18.3322 13.228 18.9334 13.9383 18.9334 14.0505C18.9334 14.2 18.351 14.2748 16.9795 14.2748C15.4388 14.2748 14.9504 14.3309 14.7249 14.5739C14.274 15.0038 14.274 21.0229 14.7249 21.4528C14.9504 21.6959 15.4388 21.7519 16.9795 21.7519C18.351 21.7519 18.9334 21.8267 18.9334 21.9762C18.9334 22.0884 18.351 22.7987 17.6182 23.5465C16.754 24.425 16.3031 25.0419 16.3031 25.3223C16.3031 25.9578 20.5867 30.1637 21.2067 30.1637C21.5261 30.1637 22.071 29.7525 22.9728 28.8552C23.6867 28.1262 24.3819 27.5467 24.5134 27.5467C24.7013 27.5467 24.7577 28.0327 24.7577 29.4908C24.7577 31.0236 24.814 31.5096 25.0583 31.7339C25.4904 32.1826 31.5401 32.1826 31.9722 31.7339C32.2165 31.5096 32.2728 31.0236 32.2728 29.4908C32.2728 28.0327 32.3292 27.5467 32.5171 27.5467C32.6486 27.5467 33.3437 28.1262 34.0577 28.8552C34.9783 29.7712 35.5044 30.1637 35.8238 30.1637C36.4625 30.1637 40.7274 25.9578 40.7274 25.3223C40.7274 25.0419 40.2765 24.425 39.4123 23.5465C38.6983 22.7987 38.0971 22.0884 38.0971 21.9762C38.0971 21.8267 38.6795 21.7519 40.051 21.7519C41.5917 21.7519 42.0801 21.6959 42.3056 21.4528C42.7565 21.0229 42.7565 15.0038 42.3056 14.5739C42.0801 14.3309 41.5917 14.2748 40.051 14.2748C38.6795 14.2748 38.0971 14.2 38.0971 14.0505C38.0971 13.9383 38.6983 13.228 39.4123 12.4803C40.2765 11.6017 40.7274 10.9848 40.7274 10.7044C40.7274 10.0689 36.4625 5.86294 35.8238 5.86294C35.5044 5.86294 34.9783 6.25549 34.0577 7.17144C33.3437 7.88177 32.6486 8.47995 32.5171 8.47995C32.3292 8.47995 32.2728 7.99393 32.2728 6.53588C32.2728 5.00307 32.2165 4.51705 31.9722 4.29274C31.728 4.04973 31.1456 3.99365 28.5152 3.99365C25.8849 3.99365 25.3025 4.04973 25.0583 4.29274ZM30.394 7.60138C30.394 8.72295 30.4692 9.45198 30.6383 9.62021C31.014 10.0876 32.8177 10.7418 33.1934 10.5549C33.3625 10.4614 33.9638 9.90061 34.5274 9.33982C35.091 8.76034 35.6547 8.29302 35.7674 8.29302C35.9928 8.29302 38.1347 10.4053 38.2662 10.7418C38.3038 10.854 37.7589 11.5269 37.045 12.2372L35.7674 13.5084L36.1995 14.5926C36.4438 15.1907 36.7819 15.7889 36.9322 15.9011C37.1201 16.0506 37.8529 16.1441 38.9801 16.1441H40.7274V18.0134V19.8826H38.9989C38.0407 19.8826 37.1389 19.9574 37.0074 20.0509C36.7256 20.2191 35.8425 22.0136 35.8425 22.3875C35.8425 22.5183 36.4438 23.21 37.1577 23.9203L38.4729 25.2101L37.2141 26.4625C36.5377 27.1729 35.8801 27.7337 35.7486 27.7337C35.6171 27.7337 35.091 27.2663 34.5462 26.7056C33.1934 25.2849 33.0619 25.2288 31.8595 25.7148C30.3565 26.313 30.394 26.2569 30.394 28.3131V30.1637H28.5152H26.6365V28.3131C26.6365 26.2569 26.674 26.313 25.171 25.7148C23.9686 25.2288 23.8371 25.2849 22.4843 26.7056C21.9395 27.2663 21.4134 27.7337 21.3007 27.7337C21.188 27.7337 20.5116 27.1542 19.8164 26.4625L18.5576 25.1914L19.8728 23.9203C20.5867 23.21 21.188 22.537 21.188 22.4062C21.188 22.0136 20.3049 20.2191 20.0231 20.0509C19.8916 19.9574 18.9898 19.8826 18.0504 19.8826H16.3031V18.0134V16.1441H18.0504C19.1776 16.1441 19.9104 16.0506 20.0983 15.9011C20.2486 15.7889 20.5867 15.1907 20.831 14.5926L21.2631 13.5084L20.0043 12.2559C19.3092 11.5643 18.7455 10.9101 18.7455 10.8166C18.7455 10.5549 21.0376 8.29302 21.3007 8.29302C21.4134 8.29302 21.9395 8.76034 22.4843 9.32113C23.8371 10.7418 23.9686 10.7979 25.171 10.3119C25.7158 10.0876 26.2795 9.78845 26.411 9.62021C26.5613 9.45198 26.6365 8.72295 26.6365 7.60138V5.86294H28.5152H30.394V7.60138Z" fill="#6D28D9"/>
<path d="M26.6929 12.7416C21.9396 14.4426 21.5826 20.7421 26.1293 23.0974C27.3693 23.733 29.5675 23.6956 30.9953 23.004C33.0057 22.0132 34.0578 20.3122 34.0578 18.013C34.0578 16.4241 33.6632 15.3586 32.6675 14.2183C31.3147 12.7042 28.6656 12.0312 26.6929 12.7416ZM30.5069 14.8539C30.8638 15.0782 31.3899 15.6016 31.6717 16.0315C32.3857 17.1344 32.3857 18.8915 31.6717 19.9944C30.9014 21.1721 29.9808 21.6581 28.5153 21.6581C27.0499 21.6581 26.1293 21.1721 25.359 20.0131C24.9268 19.3775 24.8517 19.0598 24.8517 18.0317C24.8517 17.0222 24.9456 16.6671 25.359 16.0315C25.8662 15.2464 26.5426 14.7043 27.3693 14.4426C28.1584 14.1809 29.7741 14.3865 30.5069 14.8539Z" fill="#6D28D9"/>
<path d="M8.14916 37.9397C7.98006 38.0892 7.84855 38.5192 7.84855 38.8743V39.5099H4.44793C2.4752 39.5099 0.9158 39.5847 0.690345 39.6968C0.352162 39.8837 0.333374 40.1641 0.333374 46.8936C0.333374 52.9875 0.37095 53.9221 0.633981 54.1651C0.878224 54.4081 1.49823 54.4642 4.39157 54.4642H7.84855V55.0998C7.84855 56.2961 7.96128 56.3335 12.5455 56.3335C17.2237 56.3335 17.2425 56.3335 17.2425 54.9315V54.109L18.5201 54.7072L19.7789 55.3054H28.4401H37.1014L38.5856 54.5577C39.3935 54.1277 41.0844 53.1931 42.3244 52.4828C43.5644 51.7537 46.702 49.9592 49.276 48.4825C51.8687 47.0057 54.3299 45.5664 54.762 45.286C56.8287 43.884 56.8663 40.5567 54.8184 39.2108C53.879 38.5939 52.8457 38.3696 51.9438 38.5752C51.2299 38.7248 50.6099 39.0613 44.7105 42.4634L41.648 44.2205L41.2723 43.8279C40.6147 43.1363 40.0323 42.8559 38.3414 42.4073C37.4396 42.1643 35.5983 41.6783 34.2456 41.3231C32.9117 40.9492 31.1268 40.4819 30.3189 40.2576C26.2795 39.1921 24.4383 38.7622 23.7244 38.7622C23.2922 38.7622 21.7516 39.0613 20.2674 39.4164C18.8019 39.7716 17.5243 40.0707 17.4116 40.0707C17.3177 40.0707 17.2425 39.6594 17.2425 39.1547C17.2425 37.6406 17.2801 37.6406 12.5455 37.6406C9.06976 37.6406 8.3934 37.678 8.14916 37.9397ZM15.3637 46.987V54.4642H12.5455H9.72734V46.987V39.5099H12.5455H15.3637V46.987ZM53.8602 40.9305C54.3299 41.3044 54.4426 41.5661 54.4426 42.1269C54.4426 43.155 53.9729 43.6036 51.4929 45.043C50.2717 45.7346 48.299 46.8562 47.1153 47.5478C45.9317 48.2395 43.2638 49.7723 41.1971 50.9499C39.1305 52.1463 37.1014 53.2118 36.688 53.3426C36.162 53.4922 33.588 53.5296 27.9516 53.4922L19.9668 53.4361L18.614 52.7258L17.2425 52.0341V47.0805V42.1456L17.9565 41.9587C21.0565 41.1362 23.3298 40.6315 23.7995 40.6315C24.4007 40.6315 24.908 40.7623 32.085 42.6877C34.302 43.2672 36.8759 43.9588 37.7777 44.1831C39.0741 44.5196 39.525 44.7439 39.882 45.1551C40.502 45.8842 40.502 46.7814 39.8632 47.5291C39.4686 48.0152 39.2432 48.1086 38.6044 48.1086C38.1723 48.1086 37.5147 48.0152 37.1577 47.9217C36.8008 47.8095 34.2644 47.1366 31.5401 46.4076C26.0728 44.9495 25.6971 44.9308 25.6971 46.0337C25.6971 46.3889 25.8286 46.6693 26.0353 46.7814C26.3359 46.931 29.1165 47.7161 32.6486 48.6507C33.4189 48.8563 34.8844 49.2302 35.8802 49.4919C38.3038 50.1275 39.4874 50.1275 40.4644 49.4919C41.4414 48.8563 42.0426 47.9778 42.1929 46.8749L42.3244 45.9963L45.2365 44.3327C46.8335 43.398 48.9941 42.1643 50.0275 41.5661C52.2257 40.2763 52.9584 40.1641 53.8602 40.9305ZM7.84855 46.987V52.5949H5.03036H2.21217V46.987V41.3792H5.03036H7.84855V46.987Z" fill="#6D28D9"/>
<path d="M11.9067 51.0251C11.7188 51.1934 11.6061 51.642 11.6061 52.128C11.6061 53.0066 11.963 53.53 12.5455 53.53C13.1279 53.53 13.4849 53.0066 13.4849 52.128C13.4849 51.2495 13.1279 50.7261 12.5455 50.7261C12.3576 50.7261 12.057 50.8569 11.9067 51.0251Z" fill="#6D28D9"/>
</g>
<defs>
<clipPath id="clip0_166_43">
<rect width="57" height="57" fill="white"/>
</clipPath>
</defs>
</svg>
