<svg width="37" height="37" viewBox="0 0 37 37" fill="none" xmlns="http://www.w3.org/2000/svg">
<ip-path="url(#clip0_238_6)">
<path d="M26.0634 11.0742C26.0707 11.0742 26.0806 11.0742 26.0904 11.0742C26.3471 11.0742 26.5855 11.1541 26.7808 11.2916L26.7771 11.2892C26.9196 11.4132 27.0154 11.5877 27.0387 11.7842V11.7879C27.0633 11.9378 27.0768 12.1098 27.0768 12.2854C27.0768 12.3653 27.0744 12.4439 27.0682 12.5225V12.5115C26.7918 15.4216 25.5929 22.4789 24.9836 25.7366C24.7256 27.1161 24.2183 27.578 23.7269 27.6222C22.6594 27.7217 21.8487 26.9171 20.8143 26.239C19.1953 25.1765 18.2801 24.5156 16.709 23.48C14.8921 22.2848 16.0702 21.6251 17.1045 20.5515C17.376 20.2689 22.0821 15.9879 22.1742 15.5997C22.1791 15.5764 22.1816 15.5506 22.1816 15.5235C22.1816 15.4277 22.1459 15.3405 22.0882 15.2742C22.0243 15.2324 21.9445 15.2091 21.861 15.2091C21.8057 15.2091 21.7529 15.2201 21.7037 15.2385L21.7062 15.2373C21.544 15.2742 18.9578 16.9833 13.9475 20.3647C13.4008 20.7959 12.7105 21.0686 11.9587 21.1006H11.9513C10.8863 20.9716 9.91949 20.7345 9.00186 20.3967L9.09276 20.4262C7.94051 20.0503 7.02533 19.8525 7.10395 19.2162C7.14572 18.8853 7.60187 18.5467 8.47241 18.2003C13.8349 15.8638 17.4108 14.3238 19.2002 13.5802C21.1743 12.5323 23.4628 11.67 25.8693 11.1111L26.0622 11.073L26.0634 11.0742ZM18.457 0C8.25867 0.0245684 0 8.29797 0 18.5C0 28.7168 8.28201 37 18.5 37C28.718 37 37 28.718 37 18.5C37 8.29797 28.7413 0.0245684 18.5455 0H18.543C18.5143 0 18.4857 0 18.457 0Z" fill="white"/>
</g>
<defs>
<clipPath id="clip0_238_6">
<rect width="37" height="37" fill="white"/>
</clipPath>
</defs>
</svg>
