<svg width="17" height="16" viewBox="0 0 17 16" fill="none" xmlns="http://www.w3.org/2000/svg">
<g clip-path="url(#clip0_183_126)">
<mask id="mask0_183_126" style="mask-type:luminance" maskUnits="userSpaceOnUse" x="0" y="0" width="17" height="16">
<path d="M16.5 0H0.5V16H16.5V0Z" fill="white"/>
</mask>
<g mask="url(#mask0_183_126)">
<path d="M6.5 8C8.706 8 10.5 6.206 10.5 4C10.5 1.794 8.706 0 6.5 0C4.294 0 2.5 1.794 2.5 4C2.5 6.206 4.294 8 6.5 8ZM11.224 16H9.16667V13.9427L14.0167 9.09267C14.5847 8.52467 15.506 8.52467 16.074 9.09267C16.642 9.66067 16.642 10.582 16.074 11.15L11.224 16ZM7.83333 16H0.5V12.6667C0.5 10.8287 1.99533 9.33333 3.83333 9.33333H9.16667C9.93 9.33333 10.626 9.602 11.1887 10.0353L7.83333 13.3907V16Z" fill="#6D28D9"/>
</g>
</g>
<defs>
<clipPath id="clip0_183_126">
<rect width="16" height="16" fill="white" transform="translate(0.5)"/>
</clipPath>
</defs>
</svg>
