<svg width="140" height="140" viewBox="0 0 140 140" fill="none" xmlns="http://www.w3.org/2000/svg">
<path d="M96.928 7.65625H43.0718C39.5908 7.65625 36.2524 9.03906 33.791 11.5005C31.3296 13.9619 29.9468 17.3003 29.9468 20.7812V119.219C29.9468 122.7 31.3296 126.038 33.791 128.5C36.2524 130.961 39.5908 132.344 43.0718 132.344H96.928C100.409 132.344 103.747 130.961 106.209 128.5C108.67 126.038 110.053 122.7 110.053 119.219V20.7812C110.053 17.3003 108.67 13.9619 106.209 11.5005C103.747 9.03906 100.409 7.65625 96.928 7.65625ZM84.9843 12.0312L83.1687 18.7906H56.8312L55.0155 12.0312H84.9843ZM105.678 119.219C105.678 121.539 104.756 123.765 103.115 125.406C101.474 127.047 99.2487 127.969 96.928 127.969H43.0718C40.7511 127.969 38.5255 127.047 36.8846 125.406C35.2436 123.765 34.3218 121.539 34.3218 119.219V114.516H105.678V119.219ZM105.678 110.141H34.3218V20.7812C34.3218 18.4606 35.2436 16.235 36.8846 14.5941C38.5255 12.9531 40.7511 12.0313 43.0718 12.0312H50.4874L52.6093 19.9281C52.857 20.8581 53.4054 21.6799 54.1691 22.2655C54.9328 22.8512 55.8688 23.1676 56.8312 23.1656H83.1687C84.131 23.1676 85.067 22.8512 85.8307 22.2655C86.5944 21.6799 87.1428 20.8581 87.3905 19.9281L89.5124 12.0312H96.928C99.2487 12.0313 101.474 12.9531 103.115 14.5941C104.756 16.235 105.678 18.4606 105.678 20.7812V110.141Z" fill="#6D28D9"/>
<path d="M75.0727 119.057H65.5439C64.9638 119.057 64.4074 119.287 63.9972 119.697C63.5869 120.108 63.3564 120.664 63.3564 121.244C63.3564 121.824 63.5869 122.381 63.9972 122.791C64.4074 123.201 64.9638 123.432 65.5439 123.432H75.0727C75.6529 123.432 76.2093 123.201 76.6195 122.791C77.0297 122.381 77.2602 121.824 77.2602 121.244C77.2602 120.664 77.0297 120.108 76.6195 119.697C76.2093 119.287 75.6529 119.057 75.0727 119.057Z" fill="#6D28D9"/>
<path d="M84.9406 56.6125C84.9046 56.0307 84.7533 55.4619 84.4955 54.9391C84.2377 54.4164 83.8785 53.9501 83.4388 53.5674C82.9991 53.1847 82.4877 52.8933 81.9344 52.71C81.3811 52.5268 80.7968 52.4554 80.2156 52.5H76.5625V48.125C76.5625 46.3845 75.8711 44.7153 74.6404 43.4846C73.4097 42.2539 71.7405 41.5625 70 41.5625C68.2595 41.5625 66.5903 42.2539 65.3596 43.4846C64.1289 44.7153 63.4375 46.3845 63.4375 48.125V52.5H59.7844C58.644 52.4019 57.5106 52.7547 56.6273 53.4826C55.7439 54.2105 55.1811 55.2556 55.0594 56.3938L52.5 83.3875C52.5368 83.971 52.6893 84.5413 52.9488 85.0651C53.2083 85.589 53.5695 86.056 54.0114 86.4388C54.4532 86.8216 54.9669 87.1126 55.5224 87.2948C56.0779 87.477 56.6641 87.5468 57.2469 87.5H82.7531C83.351 87.5431 83.9513 87.4644 84.5179 87.2687C85.0844 87.073 85.6053 86.7644 86.0491 86.3615C86.4929 85.9586 86.8503 85.4699 87.0997 84.9248C87.3491 84.3798 87.4853 83.7898 87.5 83.1906L84.9406 56.6125ZM67.8125 48.125C67.8125 47.5448 68.043 46.9884 68.4532 46.5782C68.8634 46.168 69.4198 45.9375 70 45.9375C70.5802 45.9375 71.1366 46.168 71.5468 46.5782C71.957 46.9884 72.1875 47.5448 72.1875 48.125V52.5H67.8125V48.125ZM82.7531 83.125H57.2469C57.1361 83.1242 57.0259 83.1095 56.9188 83.0812L59.3906 56.9406C59.5182 56.9007 59.6507 56.8786 59.7844 56.875H63.4375V63.4375C63.4375 64.0177 63.668 64.5741 64.0782 64.9843C64.4884 65.3945 65.0448 65.625 65.625 65.625C66.2052 65.625 66.7616 65.3945 67.1718 64.9843C67.582 64.5741 67.8125 64.0177 67.8125 63.4375V56.875H72.1875V63.4375C72.1875 64.0177 72.418 64.5741 72.8282 64.9843C73.2384 65.3945 73.7948 65.625 74.375 65.625C74.9552 65.625 75.5116 65.3945 75.9218 64.9843C76.332 64.5741 76.5625 64.0177 76.5625 63.4375V56.875H80.2156C80.3424 56.8759 80.4681 56.8981 80.5875 56.9406L83.1031 83.0812C82.9888 83.1108 82.8712 83.1255 82.7531 83.125Z" fill="#6D28D9"/>
<path d="M80.2813 38.7405C79.8738 39.1446 79.3239 39.3725 78.75 39.3749C78.4602 39.3767 78.173 39.3194 77.9059 39.2066C77.6389 39.0937 77.3977 38.9277 77.1969 38.7186L70.1094 31.5217L62.7813 38.7405C62.5835 38.968 62.3409 39.1521 62.0686 39.2814C61.7963 39.4107 61.5002 39.4823 61.1989 39.4918C60.8977 39.5012 60.5977 39.4483 60.3178 39.3363C60.038 39.2244 59.7843 39.0558 59.5726 38.8411C59.361 38.6265 59.196 38.3704 59.0881 38.089C58.9801 37.8076 58.9314 37.5069 58.9451 37.2058C58.9589 36.9046 59.0347 36.6096 59.1678 36.3392C59.3009 36.0688 59.4885 35.8288 59.7188 35.6342L68.5781 26.8842C68.7829 26.6806 69.026 26.5196 69.2934 26.4104C69.5607 26.3012 69.8471 26.2461 70.1358 26.2481C70.4246 26.2501 70.7101 26.3093 70.9759 26.4223C71.2417 26.5352 71.4825 26.6997 71.6844 26.9061L80.3031 35.6561C80.5069 35.8586 80.6682 36.0997 80.7776 36.3653C80.887 36.6309 80.9423 36.9157 80.9403 37.2029C80.9382 37.4901 80.8789 37.7741 80.7657 38.0381C80.6526 38.3021 80.4879 38.5409 80.2813 38.7405Z" fill="#6D28D9"/>
<path d="M80.3031 97.7808L71.6844 106.531C71.4825 106.737 71.2417 106.902 70.9759 107.015C70.7101 107.128 70.4246 107.187 70.1358 107.189C69.8471 107.191 69.5607 107.136 69.2934 107.026C69.026 106.917 68.7829 106.756 68.5781 106.553L59.7188 97.8027C59.4885 97.6081 59.3009 97.3682 59.1678 97.0977C59.0347 96.8273 58.9589 96.5323 58.9451 96.2311C58.9314 95.93 58.9801 95.6293 59.0881 95.3479C59.196 95.0665 59.361 94.8104 59.5726 94.5958C59.7843 94.3811 60.038 94.2125 60.3178 94.1006C60.5977 93.9886 60.8977 93.9357 61.1989 93.9451C61.5002 93.9546 61.7963 94.0262 62.0686 94.1555C62.3409 94.2848 62.5835 94.4689 62.7813 94.6964L70.1094 101.915L77.1969 94.7183C77.3914 94.488 77.6314 94.3004 77.9018 94.1673C78.1723 94.0342 78.4673 93.9584 78.7684 93.9447C79.0695 93.9309 79.3702 93.9796 79.6516 94.0876C79.9331 94.1956 80.1891 94.3605 80.4038 94.5722C80.6184 94.7838 80.787 95.0375 80.899 95.3173C81.0109 95.5972 81.0639 95.8972 81.0544 96.1985C81.045 96.4997 80.9734 96.7958 80.8441 97.0681C80.7148 97.3404 80.5306 97.583 80.3031 97.7808Z" fill="#6D28D9"/>
</svg>
